
<svg width="1024" height="1024" viewBox="0 0 1024 1024" fill="none" xmlns="http://www.w3.org/2000/svg">
  <defs>
    
            <linearGradient id="bg" x1="136" y1="112" x2="904" y2="912" gradientUnits="userSpaceOnUse">
              <stop offset="0" stop-color="#F87171"/>
              <stop offset="0.55" stop-color="#DC2626"/>
              <stop offset="1" stop-color="#991B1B"/>
            </linearGradient>
            <linearGradient id="paper" x1="200" y1="100" x2="800" y2="900" gradientUnits="userSpaceOnUse">
              <stop offset="0" stop-color="#FEF2F2"/>
              <stop offset="1" stop-color="#FECACA"/>
            </linearGradient>
            <linearGradient id="scissors" x1="400" y1="100" x2="700" y2="400" gradientUnits="userSpaceOnUse">
               <stop offset="0" stop-color="#E5E7EB"/>
               <stop offset="1" stop-color="#9CA3AF"/>
            </linearGradient>
        
    <radialGradient id="shine" cx="0" cy="0" r="1" gradientUnits="userSpaceOnUse" gradientTransform="translate(292 240) rotate(43) scale(470 611)">
      <stop stop-color="#FFFFFF" stop-opacity="0.25"/>
      <stop offset="0.6" stop-color="#FFFFFF" stop-opacity="0.05"/>
      <stop offset="1" stop-color="#FFFFFF" stop-opacity="0"/>
    </radialGradient>
  </defs>
  <rect x="72" y="72" width="880" height="880" rx="236" fill="url(#bg)"/>
  <rect x="72" y="72" width="880" height="880" rx="236" fill="url(#shine)"/>
  
            <circle cx="850" cy="200" r="140" fill="#FEF2F2" fill-opacity="0.1"/>
            <circle cx="200" cy="850" r="160" fill="#991B1B" fill-opacity="0.2"/>
            
            <!-- Scissors shadow -->
            <path d="M570 190 l-180 280 M630 250 l-180 280" stroke="#991B1B" stroke-width="36" stroke-linecap="round" stroke-opacity="0.3"/>

            <!-- Paper Left Panel Shadow -->
            <path d="M260 300 h240 v500 a32 32 0 0 1 -32 32 h-176 a32 32 0 0 1 -32 -32 z" fill="#991B1B" fill-opacity="0.3"/>
            <!-- Paper Left Panel -->
            <path d="M240 280 h240 v500 a32 32 0 0 1 -32 32 h-176 a32 32 0 0 1 -32 -32 z" fill="url(#paper)" stroke="#FFFFFF" stroke-width="8"/>
            <rect x="300" y="440" width="120" height="24" rx="12" fill="#FCA5A5"/>
            <rect x="300" y="520" width="140" height="24" rx="12" fill="#FCA5A5"/>
            <rect x="300" y="600" width="100" height="24" rx="12" fill="#EF4444"/>
            <rect x="300" y="680" width="130" height="24" rx="12" fill="#FCA5A5"/>

            <!-- Paper Right Panel Shadow (Slid down) -->
            <path d="M560 380 h128 l112 112 v320 a32 32 0 0 1 -32 32 h-208 z" fill="#991B1B" fill-opacity="0.3"/>
            <!-- Paper Right Panel -->
            <path d="M540 360 h128 l112 112 v320 a32 32 0 0 1 -32 32 h-208 z" fill="url(#paper)" stroke="#FFFFFF" stroke-width="8"/>
            <path d="M668 360 v112 h112 z" fill="#FCA5A5" fill-opacity="0.4"/>
            
            <rect x="600" y="520" width="120" height="24" rx="12" fill="#FCA5A5"/>
            <rect x="600" y="600" width="140" height="24" rx="12" fill="#FCA5A5"/>
            <rect x="600" y="680" width="100" height="24" rx="12" fill="#EF4444"/>

            <!-- Cut Line -->
            <path d="M512 360 v500" fill="none" stroke="#FFFFFF" stroke-width="16" stroke-dasharray="32 32"/>

            <!-- Scissors -->
            <!-- Blade 1 -->
            <path d="M550 170 l-180 280" stroke="url(#scissors)" stroke-width="36" stroke-linecap="round"/>
            <!-- Blade 2 -->
            <path d="M610 230 l-180 280" stroke="url(#scissors)" stroke-width="36" stroke-linecap="round"/>
            <circle cx="474" cy="290" r="16" fill="#4B5563"/>
            <!-- Handles -->
            <circle cx="580" cy="140" r="50" fill="none" stroke="#F87171" stroke-width="36"/>
            <circle cx="650" cy="210" r="50" fill="none" stroke="#F87171" stroke-width="36"/>
        
</svg>