{
  "asset": {
    "generator": "FBX2glTF v0.13.1",
    "version": "2.0"
  },
  "scene": 0,
  "buffers": [
    {
      "byteLength": 1236492,
      "uri": "adult-male0.bin"
    }
  ],
  "bufferViews": [
    {
      "buffer": 0,
      "byteLength": 160536,
      "byteOffset": 0,
      "target": 34963
    },
    {
      "buffer": 0,
      "byteLength": 174204,
      "byteOffset": 160536,
      "target": 34962
    },
    {
      "buffer": 0,
      "byteLength": 116136,
      "byteOffset": 334740,
      "target": 34962
    },
    {
      "buffer": 0,
      "byteLength": 116136,
      "byteOffset": 450876,
      "target": 34962
    },
    {
      "buffer": 0,
      "byteLength": 116136,
      "byteOffset": 567012,
      "target": 34962
    },
    {
      "buffer": 0,
      "byteLength": 232272,
      "byteOffset": 683148,
      "target": 34962
    },
    {
      "buffer": 0,
      "byteLength": 232272,
      "byteOffset": 915420,
      "target": 34962
    },
    {
      "buffer": 0,
      "byteLength": 12240,
      "byteOffset": 1147692,
      "target": 34963
    },
    {
      "buffer": 0,
      "byteLength": 12912,
      "byteOffset": 1159932,
      "target": 34962
    },
    {
      "buffer": 0,
      "byteLength": 8608,
      "byteOffset": 1172844,
      "target": 34962
    },
    {
      "buffer": 0,
      "byteLength": 8608,
      "byteOffset": 1181452,
      "target": 34962
    },
    {
      "buffer": 0,
      "byteLength": 8608,
      "byteOffset": 1190060,
      "target": 34962
    },
    {
      "buffer": 0,
      "byteLength": 17216,
      "byteOffset": 1198668,
      "target": 34962
    },
    {
      "buffer": 0,
      "byteLength": 17216,
      "byteOffset": 1215884,
      "target": 34962
    },
    {
      "buffer": 0,
      "byteLength": 3328,
      "byteOffset": 1233100
    },
    {
      "buffer": 0,
      "byteLength": 64,
      "byteOffset": 1236428
    }
  ],
  "scenes": [
    {
      "name": "Root Scene",
      "nodes": [
        0
      ]
    }
  ],
  "accessors": [
    {
      "componentType": 5123,
      "type": "SCALAR",
      "count": 80268,
      "bufferView": 0,
      "byteOffset": 0
    },
    {
      "componentType": 5126,
      "type": "VEC3",
      "count": 14517,
      "bufferView": 1,
      "byteOffset": 0,
      "min": [
        -0.600338876247406,
        -0.00107513426337391,
        -0.103116042912006
      ],
      "max": [
        0.600338876247406,
        1.84020018577576,
        0.393761545419693
      ]
    },
    {
      "componentType": 5126,
      "type": "VEC2",
      "count": 14517,
      "bufferView": 2,
      "byteOffset": 0
    },
    {
      "componentType": 5123,
      "type": "VEC4",
      "count": 14517,
      "bufferView": 3,
      "byteOffset": 0
    },
    {
      "componentType": 5123,
      "type": "VEC4",
      "count": 14517,
      "bufferView": 4,
      "byteOffset": 0
    },
    {
      "componentType": 5126,
      "type": "VEC4",
      "count": 14517,
      "bufferView": 5,
      "byteOffset": 0
    },
    {
      "componentType": 5126,
      "type": "VEC4",
      "count": 14517,
      "bufferView": 6,
      "byteOffset": 0
    },
    {
      "componentType": 5123,
      "type": "SCALAR",
      "count": 6120,
      "bufferView": 7,
      "byteOffset": 0
    },
    {
      "componentType": 5126,
      "type": "VEC3",
      "count": 1076,
      "bufferView": 8,
      "byteOffset": 0,
      "min": [
        -0.0470945574343204,
        1.71046626567841,
        0.122868023812771
      ],
      "max": [
        0.0470945574343204,
        1.74172914028168,
        0.148553356528282
      ]
    },
    {
      "componentType": 5126,
      "type": "VEC2",
      "count": 1076,
      "bufferView": 9,
      "byteOffset": 0
    },
    {
      "componentType": 5123,
      "type": "VEC4",
      "count": 1076,
      "bufferView": 10,
      "byteOffset": 0
    },
    {
      "componentType": 5123,
      "type": "VEC4",
      "count": 1076,
      "bufferView": 11,
      "byteOffset": 0
    },
    {
      "componentType": 5126,
      "type": "VEC4",
      "count": 1076,
      "bufferView": 12,
      "byteOffset": 0
    },
    {
      "componentType": 5126,
      "type": "VEC4",
      "count": 1076,
      "bufferView": 13,
      "byteOffset": 0
    },
    {
      "componentType": 5126,
      "type": "MAT4",
      "count": 52,
      "bufferView": 14,
      "byteOffset": 0
    },
    {
      "componentType": 5126,
      "type": "MAT4",
      "count": 1,
      "bufferView": 15,
      "byteOffset": 0
    }
  ],
  "images": [
    {
      "name": "brown_eye.png",
      "uri": "brown_eye.png"
    }
  ],
  "samplers": [
    {}
  ],
  "textures": [
    {
      "name": "brown_eye_png",
      "sampler": 0,
      "source": 0
    }
  ],
  "materials": [
    {
      "name": "adult_male",
      "alphaMode": "OPAQUE",
      "doubleSided": false,
      "extras": {
        "fromFBX": {
          "shadingModel": "Phong",
          "isTruePBR": false
        }
      },
      "pbrMetallicRoughness": {
        "baseColorFactor": [
          0.590333342552185,
          0.439999997615814,
          0.337999999523163,
          1.0
        ],
        "metallicFactor": 0.400000005960464,
        "roughnessFactor": 0.821994960308075
      }
    },
    {
      "name": "high-poly",
      "alphaMode": "BLEND",
      "doubleSided": false,
      "extras": {
        "fromFBX": {
          "shadingModel": "Phong",
          "isTruePBR": false
        }
      },
      "pbrMetallicRoughness": {
        "baseColorTexture": {
          "index": 0,
          "texCoord": 0
        },
        "baseColorFactor": [
          1.0,
          1.0,
          1.0,
          1.0
        ],
        "metallicFactor": 0.400000005960464,
        "roughnessFactor": 0.816496610641479
      }
    }
  ],
  "meshes": [
    {
      "name": "adult_maleMesh",
      "primitives": [
        {
          "material": 0,
          "mode": 4,
          "attributes": {
            "JOINTS_0": 3,
            "JOINTS_1": 4,
            "POSITION": 1,
            "TEXCOORD_0": 2,
            "WEIGHTS_0": 5,
            "WEIGHTS_1": 6
          },
          "indices": 0
        }
      ]
    },
    {
      "name": "high-polyMesh",
      "primitives": [
        {
          "material": 1,
          "mode": 4,
          "attributes": {
            "JOINTS_0": 10,
            "JOINTS_1": 11,
            "POSITION": 8,
            "TEXCOORD_0": 9,
            "WEIGHTS_0": 12,
            "WEIGHTS_1": 13
          },
          "indices": 7
        }
      ]
    }
  ],
  "skins": [
    {
      "joints": [
        3,
        4,
        47,
        51,
        5,
        48,
        52,
        6,
        49,
        53,
        7,
        26,
        45,
        50,
        54,
        8,
        27,
        46,
        9,
        28,
        10,
        29,
        11,
        14,
        17,
        20,
        23,
        30,
        33,
        36,
        39,
        42,
        12,
        15,
        18,
        21,
        24,
        31,
        34,
        37,
        40,
        43,
        13,
        16,
        19,
        22,
        25,
        32,
        35,
        38,
        41,
        44
      ],
      "inverseBindMatrices": 14,
      "skeleton": 3
    },
    {
      "joints": [
        46
      ],
      "inverseBindMatrices": 15,
      "skeleton": 46
    },
    {
      "joints": [
        2,
        3,
        4,
        5,
        6,
        7,
        8,
        9,
        10,
        11,
        12,
        13,
        14,
        15,
        16,
        17,
        18,
        19,
        20,
        21,
        22,
        23,
        24,
        25,
        26,
        27,
        28,
        29,
        30,
        31,
        32,
        33,
        34,
        35,
        36,
        37,
        38,
        39,
        40,
        41,
        42,
        43,
        44,
        45,
        46,
        47,
        48,
        49,
        50,
        51,
        52,
        53,
        54
      ]
    }
  ],
  "nodes": [
    {
      "name": "RootNode",
      "translation": [
        0.0,
        0.0,
        0.0
      ],
      "rotation": [
        0.0,
        0.0,
        0.0,
        1.0
      ],
      "scale": [
        1.0,
        1.0,
        1.0
      ],
      "children": [
        1,
        55,
        56
      ]
    },
    {
      "name": "Game_engine",
      "translation": [
        0.0,
        0.0,
        0.0
      ],
      "rotation": [
        0.0,
        0.0,
        0.0,
        1.0
      ],
      "scale": [
        10.0,
        10.0,
        10.0
      ],
      "children": [
        2
      ]
    },
    {
      "name": "Root",
      "translation": [
        0.0,
        0.0,
        -0.0256466642022133
      ],
      "rotation": [
        0.5,
        0.5,
        0.5,
        0.5
      ],
      "scale": [
        1.0,
        1.0,
        1.0
      ],
      "children": [
        3
      ]
    },
    {
      "name": "pelvis",
      "translation": [
        0.999631345272064,
        0.029214920476079,
        4.65661259552164E-11
      ],
      "rotation": [
        0.57995742559433,
        0.404536008834839,
        0.57995742559433,
        -0.404536008834839
      ],
      "scale": [
        1.0,
        1.0,
        1.0
      ],
      "children": [
        4,
        47,
        51
      ]
    },
    {
      "name": "spine_01",
      "translation": [
        4.6405171508276E-18,
        0.096070222556591,
        -7.08979763786033E-9
      ],
      "rotation": [
        0.237748607993126,
        -2.68200711639466E-10,
        1.09573949913511E-9,
        0.97132670879364
      ],
      "scale": [
        1.0,
        1.0,
        1.0
      ],
      "children": [
        5
      ]
    },
    {
      "name": "spine_02",
      "translation": [
        7.42648841999417E-17,
        0.0714985057711601,
        -5.40354028188972E-9
      ],
      "rotation": [
        -0.154463887214661,
        -3.61512000890407E-11,
        -2.46032749728897E-9,
        0.987998425960541
      ],
      "scale": [
        1.0,
        1.0,
        1.0
      ],
      "children": [
        6
      ]
    },
    {
      "name": "spine_03",
      "translation": [
        1.21144915282466E-16,
        0.0657030120491982,
        -7.446287142443E-9
      ],
      "rotation": [
        0.016850907355547,
        5.21317607138361E-11,
        2.38985542466708E-9,
        0.999858021736145
      ],
      "scale": [
        1.0,
        1.0,
        1.0
      ],
      "children": [
        7,
        26,
        45
      ]
    },
    {
      "name": "clavicle_l",
      "translation": [
        0.0238856766372919,
        0.269027888774872,
        0.0988548472523689
      ],
      "rotation": [
        0.00285050226375461,
        0.0497809387743473,
        -0.760958611965179,
        0.646881520748138
      ],
      "scale": [
        1.0,
        1.0,
        1.0
      ],
      "children": [
        8
      ]
    },
    {
      "name": "upperarm_l",
      "translation": [
        7.62989742497666E-8,
        0.179495140910149,
        -5.92717563918654E-9
      ],
      "rotation": [
        0.00188285694457591,
        0.0100635252892971,
        -0.335363745689392,
        0.942033112049103
      ],
      "scale": [
        1.0,
        1.0,
        1.0
      ],
      "children": [
        9
      ]
    },
    {
      "name": "lowerarm_l",
      "translation": [
        -1.64508218158943E-9,
        0.270341485738754,
        1.04032261971643E-10
      ],
      "rotation": [
        0.387424409389496,
        0.00299077108502388,
        0.00617192639037967,
        0.921875953674316
      ],
      "scale": [
        1.0,
        1.0,
        1.0
      ],
      "children": [
        10
      ]
    },
    {
      "name": "hand_l",
      "translation": [
        8.72897448767063E-11,
        0.277132898569107,
        -1.3886062300017E-9
      ],
      "rotation": [
        0.102971091866493,
        0.418668806552887,
        -0.0232239048928022,
        0.901983380317688
      ],
      "scale": [
        1.0,
        1.0,
        1.0
      ],
      "children": [
        11,
        14,
        17,
        20,
        23
      ]
    },
    {
      "name": "index_01_l",
      "translation": [
        -0.0150021621957421,
        0.119553633034229,
        0.00988868437707424
      ],
      "rotation": [
        0.105978175997734,
        0.475804388523102,
        -0.0010339324362576,
        0.873142421245575
      ],
      "scale": [
        1.0,
        1.0,
        1.0
      ],
      "children": [
        12
      ]
    },
    {
      "name": "index_02_l",
      "translation": [
        -9.27426935248832E-9,
        0.0293800868093967,
        -1.2651385716822E-8
      ],
      "rotation": [
        0.107479378581047,
        0.00265394384041429,
        0.00656746095046401,
        0.994182050228119
      ],
      "scale": [
        1.0,
        1.0,
        1.0
      ],
      "children": [
        13
      ]
    },
    {
      "name": "index_03_l",
      "translation": [
        9.13323283668888E-9,
        0.0263003390282393,
        9.96088722615696E-9
      ],
      "rotation": [
        0.0598807334899902,
        0.0000686835555825382,
        0.0169058088213205,
        0.998062372207642
      ],
      "scale": [
        1.0,
        1.0,
        1.0
      ]
    },
    {
      "name": "middle_01_l",
      "translation": [
        0.00340334116481245,
        0.115579433739185,
        -0.013305651023984
      ],
      "rotation": [
        0.0926625728607178,
        0.408020973205566,
        -0.150476083159447,
        0.895706117153168
      ],
      "scale": [
        1.0,
        1.0,
        1.0
      ],
      "children": [
        15
      ]
    },
    {
      "name": "middle_02_l",
      "translation": [
        -1.56169530640682E-8,
        0.0382050834596157,
        -1.95226927957037E-8
      ],
      "rotation": [
        0.049046665430069,
        0.00155687658116221,
        0.0374380946159363,
        0.998093366622925
      ],
      "scale": [
        1.0,
        1.0,
        1.0
      ],
      "children": [
        16
      ]
    },
    {
      "name": "middle_03_l",
      "translation": [
        -8.70033975419737E-11,
        0.0310563836246729,
        -3.50416917704877E-11
      ],
      "rotation": [
        0.0651324465870857,
        0.00000419482739744126,
        -0.00581105658784509,
        0.997859716415405
      ],
      "scale": [
        1.0,
        1.0,
        1.0
      ]
    },
    {
      "name": "pinky_01_l",
      "translation": [
        0.0380637310445309,
        0.0941485390067101,
        -0.0362249612808228
      ],
      "rotation": [
        0.0435527190566063,
        0.285590618848801,
        -0.296935737133026,
        0.910148501396179
      ],
      "scale": [
        1.0,
        1.0,
        1.0
      ],
      "children": [
        18
      ]
    },
    {
      "name": "pinky_02_l",
      "translation": [
        -6.07992722834183E-9,
        0.0242161005735397,
        -6.97089230783376E-9
      ],
      "rotation": [
        0.0844538360834122,
        0.000724126119166613,
        0.0201481804251671,
        0.996223390102386
      ],
      "scale": [
        1.0,
        1.0,
        1.0
      ],
      "children": [
        19
      ]
    },
    {
      "name": "pinky_03_l",
      "translation": [
        -1.08801780085432E-10,
        0.0176204144954681,
        -1.1744276558201E-11
      ],
      "rotation": [
        -0.00492696324363351,
        0.00000619242382526863,
        -0.0103970663622022,
        0.999933838844299
      ],
      "scale": [
        1.0,
        1.0,
        1.0
      ]
    },
    {
      "name": "ring_01_l",
      "translation": [
        0.0191494189202785,
        0.106671705842018,
        -0.0275999773293734
      ],
      "rotation": [
        0.0467285066843033,
        0.381476849317551,
        -0.228966116905212,
        0.894352495670319
      ],
      "scale": [
        1.0,
        1.0,
        1.0
      ],
      "children": [
        21
      ]
    },
    {
      "name": "ring_02_l",
      "translation": [
        1.28116299791259E-8,
        0.0336643941700459,
        1.86256485790182E-8
      ],
      "rotation": [
        0.0593296810984612,
        0.00104083446785808,
        0.0459215864539146,
        0.997181057929993
      ],
      "scale": [
        1.0,
        1.0,
        1.0
      ],
      "children": [
        22
      ]
    },
    {
      "name": "ring_03_l",
      "translation": [
        7.228193599218E-9,
        0.0281338002532721,
        7.23525062085173E-9
      ],
      "rotation": [
        0.0639002323150635,
        -0.0000582747125008609,
        -0.0275044813752174,
        0.99757719039917
      ],
      "scale": [
        1.0,
        1.0,
        1.0
      ]
    },
    {
      "name": "thumb_01_l",
      "translation": [
        -0.0164073668420315,
        0.0453183054924011,
        0.0165124870836735
      ],
      "rotation": [
        0.270842552185059,
        0.725907027721405,
        0.434454262256622,
        0.459295928478241
      ],
      "scale": [
        1.0,
        1.0,
        1.0
      ],
      "children": [
        24
      ]
    },
    {
      "name": "thumb_02_l",
      "translation": [
        -2.08844164184541E-9,
        0.0347868092358112,
        5.57682326984832E-8
      ],
      "rotation": [
        0.0651320964097977,
        -0.0165969654917717,
        -0.183180034160614,
        0.980778992176056
      ],
      "scale": [
        1.0,
        1.0,
        1.0
      ],
      "children": [
        25
      ]
    },
    {
      "name": "thumb_03_l",
      "translation": [
        2.05201078351536E-9,
        0.0413393266499043,
        -1.74615983894455E-8
      ],
      "rotation": [
        0.140311375260353,
        -0.00455252267420292,
        -0.032106913626194,
        0.98957622051239
      ],
      "scale": [
        1.0,
        1.0,
        1.0
      ]
    },
    {
      "name": "clavicle_r",
      "translation": [
        -0.0238856766372919,
        0.269027888774872,
        0.0988548472523689
      ],
      "rotation": [
        0.00285050179809332,
        -0.0497809387743473,
        0.760958611965179,
        0.646881520748138
      ],
      "scale": [
        1.0,
        1.0,
        1.0
      ],
      "children": [
        27
      ]
    },
    {
      "name": "upperarm_r",
      "translation": [
        -7.62989742497666E-8,
        0.179495140910149,
        -5.92717563918654E-9
      ],
      "rotation": [
        0.00188285694457591,
        -0.0100635252892971,
        0.335363745689392,
        0.942033112049103
      ],
      "scale": [
        1.0,
        1.0,
        1.0
      ],
      "children": [
        28
      ]
    },
    {
      "name": "lowerarm_r",
      "translation": [
        1.64508207056713E-9,
        0.270341485738754,
        1.04032282788324E-10
      ],
      "rotation": [
        0.387424409389496,
        -0.00299077108502388,
        -0.00617192639037967,
        0.921875953674316
      ],
      "scale": [
        1.0,
        1.0,
        1.0
      ],
      "children": [
        29
      ]
    },
    {
      "name": "hand_r",
      "translation": [
        -8.72897448767063E-11,
        0.277132898569107,
        -1.3886061189794E-9
      ],
      "rotation": [
        0.102971091866493,
        -0.418668806552887,
        0.0232239048928022,
        0.901983380317688
      ],
      "scale": [
        1.0,
        1.0,
        1.0
      ],
      "children": [
        30,
        33,
        36,
        39,
        42
      ]
    },
    {
      "name": "index_01_r",
      "translation": [
        0.0150021621957421,
        0.119553633034229,
        0.00988868437707424
      ],
      "rotation": [
        0.105978175997734,
        -0.475804388523102,
        0.0010339324362576,
        0.873142421245575
      ],
      "scale": [
        1.0,
        1.0,
        1.0
      ],
      "children": [
        31
      ]
    },
    {
      "name": "index_02_r",
      "translation": [
        9.27426935248832E-9,
        0.0293800868093967,
        -1.26513848286436E-8
      ],
      "rotation": [
        0.107479378581047,
        -0.00265394384041429,
        -0.00656746095046401,
        0.994182050228119
      ],
      "scale": [
        1.0,
        1.0,
        1.0
      ],
      "children": [
        32
      ]
    },
    {
      "name": "index_03_r",
      "translation": [
        -9.13323283668888E-9,
        0.0263003390282393,
        9.96088722615696E-9
      ],
      "rotation": [
        0.0598807334899902,
        -0.0000686835555825382,
        -0.0169058088213205,
        0.998062372207642
      ],
      "scale": [
        1.0,
        1.0,
        1.0
      ]
    },
    {
      "name": "middle_01_r",
      "translation": [
        -0.00340334116481245,
        0.115579433739185,
        -0.013305651023984
      ],
      "rotation": [
        0.0926625728607178,
        -0.408020973205566,
        0.150476083159447,
        0.895706117153168
      ],
      "scale": [
        1.0,
        1.0,
        1.0
      ],
      "children": [
        34
      ]
    },
    {
      "name": "middle_02_r",
      "translation": [
        1.56169530640682E-8,
        0.0382050834596157,
        -1.95226927957037E-8
      ],
      "rotation": [
        0.049046665430069,
        -0.00155687658116221,
        -0.0374380946159363,
        0.998093366622925
      ],
      "scale": [
        1.0,
        1.0,
        1.0
      ],
      "children": [
        35
      ]
    },
    {
      "name": "middle_03_r",
      "translation": [
        8.70032587640956E-11,
        0.0310563836246729,
        -3.50418340178127E-11
      ],
      "rotation": [
        0.0651324465870857,
        -0.00000419482739744126,
        0.00581105658784509,
        0.997859716415405
      ],
      "scale": [
        1.0,
        1.0,
        1.0
      ]
    },
    {
      "name": "pinky_01_r",
      "translation": [
        -0.0380637310445309,
        0.0941485390067101,
        -0.0362249612808228
      ],
      "rotation": [
        0.0435527190566063,
        -0.285590618848801,
        0.296935737133026,
        0.910148501396179
      ],
      "scale": [
        1.0,
        1.0,
        1.0
      ],
      "children": [
        37
      ]
    },
    {
      "name": "pinky_02_r",
      "translation": [
        6.07992722834183E-9,
        0.0242161005735397,
        -6.97089186374455E-9
      ],
      "rotation": [
        0.0844538360834122,
        -0.000724126119166613,
        -0.0201481804251671,
        0.996223390102386
      ],
      "scale": [
        1.0,
        1.0,
        1.0
      ],
      "children": [
        38
      ]
    },
    {
      "name": "pinky_03_r",
      "translation": [
        1.08801856413265E-10,
        0.0176204144954681,
        -1.1744418805526E-11
      ],
      "rotation": [
        -0.00492696324363351,
        -0.00000619242382526863,
        0.0103970663622022,
        0.999933838844299
      ],
      "scale": [
        1.0,
        1.0,
        1.0
      ]
    },
    {
      "name": "ring_01_r",
      "translation": [
        -0.0191494189202785,
        0.106671705842018,
        -0.0275999773293734
      ],
      "rotation": [
        0.0467285066843033,
        -0.381476849317551,
        0.228966116905212,
        0.894352495670319
      ],
      "scale": [
        1.0,
        1.0,
        1.0
      ],
      "children": [
        40
      ]
    },
    {
      "name": "ring_02_r",
      "translation": [
        -1.28116299791259E-8,
        0.0336643941700459,
        1.86256485790182E-8
      ],
      "rotation": [
        0.0593296810984612,
        -0.00104083446785808,
        -0.0459215864539146,
        0.997181057929993
      ],
      "scale": [
        1.0,
        1.0,
        1.0
      ],
      "children": [
        41
      ]
    },
    {
      "name": "ring_03_r",
      "translation": [
        -7.22819404330721E-9,
        0.0281338002532721,
        7.23525062085173E-9
      ],
      "rotation": [
        0.0639002323150635,
        0.0000582747125008609,
        0.0275044813752174,
        0.99757719039917
      ],
      "scale": [
        1.0,
        1.0,
        1.0
      ]
    },
    {
      "name": "thumb_01_r",
      "translation": [
        0.0164073668420315,
        0.0453183054924011,
        0.0165124870836735
      ],
      "rotation": [
        -0.270842552185059,
        0.725907027721405,
        0.434454262256622,
        -0.459295928478241
      ],
      "scale": [
        1.0,
        1.0,
        1.0
      ],
      "children": [
        43
      ]
    },
    {
      "name": "thumb_02_r",
      "translation": [
        2.08844186389001E-9,
        0.0347868092358112,
        5.57682326984832E-8
      ],
      "rotation": [
        0.0651320964097977,
        0.0165969654917717,
        0.183180034160614,
        0.980778992176056
      ],
      "scale": [
        1.0,
        1.0,
        1.0
      ],
      "children": [
        44
      ]
    },
    {
      "name": "thumb_03_r",
      "translation": [
        -2.05201078351536E-9,
        0.0413393266499043,
        -1.74615983894455E-8
      ],
      "rotation": [
        0.140311375260353,
        0.00455252267420292,
        0.032106913626194,
        0.98957622051239
      ],
      "scale": [
        1.0,
        1.0,
        1.0
      ]
    },
    {
      "name": "neck_01",
      "translation": [
        5.05979702580817E-10,
        0.34853595495224,
        0.096518449485302
      ],
      "rotation": [
        0.239384382963181,
        8.18684231518318E-10,
        -4.98874330734367E-10,
        0.970924854278564
      ],
      "scale": [
        1.0,
        1.0,
        1.0
      ],
      "children": [
        46
      ]
    },
    {
      "name": "head",
      "translation": [
        7.57347907658933E-17,
        0.105285868048668,
        -2.61666137646444E-8
      ],
      "rotation": [
        -0.180554196238518,
        -1.42989087237311E-9,
        -4.05558087113178E-10,
        0.983565032482147
      ],
      "scale": [
        1.0,
        1.0,
        1.0
      ]
    },
    {
      "name": "thigh_l",
      "translation": [
        0.114818274974823,
        -0.00559790339320898,
        -0.0137699004262686
      ],
      "rotation": [
        0.967035591602325,
        0.0755462273955345,
        -0.209988445043564,
        -0.122636616230011
      ],
      "scale": [
        1.0,
        1.0,
        1.0
      ],
      "children": [
        48
      ]
    },
    {
      "name": "calf_l",
      "translation": [
        -1.14392195715851E-9,
        0.447288036346436,
        -1.47363110603038E-9
      ],
      "rotation": [
        0.0574078261852264,
        0.230685874819756,
        -0.0132893119007349,
        0.971242368221283
      ],
      "scale": [
        1.0,
        1.0,
        1.0
      ],
      "children": [
        49
      ]
    },
    {
      "name": "foot_l",
      "translation": [
        2.25861351843548E-9,
        0.473531037569046,
        9.85806991593563E-10
      ],
      "rotation": [
        -0.543041348457336,
        1.13263343148873E-9,
        5.67054172506687E-8,
        0.839705944061279
      ],
      "scale": [
        1.0,
        1.0,
        1.0
      ],
      "children": [
        50
      ]
    },
    {
      "name": "ball_l",
      "translation": [
        -2.91957374942697E-10,
        0.150216996669769,
        1.26201282757421E-9
      ],
      "rotation": [
        -0.266195595264435,
        0.0168469324707985,
        0.0123343877494335,
        0.963692843914032
      ],
      "scale": [
        1.0,
        1.0,
        1.0
      ]
    },
    {
      "name": "thigh_r",
      "translation": [
        -0.114818274974823,
        -0.00559790339320898,
        -0.0137699004262686
      ],
      "rotation": [
        0.967035591602325,
        -0.0755462273955345,
        0.209988445043564,
        -0.122636616230011
      ],
      "scale": [
        1.0,
        1.0,
        1.0
      ],
      "children": [
        52
      ]
    },
    {
      "name": "calf_r",
      "translation": [
        1.14392195715851E-9,
        0.447288036346436,
        -1.47363110603038E-9
      ],
      "rotation": [
        0.0574078261852264,
        -0.230685874819756,
        0.0132893119007349,
        0.971242368221283
      ],
      "scale": [
        1.0,
        1.0,
        1.0
      ],
      "children": [
        53
      ]
    },
    {
      "name": "foot_r",
      "translation": [
        -2.25861351843548E-9,
        0.473531037569046,
        9.85806991593563E-10
      ],
      "rotation": [
        -0.543041348457336,
        -1.13263343148873E-9,
        -5.67054172506687E-8,
        0.839705944061279
      ],
      "scale": [
        1.0,
        1.0,
        1.0
      ],
      "children": [
        54
      ]
    },
    {
      "name": "ball_r",
      "translation": [
        2.91957374942697E-10,
        0.150216996669769,
        1.26201282757421E-9
      ],
      "rotation": [
        -0.266195595264435,
        -0.0168469324707985,
        -0.0123343877494335,
        0.963692843914032
      ],
      "scale": [
        1.0,
        1.0,
        1.0
      ]
    },
    {
      "name": "adult_maleMesh",
      "translation": [
        0.0,
        0.0,
        0.0
      ],
      "rotation": [
        0.0,
        0.0,
        0.0,
        1.0
      ],
      "scale": [
        10.0,
        10.0,
        10.0
      ],
      "mesh": 0,
      "skin": 0
    },
    {
      "name": "high-polyMesh",
      "translation": [
        0.0,
        0.0,
        0.0
      ],
      "rotation": [
        0.0,
        0.0,
        0.0,
        1.0
      ],
      "scale": [
        10.0,
        10.0,
        10.0
      ],
      "mesh": 1,
      "skin": 1
    }
  ]
}
