{
  "asset": {
    "generator": "FBX2glTF v0.13.1",
    "version": "2.0"
  },
  "scene": 0,
  "buffers": [
    {
      "byteLength": 1236492,
      "uri": "adult-female0.bin"
    }
  ],
  "bufferViews": [
    {
      "buffer": 0,
      "byteLength": 160536,
      "byteOffset": 0,
      "target": 34963
    },
    {
      "buffer": 0,
      "byteLength": 174204,
      "byteOffset": 160536,
      "target": 34962
    },
    {
      "buffer": 0,
      "byteLength": 116136,
      "byteOffset": 334740,
      "target": 34962
    },
    {
      "buffer": 0,
      "byteLength": 116136,
      "byteOffset": 450876,
      "target": 34962
    },
    {
      "buffer": 0,
      "byteLength": 116136,
      "byteOffset": 567012,
      "target": 34962
    },
    {
      "buffer": 0,
      "byteLength": 232272,
      "byteOffset": 683148,
      "target": 34962
    },
    {
      "buffer": 0,
      "byteLength": 232272,
      "byteOffset": 915420,
      "target": 34962
    },
    {
      "buffer": 0,
      "byteLength": 12240,
      "byteOffset": 1147692,
      "target": 34963
    },
    {
      "buffer": 0,
      "byteLength": 12912,
      "byteOffset": 1159932,
      "target": 34962
    },
    {
      "buffer": 0,
      "byteLength": 8608,
      "byteOffset": 1172844,
      "target": 34962
    },
    {
      "buffer": 0,
      "byteLength": 8608,
      "byteOffset": 1181452,
      "target": 34962
    },
    {
      "buffer": 0,
      "byteLength": 8608,
      "byteOffset": 1190060,
      "target": 34962
    },
    {
      "buffer": 0,
      "byteLength": 17216,
      "byteOffset": 1198668,
      "target": 34962
    },
    {
      "buffer": 0,
      "byteLength": 17216,
      "byteOffset": 1215884,
      "target": 34962
    },
    {
      "buffer": 0,
      "byteLength": 3328,
      "byteOffset": 1233100
    },
    {
      "buffer": 0,
      "byteLength": 64,
      "byteOffset": 1236428
    }
  ],
  "scenes": [
    {
      "name": "Root Scene",
      "nodes": [
        0
      ]
    }
  ],
  "accessors": [
    {
      "componentType": 5123,
      "type": "SCALAR",
      "count": 80268,
      "bufferView": 0,
      "byteOffset": 0
    },
    {
      "componentType": 5126,
      "type": "VEC3",
      "count": 14517,
      "bufferView": 1,
      "byteOffset": 0,
      "min": [
        -0.494977325201035,
        -0.0000756835943320766,
        -0.0942700356245041
      ],
      "max": [
        0.494977325201035,
        1.61935639381409,
        0.305352479219437
      ]
    },
    {
      "componentType": 5126,
      "type": "VEC2",
      "count": 14517,
      "bufferView": 2,
      "byteOffset": 0
    },
    {
      "componentType": 5123,
      "type": "VEC4",
      "count": 14517,
      "bufferView": 3,
      "byteOffset": 0
    },
    {
      "componentType": 5123,
      "type": "VEC4",
      "count": 14517,
      "bufferView": 4,
      "byteOffset": 0
    },
    {
      "componentType": 5126,
      "type": "VEC4",
      "count": 14517,
      "bufferView": 5,
      "byteOffset": 0
    },
    {
      "componentType": 5126,
      "type": "VEC4",
      "count": 14517,
      "bufferView": 6,
      "byteOffset": 0
    },
    {
      "componentType": 5123,
      "type": "SCALAR",
      "count": 6120,
      "bufferView": 7,
      "byteOffset": 0
    },
    {
      "componentType": 5126,
      "type": "VEC3",
      "count": 1076,
      "bufferView": 8,
      "byteOffset": 0,
      "min": [
        -0.0441916920244694,
        1.49941098690033,
        0.108618266880512
      ],
      "max": [
        0.0441916882991791,
        1.52931118011475,
        0.130964994430542
      ]
    },
    {
      "componentType": 5126,
      "type": "VEC2",
      "count": 1076,
      "bufferView": 9,
      "byteOffset": 0
    },
    {
      "componentType": 5123,
      "type": "VEC4",
      "count": 1076,
      "bufferView": 10,
      "byteOffset": 0
    },
    {
      "componentType": 5123,
      "type": "VEC4",
      "count": 1076,
      "bufferView": 11,
      "byteOffset": 0
    },
    {
      "componentType": 5126,
      "type": "VEC4",
      "count": 1076,
      "bufferView": 12,
      "byteOffset": 0
    },
    {
      "componentType": 5126,
      "type": "VEC4",
      "count": 1076,
      "bufferView": 13,
      "byteOffset": 0
    },
    {
      "componentType": 5126,
      "type": "MAT4",
      "count": 52,
      "bufferView": 14,
      "byteOffset": 0
    },
    {
      "componentType": 5126,
      "type": "MAT4",
      "count": 1,
      "bufferView": 15,
      "byteOffset": 0
    }
  ],
  "images": [
    {
      "name": "brown_eye.png",
      "uri": "brown_eye.png"
    }
  ],
  "samplers": [
    {}
  ],
  "textures": [
    {
      "name": "brown_eye_png",
      "sampler": 0,
      "source": 0
    }
  ],
  "materials": [
    {
      "name": "adult_female",
      "alphaMode": "OPAQUE",
      "doubleSided": false,
      "extras": {
        "fromFBX": {
          "shadingModel": "Phong",
          "isTruePBR": false
        }
      },
      "pbrMetallicRoughness": {
        "baseColorFactor": [
          0.590333342552185,
          0.439999997615814,
          0.337999999523163,
          1.0
        ],
        "metallicFactor": 0.400000005960464,
        "roughnessFactor": 0.821994960308075
      }
    },
    {
      "name": "high-poly",
      "alphaMode": "BLEND",
      "doubleSided": false,
      "extras": {
        "fromFBX": {
          "shadingModel": "Phong",
          "isTruePBR": false
        }
      },
      "pbrMetallicRoughness": {
        "baseColorTexture": {
          "index": 0,
          "texCoord": 0
        },
        "baseColorFactor": [
          1.0,
          1.0,
          1.0,
          1.0
        ],
        "metallicFactor": 0.400000005960464,
        "roughnessFactor": 0.816496610641479
      }
    }
  ],
  "meshes": [
    {
      "name": "adult_femaleMesh",
      "primitives": [
        {
          "material": 0,
          "mode": 4,
          "attributes": {
            "JOINTS_0": 3,
            "JOINTS_1": 4,
            "POSITION": 1,
            "TEXCOORD_0": 2,
            "WEIGHTS_0": 5,
            "WEIGHTS_1": 6
          },
          "indices": 0
        }
      ]
    },
    {
      "name": "high-polyMesh",
      "primitives": [
        {
          "material": 1,
          "mode": 4,
          "attributes": {
            "JOINTS_0": 10,
            "JOINTS_1": 11,
            "POSITION": 8,
            "TEXCOORD_0": 9,
            "WEIGHTS_0": 12,
            "WEIGHTS_1": 13
          },
          "indices": 7
        }
      ]
    }
  ],
  "skins": [
    {
      "joints": [
        3,
        4,
        47,
        51,
        5,
        48,
        52,
        6,
        49,
        53,
        7,
        26,
        45,
        50,
        54,
        8,
        27,
        46,
        9,
        28,
        10,
        29,
        11,
        14,
        17,
        20,
        23,
        30,
        33,
        36,
        39,
        42,
        12,
        15,
        18,
        21,
        24,
        31,
        34,
        37,
        40,
        43,
        13,
        16,
        19,
        22,
        25,
        32,
        35,
        38,
        41,
        44
      ],
      "inverseBindMatrices": 14,
      "skeleton": 3
    },
    {
      "joints": [
        46
      ],
      "inverseBindMatrices": 15,
      "skeleton": 46
    },
    {
      "joints": [
        2,
        3,
        4,
        5,
        6,
        7,
        8,
        9,
        10,
        11,
        12,
        13,
        14,
        15,
        16,
        17,
        18,
        19,
        20,
        21,
        22,
        23,
        24,
        25,
        26,
        27,
        28,
        29,
        30,
        31,
        32,
        33,
        34,
        35,
        36,
        37,
        38,
        39,
        40,
        41,
        42,
        43,
        44,
        45,
        46,
        47,
        48,
        49,
        50,
        51,
        52,
        53,
        54
      ]
    }
  ],
  "nodes": [
    {
      "name": "RootNode",
      "translation": [
        0.0,
        0.0,
        0.0
      ],
      "rotation": [
        0.0,
        0.0,
        0.0,
        1.0
      ],
      "scale": [
        1.0,
        1.0,
        1.0
      ],
      "children": [
        1,
        55,
        56
      ]
    },
    {
      "name": "Game_engine",
      "translation": [
        0.0,
        0.0,
        0.0
      ],
      "rotation": [
        0.0,
        0.0,
        0.0,
        1.0
      ],
      "scale": [
        10.0,
        10.0,
        10.0
      ],
      "children": [
        2
      ]
    },
    {
      "name": "Root",
      "translation": [
        0.0,
        -0.0000169372560776537,
        -0.0269097443670034
      ],
      "rotation": [
        0.499841928482056,
        0.5001580119133,
        0.499841928482056,
        0.5001580119133
      ],
      "scale": [
        1.0,
        1.0,
        1.0
      ],
      "children": [
        3
      ]
    },
    {
      "name": "pelvis",
      "translation": [
        0.849506139755249,
        0.0507114492356777,
        -4.65661259552164E-11
      ],
      "rotation": [
        0.6201993227005,
        0.339636296033859,
        0.6201993227005,
        -0.339636296033859
      ],
      "scale": [
        1.0,
        1.0,
        1.0
      ],
      "children": [
        4,
        47,
        51
      ]
    },
    {
      "name": "spine_01",
      "translation": [
        5.06495510365713E-18,
        0.0852028727531433,
        -8.53939940981263E-9
      ],
      "rotation": [
        0.434409886598587,
        -2.66686343147748E-11,
        5.52954279586793E-11,
        0.900715291500092
      ],
      "scale": [
        1.0,
        1.0,
        1.0
      ],
      "children": [
        5
      ]
    },
    {
      "name": "spine_02",
      "translation": [
        6.70302666096018E-18,
        0.066228061914444,
        1.11584954609611E-8
      ],
      "rotation": [
        -0.0956710055470467,
        -7.47884046359282E-12,
        -2.00031671782064E-10,
        0.99541300535202
      ],
      "scale": [
        1.0,
        1.0,
        1.0
      ],
      "children": [
        6
      ]
    },
    {
      "name": "spine_03",
      "translation": [
        -1.09971247071536E-17,
        0.0905826911330223,
        -2.79640732792075E-9
      ],
      "rotation": [
        -0.0600693970918655,
        1.04756021565566E-11,
        4.43208025835418E-10,
        0.998194217681885
      ],
      "scale": [
        1.0,
        1.0,
        1.0
      ],
      "children": [
        7,
        26,
        45
      ]
    },
    {
      "name": "clavicle_l",
      "translation": [
        0.0233342312276363,
        0.227209731936455,
        0.0103451674804091
      ],
      "rotation": [
        -0.0132428929209709,
        -0.0126170087605715,
        -0.745756447315216,
        0.665967524051666
      ],
      "scale": [
        1.0,
        1.0,
        1.0
      ],
      "children": [
        8
      ]
    },
    {
      "name": "upperarm_l",
      "translation": [
        -3.81890181699873E-8,
        0.133925065398216,
        7.26429472130974E-10
      ],
      "rotation": [
        0.00624668505042791,
        -0.000781053211539984,
        -0.348591029644012,
        0.937253773212433
      ],
      "scale": [
        1.0,
        1.0,
        1.0
      ],
      "children": [
        9
      ]
    },
    {
      "name": "lowerarm_l",
      "translation": [
        -1.32564030863591E-8,
        0.236885756254196,
        6.08104511190533E-10
      ],
      "rotation": [
        0.332371920347214,
        -0.00219871406443417,
        -0.0052510853856802,
        0.9431312084198
      ],
      "scale": [
        1.0,
        1.0,
        1.0
      ],
      "children": [
        10
      ]
    },
    {
      "name": "hand_l",
      "translation": [
        -3.80635611918478E-8,
        0.216311931610107,
        3.52272557790911E-8
      ],
      "rotation": [
        0.118771426379681,
        0.414627224206924,
        -0.00648511713370681,
        0.902183771133423
      ],
      "scale": [
        1.0,
        1.0,
        1.0
      ],
      "children": [
        11,
        14,
        17,
        20,
        23
      ]
    },
    {
      "name": "index_01_l",
      "translation": [
        -0.0119685744866729,
        0.095586784183979,
        0.00836383365094662
      ],
      "rotation": [
        0.110550753772259,
        0.471604704856873,
        -0.00179814966395497,
        0.874851047992706
      ],
      "scale": [
        1.0,
        1.0,
        1.0
      ],
      "children": [
        12
      ]
    },
    {
      "name": "index_02_l",
      "translation": [
        -6.29216567737956E-10,
        0.0234359037131071,
        -5.55861967566074E-10
      ],
      "rotation": [
        0.111992552876472,
        0.0030996270943433,
        0.00547153735533357,
        0.993689119815826
      ],
      "scale": [
        1.0,
        1.0,
        1.0
      ],
      "children": [
        13
      ]
    },
    {
      "name": "index_03_l",
      "translation": [
        -1.78824031138447E-8,
        0.0208940543234348,
        -1.86997670681421E-8
      ],
      "rotation": [
        0.0643419623374939,
        0.000113589863758534,
        0.0203552171587944,
        0.997720301151276
      ],
      "scale": [
        1.0,
        1.0,
        1.0
      ]
    },
    {
      "name": "middle_01_l",
      "translation": [
        0.00264886068180203,
        0.0919520854949951,
        -0.0104754334315658
      ],
      "rotation": [
        0.100464142858982,
        0.405108273029327,
        -0.150327101349831,
        0.896212041378021
      ],
      "scale": [
        1.0,
        1.0,
        1.0
      ],
      "children": [
        15
      ]
    },
    {
      "name": "middle_02_l",
      "translation": [
        1.08573416923718E-8,
        0.0308564230799675,
        1.38867930488118E-8
      ],
      "rotation": [
        0.0479487627744675,
        0.00142890540882945,
        0.0358898527920246,
        0.998203754425049
      ],
      "scale": [
        1.0,
        1.0,
        1.0
      ],
      "children": [
        16
      ]
    },
    {
      "name": "middle_03_l",
      "translation": [
        3.87829057757472E-9,
        0.02529058419168,
        3.8180969497148E-9
      ],
      "rotation": [
        0.0681134313344955,
        0.00000552542724108207,
        -0.00621407059952617,
        0.997658252716064
      ],
      "scale": [
        1.0,
        1.0,
        1.0
      ]
    },
    {
      "name": "pinky_01_l",
      "translation": [
        0.0302451848983765,
        0.0755335614085197,
        -0.0287363212555647
      ],
      "rotation": [
        0.0497637577354908,
        0.287783771753311,
        -0.304740279912949,
        0.906552493572235
      ],
      "scale": [
        1.0,
        1.0,
        1.0
      ],
      "children": [
        18
      ]
    },
    {
      "name": "pinky_02_l",
      "translation": [
        -7.20739157245021E-9,
        0.0193923786282539,
        -9.80555547869244E-9
      ],
      "rotation": [
        0.0812221840023994,
        0.0010580507805571,
        0.027506772428751,
        0.996315836906433
      ],
      "scale": [
        1.0,
        1.0,
        1.0
      ],
      "children": [
        19
      ]
    },
    {
      "name": "pinky_03_l",
      "translation": [
        2.72704792081413E-9,
        0.0142181050032377,
        1.78855330545957E-9
      ],
      "rotation": [
        -0.0107506113126874,
        0.0000168161695910385,
        -0.0130090918391943,
        0.999857604503632
      ],
      "scale": [
        1.0,
        1.0,
        1.0
      ]
    },
    {
      "name": "ring_01_l",
      "translation": [
        0.0153494235128164,
        0.0852776244282722,
        -0.0217280406504869
      ],
      "rotation": [
        0.0543222799897194,
        0.383878320455551,
        -0.228347942233086,
        0.89305305480957
      ],
      "scale": [
        1.0,
        1.0,
        1.0
      ],
      "children": [
        21
      ]
    },
    {
      "name": "ring_02_l",
      "translation": [
        -5.24857179939886E-9,
        0.0270350873470306,
        -9.42568245676512E-9
      ],
      "rotation": [
        0.0640238076448441,
        0.001145432703197,
        0.0407948195934296,
        0.997113525867462
      ],
      "scale": [
        1.0,
        1.0,
        1.0
      ],
      "children": [
        22
      ]
    },
    {
      "name": "ring_03_l",
      "translation": [
        1.50916912300403E-9,
        0.0225573033094406,
        1.54265478169435E-9
      ],
      "rotation": [
        0.0534300766885281,
        -0.0000462342795799486,
        -0.0221024956554174,
        0.9983269572258
      ],
      "scale": [
        1.0,
        1.0,
        1.0
      ]
    },
    {
      "name": "thumb_01_l",
      "translation": [
        -0.0131127005442977,
        0.0355741120874882,
        0.0133830057457089
      ],
      "rotation": [
        0.270853340625763,
        0.73063462972641,
        0.442492604255676,
        0.443860113620758
      ],
      "scale": [
        1.0,
        1.0,
        1.0
      ],
      "children": [
        24
      ]
    },
    {
      "name": "thumb_02_l",
      "translation": [
        4.97245244979183E-10,
        0.0280787628144026,
        -9.56643031457816E-9
      ],
      "rotation": [
        0.0724708959460258,
        -0.018581960350275,
        -0.182666793465614,
        0.98032420873642
      ],
      "scale": [
        1.0,
        1.0,
        1.0
      ],
      "children": [
        25
      ]
    },
    {
      "name": "thumb_03_l",
      "translation": [
        4.78392658820326E-10,
        0.0327553637325764,
        -8.47516634649992E-9
      ],
      "rotation": [
        0.139208674430847,
        -0.00464985053986311,
        -0.0330577418208122,
        0.989700198173523
      ],
      "scale": [
        1.0,
        1.0,
        1.0
      ]
    },
    {
      "name": "clavicle_r",
      "translation": [
        -0.0233342312276363,
        0.227209731936455,
        0.0103451674804091
      ],
      "rotation": [
        -0.0132428929209709,
        0.0126170096918941,
        0.745756447315216,
        0.665967524051666
      ],
      "scale": [
        1.0,
        1.0,
        1.0
      ],
      "children": [
        27
      ]
    },
    {
      "name": "upperarm_r",
      "translation": [
        3.81890181699873E-8,
        0.133925065398216,
        7.26429472130974E-10
      ],
      "rotation": [
        0.00624668505042791,
        0.000781053211539984,
        0.348591029644012,
        0.937253773212433
      ],
      "scale": [
        1.0,
        1.0,
        1.0
      ],
      "children": [
        28
      ]
    },
    {
      "name": "lowerarm_r",
      "translation": [
        1.32564030863591E-8,
        0.236885756254196,
        6.08104511190533E-10
      ],
      "rotation": [
        0.332371920347214,
        0.00219871406443417,
        0.0052510853856802,
        0.9431312084198
      ],
      "scale": [
        1.0,
        1.0,
        1.0
      ],
      "children": [
        29
      ]
    },
    {
      "name": "hand_r",
      "translation": [
        3.80635611918478E-8,
        0.216311931610107,
        3.52272557790911E-8
      ],
      "rotation": [
        0.118771426379681,
        -0.414627224206924,
        0.00648511713370681,
        0.902183771133423
      ],
      "scale": [
        1.0,
        1.0,
        1.0
      ],
      "children": [
        30,
        33,
        36,
        39,
        42
      ]
    },
    {
      "name": "index_01_r",
      "translation": [
        0.0119685744866729,
        0.095586784183979,
        0.00836383365094662
      ],
      "rotation": [
        0.110550753772259,
        -0.471604704856873,
        0.00179814966395497,
        0.874851047992706
      ],
      "scale": [
        1.0,
        1.0,
        1.0
      ],
      "children": [
        31
      ]
    },
    {
      "name": "index_02_r",
      "translation": [
        6.29216567737956E-10,
        0.0234359037131071,
        -5.55861967566074E-10
      ],
      "rotation": [
        0.111992552876472,
        -0.0030996270943433,
        -0.00547153735533357,
        0.993689119815826
      ],
      "scale": [
        1.0,
        1.0,
        1.0
      ],
      "children": [
        32
      ]
    },
    {
      "name": "index_03_r",
      "translation": [
        1.78824031138447E-8,
        0.0208940543234348,
        -1.86997670681421E-8
      ],
      "rotation": [
        0.0643419623374939,
        -0.000113589863758534,
        -0.0203552171587944,
        0.997720301151276
      ],
      "scale": [
        1.0,
        1.0,
        1.0
      ]
    },
    {
      "name": "middle_01_r",
      "translation": [
        -0.00264886068180203,
        0.0919520854949951,
        -0.0104754334315658
      ],
      "rotation": [
        0.100464142858982,
        -0.405108273029327,
        0.150327101349831,
        0.896212041378021
      ],
      "scale": [
        1.0,
        1.0,
        1.0
      ],
      "children": [
        34
      ]
    },
    {
      "name": "middle_02_r",
      "translation": [
        -1.08573416923718E-8,
        0.0308564230799675,
        1.38867930488118E-8
      ],
      "rotation": [
        0.0479487627744675,
        -0.00142890540882945,
        -0.0358898527920246,
        0.998203754425049
      ],
      "scale": [
        1.0,
        1.0,
        1.0
      ],
      "children": [
        35
      ]
    },
    {
      "name": "middle_03_r",
      "translation": [
        -3.87829057757472E-9,
        0.02529058419168,
        3.8180969497148E-9
      ],
      "rotation": [
        0.0681134313344955,
        -0.00000552542724108207,
        0.00621407059952617,
        0.997658252716064
      ],
      "scale": [
        1.0,
        1.0,
        1.0
      ]
    },
    {
      "name": "pinky_01_r",
      "translation": [
        -0.0302451848983765,
        0.0755335614085197,
        -0.0287363212555647
      ],
      "rotation": [
        0.0497637577354908,
        -0.287783771753311,
        0.304740279912949,
        0.906552493572235
      ],
      "scale": [
        1.0,
        1.0,
        1.0
      ],
      "children": [
        37
      ]
    },
    {
      "name": "pinky_02_r",
      "translation": [
        7.20739157245021E-9,
        0.0193923786282539,
        -9.80555547869244E-9
      ],
      "rotation": [
        0.0812221840023994,
        -0.0010580507805571,
        -0.027506772428751,
        0.996315836906433
      ],
      "scale": [
        1.0,
        1.0,
        1.0
      ],
      "children": [
        38
      ]
    },
    {
      "name": "pinky_03_r",
      "translation": [
        -2.72704792081413E-9,
        0.0142181050032377,
        1.78855341648188E-9
      ],
      "rotation": [
        -0.0107506113126874,
        -0.0000168161695910385,
        0.0130090918391943,
        0.999857604503632
      ],
      "scale": [
        1.0,
        1.0,
        1.0
      ]
    },
    {
      "name": "ring_01_r",
      "translation": [
        -0.0153494235128164,
        0.0852776244282722,
        -0.0217280406504869
      ],
      "rotation": [
        0.0543222799897194,
        -0.383878320455551,
        0.228347942233086,
        0.89305305480957
      ],
      "scale": [
        1.0,
        1.0,
        1.0
      ],
      "children": [
        40
      ]
    },
    {
      "name": "ring_02_r",
      "translation": [
        5.24857179939886E-9,
        0.0270350873470306,
        -9.42568245676512E-9
      ],
      "rotation": [
        0.0640238076448441,
        -0.001145432703197,
        -0.0407948195934296,
        0.997113525867462
      ],
      "scale": [
        1.0,
        1.0,
        1.0
      ],
      "children": [
        41
      ]
    },
    {
      "name": "ring_03_r",
      "translation": [
        -1.50916912300403E-9,
        0.0225573033094406,
        1.54265478169435E-9
      ],
      "rotation": [
        0.0534300766885281,
        0.0000462342795799486,
        0.0221024956554174,
        0.9983269572258
      ],
      "scale": [
        1.0,
        1.0,
        1.0
      ]
    },
    {
      "name": "thumb_01_r",
      "translation": [
        0.0131127005442977,
        0.0355741120874882,
        0.0133830057457089
      ],
      "rotation": [
        -0.270853340625763,
        0.73063462972641,
        0.442492604255676,
        -0.443860113620758
      ],
      "scale": [
        1.0,
        1.0,
        1.0
      ],
      "children": [
        43
      ]
    },
    {
      "name": "thumb_02_r",
      "translation": [
        -4.97245244979183E-10,
        0.0280787628144026,
        -9.56643031457816E-9
      ],
      "rotation": [
        0.0724708959460258,
        0.018581960350275,
        0.182666793465614,
        0.98032420873642
      ],
      "scale": [
        1.0,
        1.0,
        1.0
      ],
      "children": [
        44
      ]
    },
    {
      "name": "thumb_03_r",
      "translation": [
        -4.78392547798023E-10,
        0.0327553637325764,
        -8.47516634649992E-9
      ],
      "rotation": [
        0.139208674430847,
        0.00464985053986311,
        0.0330577418208122,
        0.989700198173523
      ],
      "scale": [
        1.0,
        1.0,
        1.0
      ]
    },
    {
      "name": "neck_01",
      "translation": [
        8.47739101139666E-11,
        0.296919226646423,
        -0.0124153532087803
      ],
      "rotation": [
        0.175120785832405,
        -1.38941280702909E-9,
        -6.97799595883453E-11,
        0.984546959400177
      ],
      "scale": [
        1.0,
        1.0,
        1.0
      ],
      "children": [
        46
      ]
    },
    {
      "name": "head",
      "translation": [
        2.26171743182026E-17,
        0.113311573863029,
        2.69488094062353E-8
      ],
      "rotation": [
        -0.209265947341919,
        1.83749016002821E-9,
        -2.82125017792012E-10,
        0.977858781814575
      ],
      "scale": [
        1.0,
        1.0,
        1.0
      ]
    },
    {
      "name": "thigh_l",
      "translation": [
        0.0972524732351303,
        -0.00743033550679684,
        -0.0115701016038656
      ],
      "rotation": [
        0.94532722234726,
        0.102723821997643,
        -0.214416444301605,
        -0.223226055502892
      ],
      "scale": [
        1.0,
        1.0,
        1.0
      ],
      "children": [
        48
      ]
    },
    {
      "name": "calf_l",
      "translation": [
        1.602444177351E-9,
        0.37664458155632,
        -5.185819773601E-9
      ],
      "rotation": [
        0.0671641379594803,
        0.234780877828598,
        -0.00806989148259163,
        0.969691574573517
      ],
      "scale": [
        1.0,
        1.0,
        1.0
      ],
      "children": [
        49
      ]
    },
    {
      "name": "foot_l",
      "translation": [
        -4.08451328315351E-10,
        0.395720928907394,
        9.53736090103519E-10
      ],
      "rotation": [
        -0.534150838851929,
        3.08712202468087E-7,
        5.52232393147278E-8,
        0.845389187335968
      ],
      "scale": [
        1.0,
        1.0,
        1.0
      ],
      "children": [
        50
      ]
    },
    {
      "name": "ball_l",
      "translation": [
        2.46436288042773E-10,
        0.123839683830738,
        -1.93490112820882E-9
      ],
      "rotation": [
        -0.255477011203766,
        0.0178557205945253,
        0.0344580411911011,
        0.966035902500153
      ],
      "scale": [
        1.0,
        1.0,
        1.0
      ]
    },
    {
      "name": "thigh_r",
      "translation": [
        -0.0972524732351303,
        -0.00743033550679684,
        -0.0115701016038656
      ],
      "rotation": [
        0.94532722234726,
        -0.102723821997643,
        0.214416444301605,
        -0.223226055502892
      ],
      "scale": [
        1.0,
        1.0,
        1.0
      ],
      "children": [
        52
      ]
    },
    {
      "name": "calf_r",
      "translation": [
        -1.602444177351E-9,
        0.37664458155632,
        -5.18581932951179E-9
      ],
      "rotation": [
        0.0671641379594803,
        -0.234780877828598,
        0.00806989148259163,
        0.969691574573517
      ],
      "scale": [
        1.0,
        1.0,
        1.0
      ],
      "children": [
        53
      ]
    },
    {
      "name": "foot_r",
      "translation": [
        4.08451328315351E-10,
        0.395720928907394,
        9.53736090103519E-10
      ],
      "rotation": [
        -0.534150838851929,
        -3.08712202468087E-7,
        -5.52232393147278E-8,
        0.845389187335968
      ],
      "scale": [
        1.0,
        1.0,
        1.0
      ],
      "children": [
        54
      ]
    },
    {
      "name": "ball_r",
      "translation": [
        -2.46436288042773E-10,
        0.123839683830738,
        -1.93490112820882E-9
      ],
      "rotation": [
        -0.255477011203766,
        -0.0178557205945253,
        -0.0344580411911011,
        0.966035902500153
      ],
      "scale": [
        1.0,
        1.0,
        1.0
      ]
    },
    {
      "name": "adult_femaleMesh",
      "translation": [
        0.0,
        0.0,
        0.0
      ],
      "rotation": [
        0.0,
        0.0,
        0.0,
        1.0
      ],
      "scale": [
        10.0,
        10.0,
        10.0
      ],
      "mesh": 0,
      "skin": 0
    },
    {
      "name": "high-polyMesh",
      "translation": [
        0.0,
        0.0,
        0.0
      ],
      "rotation": [
        0.0,
        0.0,
        0.0,
        1.0
      ],
      "scale": [
        10.0,
        10.0,
        10.0
      ],
      "mesh": 1,
      "skin": 1
    }
  ]
}
