{
  "asset": {
    "generator": "FBX2glTF v0.13.1",
    "version": "2.0"
  },
  "scene": 0,
  "buffers": [
    {
      "byteLength": 1236492,
      "uri": "broad-male0.bin"
    }
  ],
  "bufferViews": [
    {
      "buffer": 0,
      "byteLength": 160536,
      "byteOffset": 0,
      "target": 34963
    },
    {
      "buffer": 0,
      "byteLength": 174204,
      "byteOffset": 160536,
      "target": 34962
    },
    {
      "buffer": 0,
      "byteLength": 116136,
      "byteOffset": 334740,
      "target": 34962
    },
    {
      "buffer": 0,
      "byteLength": 116136,
      "byteOffset": 450876,
      "target": 34962
    },
    {
      "buffer": 0,
      "byteLength": 116136,
      "byteOffset": 567012,
      "target": 34962
    },
    {
      "buffer": 0,
      "byteLength": 232272,
      "byteOffset": 683148,
      "target": 34962
    },
    {
      "buffer": 0,
      "byteLength": 232272,
      "byteOffset": 915420,
      "target": 34962
    },
    {
      "buffer": 0,
      "byteLength": 12240,
      "byteOffset": 1147692,
      "target": 34963
    },
    {
      "buffer": 0,
      "byteLength": 12912,
      "byteOffset": 1159932,
      "target": 34962
    },
    {
      "buffer": 0,
      "byteLength": 8608,
      "byteOffset": 1172844,
      "target": 34962
    },
    {
      "buffer": 0,
      "byteLength": 8608,
      "byteOffset": 1181452,
      "target": 34962
    },
    {
      "buffer": 0,
      "byteLength": 8608,
      "byteOffset": 1190060,
      "target": 34962
    },
    {
      "buffer": 0,
      "byteLength": 17216,
      "byteOffset": 1198668,
      "target": 34962
    },
    {
      "buffer": 0,
      "byteLength": 17216,
      "byteOffset": 1215884,
      "target": 34962
    },
    {
      "buffer": 0,
      "byteLength": 3328,
      "byteOffset": 1233100
    },
    {
      "buffer": 0,
      "byteLength": 64,
      "byteOffset": 1236428
    }
  ],
  "scenes": [
    {
      "name": "Root Scene",
      "nodes": [
        0
      ]
    }
  ],
  "accessors": [
    {
      "componentType": 5123,
      "type": "SCALAR",
      "count": 80268,
      "bufferView": 0,
      "byteOffset": 0
    },
    {
      "componentType": 5126,
      "type": "VEC3",
      "count": 14517,
      "bufferView": 1,
      "byteOffset": 0,
      "min": [
        -0.596672832965851,
        -0.00136337277945131,
        -0.10750275105238
      ],
      "max": [
        0.596672832965851,
        1.86546170711517,
        0.394315391778946
      ]
    },
    {
      "componentType": 5126,
      "type": "VEC2",
      "count": 14517,
      "bufferView": 2,
      "byteOffset": 0
    },
    {
      "componentType": 5123,
      "type": "VEC4",
      "count": 14517,
      "bufferView": 3,
      "byteOffset": 0
    },
    {
      "componentType": 5123,
      "type": "VEC4",
      "count": 14517,
      "bufferView": 4,
      "byteOffset": 0
    },
    {
      "componentType": 5126,
      "type": "VEC4",
      "count": 14517,
      "bufferView": 5,
      "byteOffset": 0
    },
    {
      "componentType": 5126,
      "type": "VEC4",
      "count": 14517,
      "bufferView": 6,
      "byteOffset": 0
    },
    {
      "componentType": 5123,
      "type": "SCALAR",
      "count": 6120,
      "bufferView": 7,
      "byteOffset": 0
    },
    {
      "componentType": 5126,
      "type": "VEC3",
      "count": 1076,
      "bufferView": 8,
      "byteOffset": 0,
      "min": [
        -0.0476120002567768,
        1.73387968540192,
        0.123386345803738
      ],
      "max": [
        0.0476120002567768,
        1.76545798778534,
        0.149255946278572
      ]
    },
    {
      "componentType": 5126,
      "type": "VEC2",
      "count": 1076,
      "bufferView": 9,
      "byteOffset": 0
    },
    {
      "componentType": 5123,
      "type": "VEC4",
      "count": 1076,
      "bufferView": 10,
      "byteOffset": 0
    },
    {
      "componentType": 5123,
      "type": "VEC4",
      "count": 1076,
      "bufferView": 11,
      "byteOffset": 0
    },
    {
      "componentType": 5126,
      "type": "VEC4",
      "count": 1076,
      "bufferView": 12,
      "byteOffset": 0
    },
    {
      "componentType": 5126,
      "type": "VEC4",
      "count": 1076,
      "bufferView": 13,
      "byteOffset": 0
    },
    {
      "componentType": 5126,
      "type": "MAT4",
      "count": 52,
      "bufferView": 14,
      "byteOffset": 0
    },
    {
      "componentType": 5126,
      "type": "MAT4",
      "count": 1,
      "bufferView": 15,
      "byteOffset": 0
    }
  ],
  "images": [
    {
      "name": "brown_eye.png",
      "uri": "brown_eye.png"
    }
  ],
  "samplers": [
    {}
  ],
  "textures": [
    {
      "name": "brown_eye_png",
      "sampler": 0,
      "source": 0
    }
  ],
  "materials": [
    {
      "name": "broad_male",
      "alphaMode": "OPAQUE",
      "doubleSided": false,
      "extras": {
        "fromFBX": {
          "shadingModel": "Phong",
          "isTruePBR": false
        }
      },
      "pbrMetallicRoughness": {
        "baseColorFactor": [
          0.590333342552185,
          0.439999997615814,
          0.337999999523163,
          1.0
        ],
        "metallicFactor": 0.400000005960464,
        "roughnessFactor": 0.821994960308075
      }
    },
    {
      "name": "high-poly",
      "alphaMode": "BLEND",
      "doubleSided": false,
      "extras": {
        "fromFBX": {
          "shadingModel": "Phong",
          "isTruePBR": false
        }
      },
      "pbrMetallicRoughness": {
        "baseColorTexture": {
          "index": 0,
          "texCoord": 0
        },
        "baseColorFactor": [
          1.0,
          1.0,
          1.0,
          1.0
        ],
        "metallicFactor": 0.400000005960464,
        "roughnessFactor": 0.816496610641479
      }
    }
  ],
  "meshes": [
    {
      "name": "broad_maleMesh",
      "primitives": [
        {
          "material": 0,
          "mode": 4,
          "attributes": {
            "JOINTS_0": 3,
            "JOINTS_1": 4,
            "POSITION": 1,
            "TEXCOORD_0": 2,
            "WEIGHTS_0": 5,
            "WEIGHTS_1": 6
          },
          "indices": 0
        }
      ]
    },
    {
      "name": "high-polyMesh",
      "primitives": [
        {
          "material": 1,
          "mode": 4,
          "attributes": {
            "JOINTS_0": 10,
            "JOINTS_1": 11,
            "POSITION": 8,
            "TEXCOORD_0": 9,
            "WEIGHTS_0": 12,
            "WEIGHTS_1": 13
          },
          "indices": 7
        }
      ]
    }
  ],
  "skins": [
    {
      "joints": [
        3,
        4,
        47,
        51,
        5,
        48,
        52,
        6,
        49,
        53,
        7,
        26,
        45,
        50,
        54,
        8,
        27,
        46,
        9,
        28,
        10,
        29,
        11,
        14,
        17,
        20,
        23,
        30,
        33,
        36,
        39,
        42,
        12,
        15,
        18,
        21,
        24,
        31,
        34,
        37,
        40,
        43,
        13,
        16,
        19,
        22,
        25,
        32,
        35,
        38,
        41,
        44
      ],
      "inverseBindMatrices": 14,
      "skeleton": 3
    },
    {
      "joints": [
        46
      ],
      "inverseBindMatrices": 15,
      "skeleton": 46
    },
    {
      "joints": [
        2,
        3,
        4,
        5,
        6,
        7,
        8,
        9,
        10,
        11,
        12,
        13,
        14,
        15,
        16,
        17,
        18,
        19,
        20,
        21,
        22,
        23,
        24,
        25,
        26,
        27,
        28,
        29,
        30,
        31,
        32,
        33,
        34,
        35,
        36,
        37,
        38,
        39,
        40,
        41,
        42,
        43,
        44,
        45,
        46,
        47,
        48,
        49,
        50,
        51,
        52,
        53,
        54
      ]
    }
  ],
  "nodes": [
    {
      "name": "RootNode",
      "translation": [
        0.0,
        0.0,
        0.0
      ],
      "rotation": [
        0.0,
        0.0,
        0.0,
        1.0
      ],
      "scale": [
        1.0,
        1.0,
        1.0
      ],
      "children": [
        1,
        55,
        56
      ]
    },
    {
      "name": "Game_engine",
      "translation": [
        0.0,
        0.0,
        0.0
      ],
      "rotation": [
        0.0,
        0.0,
        0.0,
        1.0
      ],
      "scale": [
        10.0,
        10.0,
        10.0
      ],
      "children": [
        2
      ]
    },
    {
      "name": "Root",
      "translation": [
        0.0,
        0.0,
        -0.0249933339655399
      ],
      "rotation": [
        0.5,
        0.5,
        0.5,
        0.5
      ],
      "scale": [
        1.0,
        1.0,
        1.0
      ],
      "children": [
        3
      ]
    },
    {
      "name": "pelvis",
      "translation": [
        1.01351976394653,
        0.0287006348371506,
        4.65661259552164E-11
      ],
      "rotation": [
        0.579635083675385,
        0.404997706413269,
        0.579635083675385,
        -0.404997706413269
      ],
      "scale": [
        1.0,
        1.0,
        1.0
      ],
      "children": [
        4,
        47,
        51
      ]
    },
    {
      "name": "spine_01",
      "translation": [
        -1.17110982082533E-17,
        0.0974453613162041,
        5.50734480242454E-9
      ],
      "rotation": [
        0.232305228710175,
        -8.80992917506873E-11,
        3.68864550015502E-10,
        0.972642958164215
      ],
      "scale": [
        1.0,
        1.0,
        1.0
      ],
      "children": [
        5
      ]
    },
    {
      "name": "spine_02",
      "translation": [
        -1.76411506429719E-18,
        0.0753286704421043,
        4.01117139503526E-9
      ],
      "rotation": [
        -0.164277121424675,
        2.2287252599007E-10,
        5.90080984075314E-10,
        0.9864142537117
      ],
      "scale": [
        1.0,
        1.0,
        1.0
      ],
      "children": [
        6
      ]
    },
    {
      "name": "spine_03",
      "translation": [
        3.33445099843678E-20,
        0.0674925446510315,
        -2.38189884482765E-10
      ],
      "rotation": [
        0.0342583693563938,
        -6.63143914780839E-11,
        -3.40894742989484E-11,
        0.999413013458252
      ],
      "scale": [
        1.0,
        1.0,
        1.0
      ],
      "children": [
        7,
        26,
        45
      ]
    },
    {
      "name": "clavicle_l",
      "translation": [
        0.0241588745266199,
        0.271113067865372,
        0.101211868226528
      ],
      "rotation": [
        -0.00708424998447299,
        0.0510083474218845,
        -0.762208342552185,
        0.645280122756958
      ],
      "scale": [
        1.0,
        1.0,
        1.0
      ],
      "children": [
        8
      ]
    },
    {
      "name": "upperarm_l",
      "translation": [
        -2.66793170888846E-10,
        0.172086983919144,
        -5.12869968716245E-10
      ],
      "rotation": [
        0.0104755433276296,
        0.00984230637550354,
        -0.33126175403595,
        0.943429410457611
      ],
      "scale": [
        1.0,
        1.0,
        1.0
      ],
      "children": [
        9
      ]
    },
    {
      "name": "lowerarm_l",
      "translation": [
        -2.7325764762054E-8,
        0.275012880563736,
        2.85148904488608E-9
      ],
      "rotation": [
        0.383185505867004,
        -0.000582509092055261,
        -0.00114373560063541,
        0.923670530319214
      ],
      "scale": [
        1.0,
        1.0,
        1.0
      ],
      "children": [
        10
      ]
    },
    {
      "name": "hand_l",
      "translation": [
        3.11018055754175E-8,
        0.277141511440277,
        -2.13118074299246E-8
      ],
      "rotation": [
        0.102662123739719,
        0.426266521215439,
        -0.0244317483156919,
        0.898421108722687
      ],
      "scale": [
        1.0,
        1.0,
        1.0
      ],
      "children": [
        11,
        14,
        17,
        20,
        23
      ]
    },
    {
      "name": "index_01_l",
      "translation": [
        -0.0149970361962914,
        0.119146734476089,
        0.00981407053768635
      ],
      "rotation": [
        0.105094917118549,
        0.475641548633575,
        -0.000528487551491708,
        0.873338341712952
      ],
      "scale": [
        1.0,
        1.0,
        1.0
      ],
      "children": [
        12
      ]
    },
    {
      "name": "index_02_l",
      "translation": [
        9.3177892068752E-9,
        0.0292839035391808,
        1.2927457326839E-8
      ],
      "rotation": [
        0.108455933630466,
        0.00267295236699283,
        0.00655346177518368,
        0.994076073169708
      ],
      "scale": [
        1.0,
        1.0,
        1.0
      ],
      "children": [
        13
      ]
    },
    {
      "name": "index_03_l",
      "translation": [
        -9.24725096496104E-9,
        0.0261962860822678,
        -1.00556576398958E-8
      ],
      "rotation": [
        0.0599660463631153,
        0.0000685182894812897,
        0.0168752446770668,
        0.998057782649994
      ],
      "scale": [
        1.0,
        1.0,
        1.0
      ]
    },
    {
      "name": "middle_01_l",
      "translation": [
        0.00335910427384079,
        0.115165270864964,
        -0.0132466340437531
      ],
      "rotation": [
        0.0916884616017342,
        0.40828937292099,
        -0.149968594312668,
        0.89576917886734
      ],
      "scale": [
        1.0,
        1.0,
        1.0
      ],
      "children": [
        15
      ]
    },
    {
      "name": "middle_02_l",
      "translation": [
        7.71409425226466E-9,
        0.0380700640380383,
        9.22272214154418E-9
      ],
      "rotation": [
        0.0502925328910351,
        0.00159622833598405,
        0.0374724082648754,
        0.998030006885529
      ],
      "scale": [
        1.0,
        1.0,
        1.0
      ],
      "children": [
        16
      ]
    },
    {
      "name": "middle_03_l",
      "translation": [
        -1.8137406243568E-8,
        0.0309378616511822,
        -1.67886788915439E-8
      ],
      "rotation": [
        0.0641695410013199,
        0.00000419909611082403,
        -0.0058536846190691,
        0.997921824455261
      ],
      "scale": [
        1.0,
        1.0,
        1.0
      ]
    },
    {
      "name": "pinky_01_l",
      "translation": [
        0.0378932468593121,
        0.0938361883163452,
        -0.0360971838235855
      ],
      "rotation": [
        0.0424177795648575,
        0.286428302526474,
        -0.295832484960556,
        0.91029816865921
      ],
      "scale": [
        1.0,
        1.0,
        1.0
      ],
      "children": [
        18
      ]
    },
    {
      "name": "pinky_02_l",
      "translation": [
        -1.87249465932737E-10,
        0.0241419337689877,
        1.39270636689837E-10
      ],
      "rotation": [
        0.0858869105577469,
        0.000665334518998861,
        0.0198709759861231,
        0.996106505393982
      ],
      "scale": [
        1.0,
        1.0,
        1.0
      ],
      "children": [
        19
      ]
    },
    {
      "name": "pinky_03_l",
      "translation": [
        7.18748083272658E-9,
        0.0175381004810333,
        4.14088763278642E-9
      ],
      "rotation": [
        -0.00418384838849306,
        0.00000545995408174349,
        -0.0108857452869415,
        0.999931991100311
      ],
      "scale": [
        1.0,
        1.0,
        1.0
      ]
    },
    {
      "name": "ring_01_l",
      "translation": [
        0.0190796256065369,
        0.106283500790596,
        -0.027457581833005
      ],
      "rotation": [
        0.0453107692301273,
        0.381635338068008,
        -0.228302642703056,
        0.894527435302734
      ],
      "scale": [
        1.0,
        1.0,
        1.0
      ],
      "children": [
        21
      ]
    },
    {
      "name": "ring_02_l",
      "translation": [
        1.90430462509994E-8,
        0.0335462875664234,
        2.8859538758752E-8
      ],
      "rotation": [
        0.0606767870485783,
        0.00106626562774181,
        0.0460276864469051,
        0.997095108032227
      ],
      "scale": [
        1.0,
        1.0,
        1.0
      ],
      "children": [
        22
      ]
    },
    {
      "name": "ring_03_l",
      "translation": [
        5.06867083027718E-11,
        0.0280275046825409,
        1.77068235074351E-10
      ],
      "rotation": [
        0.0633771419525146,
        -0.0000577107857679948,
        -0.0275876820087433,
        0.997608244419098
      ],
      "scale": [
        1.0,
        1.0,
        1.0
      ]
    },
    {
      "name": "thumb_01_l",
      "translation": [
        -0.0163479652255774,
        0.0451934672892094,
        0.0164465736597776
      ],
      "rotation": [
        0.270689100027084,
        0.72600531578064,
        0.434217095375061,
        0.459455281496048
      ],
      "scale": [
        1.0,
        1.0,
        1.0
      ],
      "children": [
        24
      ]
    },
    {
      "name": "thumb_02_l",
      "translation": [
        1.91374871505445E-9,
        0.034651055932045,
        -3.7171552946802E-8
      ],
      "rotation": [
        0.065184473991394,
        -0.0166103765368462,
        -0.183139592409134,
        0.980782806873322
      ],
      "scale": [
        1.0,
        1.0,
        1.0
      ],
      "children": [
        25
      ]
    },
    {
      "name": "thumb_03_l",
      "translation": [
        1.7732976198559E-9,
        0.0411911532282829,
        -1.76201346846483E-8
      ],
      "rotation": [
        0.139479234814644,
        -0.00452852575108409,
        -0.0321325697004795,
        0.989693164825439
      ],
      "scale": [
        1.0,
        1.0,
        1.0
      ]
    },
    {
      "name": "clavicle_r",
      "translation": [
        -0.0241588745266199,
        0.271113067865372,
        0.101211868226528
      ],
      "rotation": [
        -0.00708425045013428,
        -0.0510083474218845,
        0.762208342552185,
        0.645280122756958
      ],
      "scale": [
        1.0,
        1.0,
        1.0
      ],
      "children": [
        27
      ]
    },
    {
      "name": "upperarm_r",
      "translation": [
        2.66793170888846E-10,
        0.172086983919144,
        -5.12869968716245E-10
      ],
      "rotation": [
        0.0104755433276296,
        -0.00984230637550354,
        0.33126175403595,
        0.943429410457611
      ],
      "scale": [
        1.0,
        1.0,
        1.0
      ],
      "children": [
        28
      ]
    },
    {
      "name": "lowerarm_r",
      "translation": [
        2.7325764762054E-8,
        0.275012880563736,
        2.85148904488608E-9
      ],
      "rotation": [
        0.383185505867004,
        0.000582509092055261,
        0.00114373560063541,
        0.923670530319214
      ],
      "scale": [
        1.0,
        1.0,
        1.0
      ],
      "children": [
        29
      ]
    },
    {
      "name": "hand_r",
      "translation": [
        -3.11018055754175E-8,
        0.277141511440277,
        -2.13118074299246E-8
      ],
      "rotation": [
        0.102662123739719,
        -0.426266521215439,
        0.0244317483156919,
        0.898421108722687
      ],
      "scale": [
        1.0,
        1.0,
        1.0
      ],
      "children": [
        30,
        33,
        36,
        39,
        42
      ]
    },
    {
      "name": "index_01_r",
      "translation": [
        0.0149970361962914,
        0.119146734476089,
        0.00981407053768635
      ],
      "rotation": [
        0.105094917118549,
        -0.475641548633575,
        0.000528487551491708,
        0.873338341712952
      ],
      "scale": [
        1.0,
        1.0,
        1.0
      ],
      "children": [
        31
      ]
    },
    {
      "name": "index_02_r",
      "translation": [
        -9.3177892068752E-9,
        0.0292839035391808,
        1.2927457326839E-8
      ],
      "rotation": [
        0.108455933630466,
        -0.00267295236699283,
        -0.00655346177518368,
        0.994076073169708
      ],
      "scale": [
        1.0,
        1.0,
        1.0
      ],
      "children": [
        32
      ]
    },
    {
      "name": "index_03_r",
      "translation": [
        9.24725096496104E-9,
        0.0261962860822678,
        -1.00556585280742E-8
      ],
      "rotation": [
        0.0599660463631153,
        -0.0000685182894812897,
        -0.0168752446770668,
        0.998057782649994
      ],
      "scale": [
        1.0,
        1.0,
        1.0
      ]
    },
    {
      "name": "middle_01_r",
      "translation": [
        -0.00335910427384079,
        0.115165270864964,
        -0.0132466340437531
      ],
      "rotation": [
        0.0916884616017342,
        -0.40828937292099,
        0.149968594312668,
        0.89576917886734
      ],
      "scale": [
        1.0,
        1.0,
        1.0
      ],
      "children": [
        34
      ]
    },
    {
      "name": "middle_02_r",
      "translation": [
        -7.71409425226466E-9,
        0.0380700640380383,
        9.22272214154418E-9
      ],
      "rotation": [
        0.0502925328910351,
        -0.00159622833598405,
        -0.0374724082648754,
        0.998030006885529
      ],
      "scale": [
        1.0,
        1.0,
        1.0
      ],
      "children": [
        35
      ]
    },
    {
      "name": "middle_03_r",
      "translation": [
        1.8137406243568E-8,
        0.0309378616511822,
        -1.67886788915439E-8
      ],
      "rotation": [
        0.0641695410013199,
        -0.00000419909611082403,
        0.0058536846190691,
        0.997921824455261
      ],
      "scale": [
        1.0,
        1.0,
        1.0
      ]
    },
    {
      "name": "pinky_01_r",
      "translation": [
        -0.0378932468593121,
        0.0938361883163452,
        -0.0360971838235855
      ],
      "rotation": [
        0.0424177795648575,
        -0.286428302526474,
        0.295832484960556,
        0.91029816865921
      ],
      "scale": [
        1.0,
        1.0,
        1.0
      ],
      "children": [
        37
      ]
    },
    {
      "name": "pinky_02_r",
      "translation": [
        1.87249465932737E-10,
        0.0241419337689877,
        1.39270775467715E-10
      ],
      "rotation": [
        0.0858869105577469,
        -0.000665334518998861,
        -0.0198709759861231,
        0.996106505393982
      ],
      "scale": [
        1.0,
        1.0,
        1.0
      ],
      "children": [
        38
      ]
    },
    {
      "name": "pinky_03_r",
      "translation": [
        -7.18748127681579E-9,
        0.0175381004810333,
        4.14088718869721E-9
      ],
      "rotation": [
        -0.00418384838849306,
        -0.00000545995408174349,
        0.0108857452869415,
        0.999931991100311
      ],
      "scale": [
        1.0,
        1.0,
        1.0
      ]
    },
    {
      "name": "ring_01_r",
      "translation": [
        -0.0190796256065369,
        0.106283500790596,
        -0.027457581833005
      ],
      "rotation": [
        0.0453107692301273,
        -0.381635338068008,
        0.228302642703056,
        0.894527435302734
      ],
      "scale": [
        1.0,
        1.0,
        1.0
      ],
      "children": [
        40
      ]
    },
    {
      "name": "ring_02_r",
      "translation": [
        -1.90430462509994E-8,
        0.0335462875664234,
        2.8859538758752E-8
      ],
      "rotation": [
        0.0606767870485783,
        -0.00106626562774181,
        -0.0460276864469051,
        0.997095108032227
      ],
      "scale": [
        1.0,
        1.0,
        1.0
      ],
      "children": [
        41
      ]
    },
    {
      "name": "ring_03_r",
      "translation": [
        -5.06867083027718E-11,
        0.0280275046825409,
        1.77068387730017E-10
      ],
      "rotation": [
        0.0633771419525146,
        0.0000577107857679948,
        0.0275876820087433,
        0.997608244419098
      ],
      "scale": [
        1.0,
        1.0,
        1.0
      ]
    },
    {
      "name": "thumb_01_r",
      "translation": [
        0.0163479652255774,
        0.0451934672892094,
        0.0164465736597776
      ],
      "rotation": [
        -0.270689100027084,
        0.72600531578064,
        0.434217095375061,
        -0.459455281496048
      ],
      "scale": [
        1.0,
        1.0,
        1.0
      ],
      "children": [
        43
      ]
    },
    {
      "name": "thumb_02_r",
      "translation": [
        -1.91374849300985E-9,
        0.034651055932045,
        -3.7171552946802E-8
      ],
      "rotation": [
        0.065184473991394,
        0.0166103765368462,
        0.183139592409134,
        0.980782806873322
      ],
      "scale": [
        1.0,
        1.0,
        1.0
      ],
      "children": [
        44
      ]
    },
    {
      "name": "thumb_03_r",
      "translation": [
        -1.77329750883359E-9,
        0.0411911532282829,
        -1.76201346846483E-8
      ],
      "rotation": [
        0.139479234814644,
        0.00452852575108409,
        0.0321325697004795,
        0.989693164825439
      ],
      "scale": [
        1.0,
        1.0,
        1.0
      ]
    },
    {
      "name": "neck_01",
      "translation": [
        3.85825121851369E-10,
        0.351944178342819,
        0.097343273460865
      ],
      "rotation": [
        0.232503995299339,
        -2.63094923624863E-9,
        -1.06607045413654E-9,
        0.972595453262329
      ],
      "scale": [
        1.0,
        1.0,
        1.0
      ],
      "children": [
        46
      ]
    },
    {
      "name": "head",
      "translation": [
        -7.88346964335501E-18,
        0.104711785912514,
        -1.75688907866345E-9
      ],
      "rotation": [
        -0.172046363353729,
        2.20440732334737E-9,
        2.43517789266789E-10,
        0.98508882522583
      ],
      "scale": [
        1.0,
        1.0,
        1.0
      ]
    },
    {
      "name": "thigh_l",
      "translation": [
        0.117480739951134,
        -0.00826357491314411,
        -0.0148150688037276
      ],
      "rotation": [
        0.966830730438232,
        0.0761517956852913,
        -0.211071133613586,
        -0.122017376124859
      ],
      "scale": [
        1.0,
        1.0,
        1.0
      ],
      "children": [
        48
      ]
    },
    {
      "name": "calf_l",
      "translation": [
        -3.97818833430819E-10,
        0.450631409883499,
        1.31910427025872E-9
      ],
      "rotation": [
        0.0609658025205135,
        0.229837745428085,
        -0.00854299869388342,
        0.971279978752136
      ],
      "scale": [
        1.0,
        1.0,
        1.0
      ],
      "children": [
        49
      ]
    },
    {
      "name": "foot_l",
      "translation": [
        1.03997777056719E-9,
        0.480482935905457,
        -2.06129266433486E-10
      ],
      "rotation": [
        -0.546929359436035,
        -8.69963585614641E-8,
        -6.13952622074976E-8,
        0.837178766727448
      ],
      "scale": [
        1.0,
        1.0,
        1.0
      ],
      "children": [
        50
      ]
    },
    {
      "name": "ball_l",
      "translation": [
        1.52146378828988E-10,
        0.152530953288078,
        -3.75387498863233E-9
      ],
      "rotation": [
        -0.262137204408646,
        0.0171050187200308,
        0.0142993284389377,
        0.964773058891296
      ],
      "scale": [
        1.0,
        1.0,
        1.0
      ]
    },
    {
      "name": "thigh_r",
      "translation": [
        -0.117480739951134,
        -0.00826357491314411,
        -0.0148150688037276
      ],
      "rotation": [
        0.966830730438232,
        -0.0761517956852913,
        0.211071103811264,
        -0.122017383575439
      ],
      "scale": [
        1.0,
        1.0,
        1.0
      ],
      "children": [
        52
      ]
    },
    {
      "name": "calf_r",
      "translation": [
        3.97818944453121E-10,
        0.450631409883499,
        1.31910438128102E-9
      ],
      "rotation": [
        0.0609657987952232,
        -0.229837760329247,
        0.00854299403727055,
        0.971279978752136
      ],
      "scale": [
        1.0,
        1.0,
        1.0
      ],
      "children": [
        53
      ]
    },
    {
      "name": "foot_r",
      "translation": [
        -1.03997777056719E-9,
        0.480482935905457,
        -2.06129266433486E-10
      ],
      "rotation": [
        -0.546929359436035,
        8.69963585614641E-8,
        6.13952622074976E-8,
        0.837178766727448
      ],
      "scale": [
        1.0,
        1.0,
        1.0
      ],
      "children": [
        54
      ]
    },
    {
      "name": "ball_r",
      "translation": [
        -1.52146309440049E-10,
        0.152530953288078,
        -3.75387498863233E-9
      ],
      "rotation": [
        -0.262137204408646,
        -0.0171050187200308,
        -0.0142993284389377,
        0.964773058891296
      ],
      "scale": [
        1.0,
        1.0,
        1.0
      ]
    },
    {
      "name": "broad_maleMesh",
      "translation": [
        0.0,
        0.0,
        0.0
      ],
      "rotation": [
        0.0,
        0.0,
        0.0,
        1.0
      ],
      "scale": [
        10.0,
        10.0,
        10.0
      ],
      "mesh": 0,
      "skin": 0
    },
    {
      "name": "high-polyMesh",
      "translation": [
        0.0,
        0.0,
        0.0
      ],
      "rotation": [
        0.0,
        0.0,
        0.0,
        1.0
      ],
      "scale": [
        10.0,
        10.0,
        10.0
      ],
      "mesh": 1,
      "skin": 1
    }
  ]
}
