{
  "asset": {
    "generator": "FBX2glTF v0.13.1",
    "version": "2.0"
  },
  "scene": 0,
  "buffers": [
    {
      "byteLength": 1236492,
      "uri": "child-female0.bin"
    }
  ],
  "bufferViews": [
    {
      "buffer": 0,
      "byteLength": 160536,
      "byteOffset": 0,
      "target": 34963
    },
    {
      "buffer": 0,
      "byteLength": 174204,
      "byteOffset": 160536,
      "target": 34962
    },
    {
      "buffer": 0,
      "byteLength": 116136,
      "byteOffset": 334740,
      "target": 34962
    },
    {
      "buffer": 0,
      "byteLength": 116136,
      "byteOffset": 450876,
      "target": 34962
    },
    {
      "buffer": 0,
      "byteLength": 116136,
      "byteOffset": 567012,
      "target": 34962
    },
    {
      "buffer": 0,
      "byteLength": 232272,
      "byteOffset": 683148,
      "target": 34962
    },
    {
      "buffer": 0,
      "byteLength": 232272,
      "byteOffset": 915420,
      "target": 34962
    },
    {
      "buffer": 0,
      "byteLength": 12240,
      "byteOffset": 1147692,
      "target": 34963
    },
    {
      "buffer": 0,
      "byteLength": 12912,
      "byteOffset": 1159932,
      "target": 34962
    },
    {
      "buffer": 0,
      "byteLength": 8608,
      "byteOffset": 1172844,
      "target": 34962
    },
    {
      "buffer": 0,
      "byteLength": 8608,
      "byteOffset": 1181452,
      "target": 34962
    },
    {
      "buffer": 0,
      "byteLength": 8608,
      "byteOffset": 1190060,
      "target": 34962
    },
    {
      "buffer": 0,
      "byteLength": 17216,
      "byteOffset": 1198668,
      "target": 34962
    },
    {
      "buffer": 0,
      "byteLength": 17216,
      "byteOffset": 1215884,
      "target": 34962
    },
    {
      "buffer": 0,
      "byteLength": 3328,
      "byteOffset": 1233100
    },
    {
      "buffer": 0,
      "byteLength": 64,
      "byteOffset": 1236428
    }
  ],
  "scenes": [
    {
      "name": "Root Scene",
      "nodes": [
        0
      ]
    }
  ],
  "accessors": [
    {
      "componentType": 5123,
      "type": "SCALAR",
      "count": 80268,
      "bufferView": 0,
      "byteOffset": 0
    },
    {
      "componentType": 5126,
      "type": "VEC3",
      "count": 14517,
      "bufferView": 1,
      "byteOffset": 0,
      "min": [
        -0.339520901441574,
        -0.00600883457809687,
        -0.0624299757182598
      ],
      "max": [
        0.339520901441574,
        1.09630846977234,
        0.218741953372955
      ]
    },
    {
      "componentType": 5126,
      "type": "VEC2",
      "count": 14517,
      "bufferView": 2,
      "byteOffset": 0
    },
    {
      "componentType": 5123,
      "type": "VEC4",
      "count": 14517,
      "bufferView": 3,
      "byteOffset": 0
    },
    {
      "componentType": 5123,
      "type": "VEC4",
      "count": 14517,
      "bufferView": 4,
      "byteOffset": 0
    },
    {
      "componentType": 5126,
      "type": "VEC4",
      "count": 14517,
      "bufferView": 5,
      "byteOffset": 0
    },
    {
      "componentType": 5126,
      "type": "VEC4",
      "count": 14517,
      "bufferView": 6,
      "byteOffset": 0
    },
    {
      "componentType": 5123,
      "type": "SCALAR",
      "count": 6120,
      "bufferView": 7,
      "byteOffset": 0
    },
    {
      "componentType": 5126,
      "type": "VEC3",
      "count": 1076,
      "bufferView": 8,
      "byteOffset": 0,
      "min": [
        -0.0383021533489227,
        0.991794884204865,
        0.0725755915045738
      ],
      "max": [
        0.038302157074213,
        1.01971566677094,
        0.0940053164958954
      ]
    },
    {
      "componentType": 5126,
      "type": "VEC2",
      "count": 1076,
      "bufferView": 9,
      "byteOffset": 0
    },
    {
      "componentType": 5123,
      "type": "VEC4",
      "count": 1076,
      "bufferView": 10,
      "byteOffset": 0
    },
    {
      "componentType": 5123,
      "type": "VEC4",
      "count": 1076,
      "bufferView": 11,
      "byteOffset": 0
    },
    {
      "componentType": 5126,
      "type": "VEC4",
      "count": 1076,
      "bufferView": 12,
      "byteOffset": 0
    },
    {
      "componentType": 5126,
      "type": "VEC4",
      "count": 1076,
      "bufferView": 13,
      "byteOffset": 0
    },
    {
      "componentType": 5126,
      "type": "MAT4",
      "count": 52,
      "bufferView": 14,
      "byteOffset": 0
    },
    {
      "componentType": 5126,
      "type": "MAT4",
      "count": 1,
      "bufferView": 15,
      "byteOffset": 0
    }
  ],
  "images": [
    {
      "name": "brown_eye.png",
      "uri": "brown_eye.png"
    }
  ],
  "samplers": [
    {}
  ],
  "textures": [
    {
      "name": "brown_eye_png",
      "sampler": 0,
      "source": 0
    }
  ],
  "materials": [
    {
      "name": "child_female",
      "alphaMode": "OPAQUE",
      "doubleSided": false,
      "extras": {
        "fromFBX": {
          "shadingModel": "Phong",
          "isTruePBR": false
        }
      },
      "pbrMetallicRoughness": {
        "baseColorFactor": [
          0.590333342552185,
          0.439999997615814,
          0.337999999523163,
          1.0
        ],
        "metallicFactor": 0.400000005960464,
        "roughnessFactor": 0.821994960308075
      }
    },
    {
      "name": "high-poly",
      "alphaMode": "BLEND",
      "doubleSided": false,
      "extras": {
        "fromFBX": {
          "shadingModel": "Phong",
          "isTruePBR": false
        }
      },
      "pbrMetallicRoughness": {
        "baseColorTexture": {
          "index": 0,
          "texCoord": 0
        },
        "baseColorFactor": [
          1.0,
          1.0,
          1.0,
          1.0
        ],
        "metallicFactor": 0.400000005960464,
        "roughnessFactor": 0.816496610641479
      }
    }
  ],
  "meshes": [
    {
      "name": "child_femaleMesh",
      "primitives": [
        {
          "material": 0,
          "mode": 4,
          "attributes": {
            "JOINTS_0": 3,
            "JOINTS_1": 4,
            "POSITION": 1,
            "TEXCOORD_0": 2,
            "WEIGHTS_0": 5,
            "WEIGHTS_1": 6
          },
          "indices": 0
        }
      ]
    },
    {
      "name": "high-polyMesh",
      "primitives": [
        {
          "material": 1,
          "mode": 4,
          "attributes": {
            "JOINTS_0": 10,
            "JOINTS_1": 11,
            "POSITION": 8,
            "TEXCOORD_0": 9,
            "WEIGHTS_0": 12,
            "WEIGHTS_1": 13
          },
          "indices": 7
        }
      ]
    }
  ],
  "skins": [
    {
      "joints": [
        3,
        4,
        47,
        51,
        5,
        48,
        52,
        6,
        49,
        53,
        7,
        26,
        45,
        50,
        54,
        8,
        27,
        46,
        9,
        28,
        10,
        29,
        11,
        14,
        17,
        20,
        23,
        30,
        33,
        36,
        39,
        42,
        12,
        15,
        18,
        21,
        24,
        31,
        34,
        37,
        40,
        43,
        13,
        16,
        19,
        22,
        25,
        32,
        35,
        38,
        41,
        44
      ],
      "inverseBindMatrices": 14,
      "skeleton": 3
    },
    {
      "joints": [
        46
      ],
      "inverseBindMatrices": 15,
      "skeleton": 46
    },
    {
      "joints": [
        2,
        3,
        4,
        5,
        6,
        7,
        8,
        9,
        10,
        11,
        12,
        13,
        14,
        15,
        16,
        17,
        18,
        19,
        20,
        21,
        22,
        23,
        24,
        25,
        26,
        27,
        28,
        29,
        30,
        31,
        32,
        33,
        34,
        35,
        36,
        37,
        38,
        39,
        40,
        41,
        42,
        43,
        44,
        45,
        46,
        47,
        48,
        49,
        50,
        51,
        52,
        53,
        54
      ]
    }
  ],
  "nodes": [
    {
      "name": "RootNode",
      "translation": [
        0.0,
        0.0,
        0.0
      ],
      "rotation": [
        0.0,
        0.0,
        0.0,
        1.0
      ],
      "scale": [
        1.0,
        1.0,
        1.0
      ],
      "children": [
        1,
        55,
        56
      ]
    },
    {
      "name": "Game_engine",
      "translation": [
        0.0,
        0.0,
        0.0
      ],
      "rotation": [
        0.0,
        0.0,
        0.0,
        1.0
      ],
      "scale": [
        10.0,
        10.0,
        10.0
      ],
      "children": [
        2
      ]
    },
    {
      "name": "Root",
      "translation": [
        0.0,
        7.62939436071974E-8,
        -0.0260874386876822
      ],
      "rotation": [
        0.5,
        0.5,
        0.5,
        0.5
      ],
      "scale": [
        1.0,
        1.0,
        1.0
      ],
      "children": [
        3
      ]
    },
    {
      "name": "pelvis",
      "translation": [
        0.573904633522034,
        0.0396809838712215,
        -1.23259509093943E-33
      ],
      "rotation": [
        0.667071998119354,
        0.234552726149559,
        0.667071998119354,
        -0.234552726149559
      ],
      "scale": [
        1.0,
        1.0,
        1.0
      ],
      "children": [
        4,
        47,
        51
      ]
    },
    {
      "name": "spine_01",
      "translation": [
        0.0,
        0.0304607320576906,
        1.40957423511168E-8
      ],
      "rotation": [
        0.518779397010803,
        -5.83161425011792E-33,
        -3.67016556367779E-33,
        0.854908108711243
      ],
      "scale": [
        1.0,
        1.0,
        1.0
      ],
      "children": [
        5
      ]
    },
    {
      "name": "spine_02",
      "translation": [
        3.94430443794298E-33,
        0.0494122020900249,
        -3.2331564092658E-9
      ],
      "rotation": [
        -0.0374739766120911,
        -7.20202413331816E-12,
        -1.92052485026295E-10,
        0.999297618865967
      ],
      "scale": [
        1.0,
        1.0,
        1.0
      ],
      "children": [
        6
      ]
    },
    {
      "name": "spine_03",
      "translation": [
        1.50633278771438E-17,
        0.0605737864971161,
        4.65446570174777E-9
      ],
      "rotation": [
        -0.181007906794548,
        -4.61310503685475E-11,
        2.92543544944124E-10,
        0.983481645584106
      ],
      "scale": [
        1.0,
        1.0,
        1.0
      ],
      "children": [
        7,
        26,
        45
      ]
    },
    {
      "name": "clavicle_l",
      "translation": [
        0.0158968139439821,
        0.153354525566101,
        0.0418853648006916
      ],
      "rotation": [
        -0.00878959614783525,
        0.0361115373671055,
        -0.771023333072662,
        0.635721385478973
      ],
      "scale": [
        1.0,
        1.0,
        1.0
      ],
      "children": [
        8
      ]
    },
    {
      "name": "upperarm_l",
      "translation": [
        -1.59739030891615E-8,
        0.0891134887933731,
        3.31702465494743E-9
      ],
      "rotation": [
        -0.0588354542851448,
        0.0576365329325199,
        -0.308153480291367,
        0.94776463508606
      ],
      "scale": [
        1.0,
        1.0,
        1.0
      ],
      "children": [
        9
      ]
    },
    {
      "name": "lowerarm_l",
      "translation": [
        1.07521458403426E-8,
        0.16063928604126,
        -4.30783797522594E-10
      ],
      "rotation": [
        0.408711731433868,
        -0.00774386478587985,
        -0.0140158385038376,
        0.912523031234741
      ],
      "scale": [
        1.0,
        1.0,
        1.0
      ],
      "children": [
        10
      ]
    },
    {
      "name": "hand_l",
      "translation": [
        -3.47442241643847E-10,
        0.159406006336212,
        -3.07208203320641E-10
      ],
      "rotation": [
        0.104263834655285,
        0.438944548368454,
        -0.0203837938606739,
        0.892211437225342
      ],
      "scale": [
        1.0,
        1.0,
        1.0
      ],
      "children": [
        11,
        14,
        17,
        20,
        23
      ]
    },
    {
      "name": "index_01_l",
      "translation": [
        -0.00829361751675606,
        0.0698074921965599,
        0.0059152957983315
      ],
      "rotation": [
        0.114086680114269,
        0.471333056688309,
        -0.00426952727138996,
        0.874534785747528
      ],
      "scale": [
        1.0,
        1.0,
        1.0
      ],
      "children": [
        12
      ]
    },
    {
      "name": "index_02_l",
      "translation": [
        9.43695610544637E-9,
        0.0169731806963682,
        1.27618209333491E-8
      ],
      "rotation": [
        0.111707873642445,
        0.00284116319380701,
        0.00394542049616575,
        0.993729174137115
      ],
      "scale": [
        1.0,
        1.0,
        1.0
      ],
      "children": [
        13
      ]
    },
    {
      "name": "index_03_l",
      "translation": [
        -9.60253654369581E-9,
        0.0151685392484069,
        -1.02377066824033E-8
      ],
      "rotation": [
        0.0646414458751678,
        0.000106246465293225,
        0.0197734497487545,
        0.9977126121521
      ],
      "scale": [
        1.0,
        1.0,
        1.0
      ]
    },
    {
      "name": "middle_01_l",
      "translation": [
        0.00220141839236021,
        0.0673269554972649,
        -0.00782815273851156
      ],
      "rotation": [
        0.101809591054916,
        0.406162977218628,
        -0.155681550502777,
        0.894667387008667
      ],
      "scale": [
        1.0,
        1.0,
        1.0
      ],
      "children": [
        15
      ]
    },
    {
      "name": "middle_02_l",
      "translation": [
        8.09314570915376E-9,
        0.022141033783555,
        9.80834524710872E-9
      ],
      "rotation": [
        0.0465312674641609,
        0.00147796224337071,
        0.037143275141716,
        0.998224914073944
      ],
      "scale": [
        1.0,
        1.0,
        1.0
      ],
      "children": [
        16
      ]
    },
    {
      "name": "middle_03_l",
      "translation": [
        -9.25799170659047E-9,
        0.0183738600462675,
        -8.45887448974736E-9
      ],
      "rotation": [
        0.0819551944732666,
        0.00000648954710413818,
        -0.00549985468387604,
        0.996620833873749
      ],
      "scale": [
        1.0,
        1.0,
        1.0
      ]
    },
    {
      "name": "pinky_01_l",
      "translation": [
        0.0223794709891081,
        0.0549452714622021,
        -0.0209635011851788
      ],
      "rotation": [
        0.0421646572649479,
        0.298030406236649,
        -0.302551299333572,
        0.904357612133026
      ],
      "scale": [
        1.0,
        1.0,
        1.0
      ],
      "children": [
        18
      ]
    },
    {
      "name": "pinky_02_l",
      "translation": [
        5.81260550802654E-9,
        0.0140718398615718,
        7.4342136890948E-9
      ],
      "rotation": [
        0.103166714310646,
        0.000995898153632879,
        0.0247001610696316,
        0.994356870651245
      ],
      "scale": [
        1.0,
        1.0,
        1.0
      ],
      "children": [
        19
      ]
    },
    {
      "name": "pinky_03_l",
      "translation": [
        -6.62163790465797E-9,
        0.0102513963356614,
        -3.77392961325995E-9
      ],
      "rotation": [
        -0.00327005656436086,
        0.00000553323252461269,
        -0.0134847825393081,
        0.999903738498688
      ],
      "scale": [
        1.0,
        1.0,
        1.0
      ]
    },
    {
      "name": "ring_01_l",
      "translation": [
        0.0114176953211427,
        0.0621890872716904,
        -0.0160055961459875
      ],
      "rotation": [
        0.049739308655262,
        0.383103162050247,
        -0.23295983672142,
        0.892461597919464
      ],
      "scale": [
        1.0,
        1.0,
        1.0
      ],
      "children": [
        21
      ]
    },
    {
      "name": "ring_02_l",
      "translation": [
        -5.08089292861058E-10,
        0.0196517836302519,
        -4.5348471505724E-11
      ],
      "rotation": [
        0.0683437809348106,
        0.00128115224651992,
        0.0467141345143318,
        0.996566772460938
      ],
      "scale": [
        1.0,
        1.0,
        1.0
      ],
      "children": [
        22
      ]
    },
    {
      "name": "ring_03_l",
      "translation": [
        -2.25993789654266E-11,
        0.0163808260113001,
        -4.38785709155898E-11
      ],
      "rotation": [
        0.0734803825616837,
        -0.0000759852991905063,
        -0.0269848555326462,
        0.996931493282318
      ],
      "scale": [
        1.0,
        1.0,
        1.0
      ]
    },
    {
      "name": "thumb_01_l",
      "translation": [
        -0.00948225241154432,
        0.0264304783195257,
        0.00964019540697336
      ],
      "rotation": [
        0.276790022850037,
        0.721520483493805,
        0.444745391607285,
        0.452765941619873
      ],
      "scale": [
        1.0,
        1.0,
        1.0
      ],
      "children": [
        24
      ]
    },
    {
      "name": "thumb_02_l",
      "translation": [
        1.83984460999653E-9,
        0.0203385222703218,
        -3.71460870951523E-8
      ],
      "rotation": [
        0.0735667571425438,
        -0.0193494074046612,
        -0.189481109380722,
        0.978933334350586
      ],
      "scale": [
        1.0,
        1.0,
        1.0
      ],
      "children": [
        25
      ]
    },
    {
      "name": "thumb_03_l",
      "translation": [
        -2.73798028693761E-9,
        0.0238174833357334,
        1.76435559495758E-8
      ],
      "rotation": [
        0.1455999314785,
        -0.00480640726163983,
        -0.032641664147377,
        0.988793253898621
      ],
      "scale": [
        1.0,
        1.0,
        1.0
      ]
    },
    {
      "name": "clavicle_r",
      "translation": [
        -0.0158968139439821,
        0.153354525566101,
        0.0418853648006916
      ],
      "rotation": [
        -0.00878959614783525,
        -0.0361115373671055,
        0.771023333072662,
        0.635721385478973
      ],
      "scale": [
        1.0,
        1.0,
        1.0
      ],
      "children": [
        27
      ]
    },
    {
      "name": "upperarm_r",
      "translation": [
        1.59739030891615E-8,
        0.0891134887933731,
        3.31702465494743E-9
      ],
      "rotation": [
        -0.0588354542851448,
        -0.0576365329325199,
        0.308153480291367,
        0.94776463508606
      ],
      "scale": [
        1.0,
        1.0,
        1.0
      ],
      "children": [
        28
      ]
    },
    {
      "name": "lowerarm_r",
      "translation": [
        -1.07521458403426E-8,
        0.16063928604126,
        -4.30783797522594E-10
      ],
      "rotation": [
        0.408711731433868,
        0.00774386478587985,
        0.0140158385038376,
        0.912523031234741
      ],
      "scale": [
        1.0,
        1.0,
        1.0
      ],
      "children": [
        29
      ]
    },
    {
      "name": "hand_r",
      "translation": [
        3.47442324910574E-10,
        0.159406006336212,
        -3.07208203320641E-10
      ],
      "rotation": [
        0.104263834655285,
        -0.438944548368454,
        0.0203837938606739,
        0.892211437225342
      ],
      "scale": [
        1.0,
        1.0,
        1.0
      ],
      "children": [
        30,
        33,
        36,
        39,
        42
      ]
    },
    {
      "name": "index_01_r",
      "translation": [
        0.00829361751675606,
        0.0698074921965599,
        0.0059152957983315
      ],
      "rotation": [
        0.114086680114269,
        -0.471333056688309,
        0.00426952727138996,
        0.874534785747528
      ],
      "scale": [
        1.0,
        1.0,
        1.0
      ],
      "children": [
        31
      ]
    },
    {
      "name": "index_02_r",
      "translation": [
        -9.43695610544637E-9,
        0.0169731806963682,
        1.27618209333491E-8
      ],
      "rotation": [
        0.111707873642445,
        -0.00284116319380701,
        -0.00394542049616575,
        0.993729174137115
      ],
      "scale": [
        1.0,
        1.0,
        1.0
      ],
      "children": [
        32
      ]
    },
    {
      "name": "index_03_r",
      "translation": [
        9.60253654369581E-9,
        0.0151685392484069,
        -1.02377066824033E-8
      ],
      "rotation": [
        0.0646414458751678,
        -0.000106246465293225,
        -0.0197734497487545,
        0.9977126121521
      ],
      "scale": [
        1.0,
        1.0,
        1.0
      ]
    },
    {
      "name": "middle_01_r",
      "translation": [
        -0.00220141839236021,
        0.0673269554972649,
        -0.00782815273851156
      ],
      "rotation": [
        0.101809591054916,
        -0.406162977218628,
        0.155681550502777,
        0.894667387008667
      ],
      "scale": [
        1.0,
        1.0,
        1.0
      ],
      "children": [
        34
      ]
    },
    {
      "name": "middle_02_r",
      "translation": [
        -8.09314570915376E-9,
        0.022141033783555,
        9.80834524710872E-9
      ],
      "rotation": [
        0.0465312674641609,
        -0.00147796224337071,
        -0.037143275141716,
        0.998224914073944
      ],
      "scale": [
        1.0,
        1.0,
        1.0
      ],
      "children": [
        35
      ]
    },
    {
      "name": "middle_03_r",
      "translation": [
        9.25799170659047E-9,
        0.0183738600462675,
        -8.45887448974736E-9
      ],
      "rotation": [
        0.0819551944732666,
        -0.00000648954710413818,
        0.00549985468387604,
        0.996620833873749
      ],
      "scale": [
        1.0,
        1.0,
        1.0
      ]
    },
    {
      "name": "pinky_01_r",
      "translation": [
        -0.0223794709891081,
        0.0549452714622021,
        -0.0209635011851788
      ],
      "rotation": [
        0.0421646572649479,
        -0.298030406236649,
        0.302551299333572,
        0.904357612133026
      ],
      "scale": [
        1.0,
        1.0,
        1.0
      ],
      "children": [
        37
      ]
    },
    {
      "name": "pinky_02_r",
      "translation": [
        -5.81260550802654E-9,
        0.0140718398615718,
        7.4342136890948E-9
      ],
      "rotation": [
        0.103166714310646,
        -0.000995898153632879,
        -0.0247001610696316,
        0.994356870651245
      ],
      "scale": [
        1.0,
        1.0,
        1.0
      ],
      "children": [
        38
      ]
    },
    {
      "name": "pinky_03_r",
      "translation": [
        6.62163790465797E-9,
        0.0102513963356614,
        -3.77392961325995E-9
      ],
      "rotation": [
        -0.00327005656436086,
        -0.00000553323252461269,
        0.0134847825393081,
        0.999903738498688
      ],
      "scale": [
        1.0,
        1.0,
        1.0
      ]
    },
    {
      "name": "ring_01_r",
      "translation": [
        -0.0114176953211427,
        0.0621890872716904,
        -0.0160055961459875
      ],
      "rotation": [
        0.049739308655262,
        -0.383103162050247,
        0.23295983672142,
        0.892461597919464
      ],
      "scale": [
        1.0,
        1.0,
        1.0
      ],
      "children": [
        40
      ]
    },
    {
      "name": "ring_02_r",
      "translation": [
        5.08089292861058E-10,
        0.0196517836302519,
        -4.5348398647338E-11
      ],
      "rotation": [
        0.0683437809348106,
        -0.00128115224651992,
        -0.0467141345143318,
        0.996566772460938
      ],
      "scale": [
        1.0,
        1.0,
        1.0
      ],
      "children": [
        41
      ]
    },
    {
      "name": "ring_03_r",
      "translation": [
        2.25993442709571E-11,
        0.0163808260113001,
        -4.38785709155898E-11
      ],
      "rotation": [
        0.0734803825616837,
        0.0000759852991905063,
        0.0269848555326462,
        0.996931493282318
      ],
      "scale": [
        1.0,
        1.0,
        1.0
      ]
    },
    {
      "name": "thumb_01_r",
      "translation": [
        0.00948225241154432,
        0.0264304783195257,
        0.00964019540697336
      ],
      "rotation": [
        -0.276790022850037,
        0.721520483493805,
        0.444745391607285,
        -0.452765941619873
      ],
      "scale": [
        1.0,
        1.0,
        1.0
      ],
      "children": [
        43
      ]
    },
    {
      "name": "thumb_02_r",
      "translation": [
        -1.83984449897423E-9,
        0.0203385222703218,
        -3.71460870951523E-8
      ],
      "rotation": [
        0.0735667571425438,
        0.0193494074046612,
        0.189481109380722,
        0.978933334350586
      ],
      "scale": [
        1.0,
        1.0,
        1.0
      ],
      "children": [
        44
      ]
    },
    {
      "name": "thumb_03_r",
      "translation": [
        2.73798050898222E-9,
        0.0238174833357334,
        1.76435559495758E-8
      ],
      "rotation": [
        0.1455999314785,
        0.00480640726163983,
        0.032641664147377,
        0.988793253898621
      ],
      "scale": [
        1.0,
        1.0,
        1.0
      ]
    },
    {
      "name": "neck_01",
      "translation": [
        -4.6396350303346E-12,
        0.197302743792534,
        0.0427779890596867
      ],
      "rotation": [
        0.26103749871254,
        3.06965852736596E-9,
        5.60779034319836E-10,
        0.965328633785248
      ],
      "scale": [
        1.0,
        1.0,
        1.0
      ],
      "children": [
        46
      ]
    },
    {
      "name": "head",
      "translation": [
        2.17262826005095E-17,
        0.0733452886343002,
        -3.93860100089682E-9
      ],
      "rotation": [
        -0.167147442698479,
        -3.11651149331738E-9,
        -3.67362723574516E-10,
        0.985931932926178
      ],
      "scale": [
        1.0,
        1.0,
        1.0
      ]
    },
    {
      "name": "thigh_l",
      "translation": [
        0.0650153085589409,
        -0.0242677293717861,
        -0.0146986730396748
      ],
      "rotation": [
        0.895659863948822,
        0.136565685272217,
        -0.155742779374123,
        -0.39355742931366
      ],
      "scale": [
        1.0,
        1.0,
        1.0
      ],
      "children": [
        48
      ]
    },
    {
      "name": "calf_l",
      "translation": [
        1.87702342557827E-9,
        0.260529965162277,
        -8.59295523625292E-10
      ],
      "rotation": [
        0.0735614150762558,
        0.216267317533493,
        -0.00504386378452182,
        0.973545968532562
      ],
      "scale": [
        1.0,
        1.0,
        1.0
      ],
      "children": [
        49
      ]
    },
    {
      "name": "foot_l",
      "translation": [
        -6.33099794811187E-10,
        0.250478804111481,
        -6.47647768747817E-10
      ],
      "rotation": [
        -0.540360748767853,
        -1.04992764704548E-7,
        -1.3156460454411E-7,
        0.841433465480804
      ],
      "scale": [
        1.0,
        1.0,
        1.0
      ],
      "children": [
        50
      ]
    },
    {
      "name": "ball_l",
      "translation": [
        -1.71877026500233E-10,
        0.0799132585525513,
        1.06311093261979E-9
      ],
      "rotation": [
        -0.2801633477211,
        0.0192222855985165,
        0.0238104071468115,
        0.959464490413666
      ],
      "scale": [
        1.0,
        1.0,
        1.0
      ]
    },
    {
      "name": "thigh_r",
      "translation": [
        -0.0650153085589409,
        -0.0242677293717861,
        -0.0146986730396748
      ],
      "rotation": [
        0.895659863948822,
        -0.136565685272217,
        0.155742779374123,
        -0.39355742931366
      ],
      "scale": [
        1.0,
        1.0,
        1.0
      ],
      "children": [
        52
      ]
    },
    {
      "name": "calf_r",
      "translation": [
        -1.87702342557827E-9,
        0.260529965162277,
        -8.59295523625292E-10
      ],
      "rotation": [
        0.0735614150762558,
        -0.216267317533493,
        0.00504386378452182,
        0.973545968532562
      ],
      "scale": [
        1.0,
        1.0,
        1.0
      ],
      "children": [
        53
      ]
    },
    {
      "name": "foot_r",
      "translation": [
        6.33099794811187E-10,
        0.250478804111481,
        -6.47647768747817E-10
      ],
      "rotation": [
        -0.540360748767853,
        1.04992764704548E-7,
        1.3156460454411E-7,
        0.841433465480804
      ],
      "scale": [
        1.0,
        1.0,
        1.0
      ],
      "children": [
        54
      ]
    },
    {
      "name": "ball_r",
      "translation": [
        1.71877012622446E-10,
        0.0799132585525513,
        1.06311093261979E-9
      ],
      "rotation": [
        -0.2801633477211,
        -0.0192222855985165,
        -0.0238104071468115,
        0.959464490413666
      ],
      "scale": [
        1.0,
        1.0,
        1.0
      ]
    },
    {
      "name": "child_femaleMesh",
      "translation": [
        0.0,
        0.0,
        0.0
      ],
      "rotation": [
        0.0,
        0.0,
        0.0,
        1.0
      ],
      "scale": [
        10.0,
        10.0,
        10.0
      ],
      "mesh": 0,
      "skin": 0
    },
    {
      "name": "high-polyMesh",
      "translation": [
        0.0,
        0.0,
        0.0
      ],
      "rotation": [
        0.0,
        0.0,
        0.0,
        1.0
      ],
      "scale": [
        10.0,
        10.0,
        10.0
      ],
      "mesh": 1,
      "skin": 1
    }
  ]
}
