{
  "asset": {
    "generator": "FBX2glTF v0.13.1",
    "version": "2.0"
  },
  "scene": 0,
  "buffers": [
    {
      "byteLength": 1236492,
      "uri": "child-male0.bin"
    }
  ],
  "bufferViews": [
    {
      "buffer": 0,
      "byteLength": 160536,
      "byteOffset": 0,
      "target": 34963
    },
    {
      "buffer": 0,
      "byteLength": 174204,
      "byteOffset": 160536,
      "target": 34962
    },
    {
      "buffer": 0,
      "byteLength": 116136,
      "byteOffset": 334740,
      "target": 34962
    },
    {
      "buffer": 0,
      "byteLength": 116136,
      "byteOffset": 450876,
      "target": 34962
    },
    {
      "buffer": 0,
      "byteLength": 116136,
      "byteOffset": 567012,
      "target": 34962
    },
    {
      "buffer": 0,
      "byteLength": 232272,
      "byteOffset": 683148,
      "target": 34962
    },
    {
      "buffer": 0,
      "byteLength": 232272,
      "byteOffset": 915420,
      "target": 34962
    },
    {
      "buffer": 0,
      "byteLength": 12240,
      "byteOffset": 1147692,
      "target": 34963
    },
    {
      "buffer": 0,
      "byteLength": 12912,
      "byteOffset": 1159932,
      "target": 34962
    },
    {
      "buffer": 0,
      "byteLength": 8608,
      "byteOffset": 1172844,
      "target": 34962
    },
    {
      "buffer": 0,
      "byteLength": 8608,
      "byteOffset": 1181452,
      "target": 34962
    },
    {
      "buffer": 0,
      "byteLength": 8608,
      "byteOffset": 1190060,
      "target": 34962
    },
    {
      "buffer": 0,
      "byteLength": 17216,
      "byteOffset": 1198668,
      "target": 34962
    },
    {
      "buffer": 0,
      "byteLength": 17216,
      "byteOffset": 1215884,
      "target": 34962
    },
    {
      "buffer": 0,
      "byteLength": 3328,
      "byteOffset": 1233100
    },
    {
      "buffer": 0,
      "byteLength": 64,
      "byteOffset": 1236428
    }
  ],
  "scenes": [
    {
      "name": "Root Scene",
      "nodes": [
        0
      ]
    }
  ],
  "accessors": [
    {
      "componentType": 5123,
      "type": "SCALAR",
      "count": 80268,
      "bufferView": 0,
      "byteOffset": 0
    },
    {
      "componentType": 5126,
      "type": "VEC3",
      "count": 14517,
      "bufferView": 1,
      "byteOffset": 0,
      "min": [
        -0.370321869850159,
        0.000614624004811049,
        -0.0722256600856781
      ],
      "max": [
        0.370321869850159,
        1.18977963924408,
        0.241223335266113
      ]
    },
    {
      "componentType": 5126,
      "type": "VEC2",
      "count": 14517,
      "bufferView": 2,
      "byteOffset": 0
    },
    {
      "componentType": 5123,
      "type": "VEC4",
      "count": 14517,
      "bufferView": 3,
      "byteOffset": 0
    },
    {
      "componentType": 5123,
      "type": "VEC4",
      "count": 14517,
      "bufferView": 4,
      "byteOffset": 0
    },
    {
      "componentType": 5126,
      "type": "VEC4",
      "count": 14517,
      "bufferView": 5,
      "byteOffset": 0
    },
    {
      "componentType": 5126,
      "type": "VEC4",
      "count": 14517,
      "bufferView": 6,
      "byteOffset": 0
    },
    {
      "componentType": 5123,
      "type": "SCALAR",
      "count": 6120,
      "bufferView": 7,
      "byteOffset": 0
    },
    {
      "componentType": 5126,
      "type": "VEC3",
      "count": 1076,
      "bufferView": 8,
      "byteOffset": 0,
      "min": [
        -0.0394742824137211,
        1.08078324794769,
        0.0950979590415955
      ],
      "max": [
        0.0394742824137211,
        1.10871529579163,
        0.117614313960075
      ]
    },
    {
      "componentType": 5126,
      "type": "VEC2",
      "count": 1076,
      "bufferView": 9,
      "byteOffset": 0
    },
    {
      "componentType": 5123,
      "type": "VEC4",
      "count": 1076,
      "bufferView": 10,
      "byteOffset": 0
    },
    {
      "componentType": 5123,
      "type": "VEC4",
      "count": 1076,
      "bufferView": 11,
      "byteOffset": 0
    },
    {
      "componentType": 5126,
      "type": "VEC4",
      "count": 1076,
      "bufferView": 12,
      "byteOffset": 0
    },
    {
      "componentType": 5126,
      "type": "VEC4",
      "count": 1076,
      "bufferView": 13,
      "byteOffset": 0
    },
    {
      "componentType": 5126,
      "type": "MAT4",
      "count": 52,
      "bufferView": 14,
      "byteOffset": 0
    },
    {
      "componentType": 5126,
      "type": "MAT4",
      "count": 1,
      "bufferView": 15,
      "byteOffset": 0
    }
  ],
  "images": [
    {
      "name": "brown_eye.png",
      "uri": "brown_eye.png"
    }
  ],
  "samplers": [
    {}
  ],
  "textures": [
    {
      "name": "brown_eye_png",
      "sampler": 0,
      "source": 0
    }
  ],
  "materials": [
    {
      "name": "child_male",
      "alphaMode": "OPAQUE",
      "doubleSided": false,
      "extras": {
        "fromFBX": {
          "shadingModel": "Phong",
          "isTruePBR": false
        }
      },
      "pbrMetallicRoughness": {
        "baseColorFactor": [
          0.590333342552185,
          0.439999997615814,
          0.337999999523163,
          1.0
        ],
        "metallicFactor": 0.400000005960464,
        "roughnessFactor": 0.821994960308075
      }
    },
    {
      "name": "high-poly",
      "alphaMode": "BLEND",
      "doubleSided": false,
      "extras": {
        "fromFBX": {
          "shadingModel": "Phong",
          "isTruePBR": false
        }
      },
      "pbrMetallicRoughness": {
        "baseColorTexture": {
          "index": 0,
          "texCoord": 0
        },
        "baseColorFactor": [
          1.0,
          1.0,
          1.0,
          1.0
        ],
        "metallicFactor": 0.400000005960464,
        "roughnessFactor": 0.816496610641479
      }
    }
  ],
  "meshes": [
    {
      "name": "child_maleMesh",
      "primitives": [
        {
          "material": 0,
          "mode": 4,
          "attributes": {
            "JOINTS_0": 3,
            "JOINTS_1": 4,
            "POSITION": 1,
            "TEXCOORD_0": 2,
            "WEIGHTS_0": 5,
            "WEIGHTS_1": 6
          },
          "indices": 0
        }
      ]
    },
    {
      "name": "high-polyMesh",
      "primitives": [
        {
          "material": 1,
          "mode": 4,
          "attributes": {
            "JOINTS_0": 10,
            "JOINTS_1": 11,
            "POSITION": 8,
            "TEXCOORD_0": 9,
            "WEIGHTS_0": 12,
            "WEIGHTS_1": 13
          },
          "indices": 7
        }
      ]
    }
  ],
  "skins": [
    {
      "joints": [
        3,
        4,
        47,
        51,
        5,
        48,
        52,
        6,
        49,
        53,
        7,
        26,
        45,
        50,
        54,
        8,
        27,
        46,
        9,
        28,
        10,
        29,
        11,
        14,
        17,
        20,
        23,
        30,
        33,
        36,
        39,
        42,
        12,
        15,
        18,
        21,
        24,
        31,
        34,
        37,
        40,
        43,
        13,
        16,
        19,
        22,
        25,
        32,
        35,
        38,
        41,
        44
      ],
      "inverseBindMatrices": 14,
      "skeleton": 3
    },
    {
      "joints": [
        46
      ],
      "inverseBindMatrices": 15,
      "skeleton": 46
    },
    {
      "joints": [
        2,
        3,
        4,
        5,
        6,
        7,
        8,
        9,
        10,
        11,
        12,
        13,
        14,
        15,
        16,
        17,
        18,
        19,
        20,
        21,
        22,
        23,
        24,
        25,
        26,
        27,
        28,
        29,
        30,
        31,
        32,
        33,
        34,
        35,
        36,
        37,
        38,
        39,
        40,
        41,
        42,
        43,
        44,
        45,
        46,
        47,
        48,
        49,
        50,
        51,
        52,
        53,
        54
      ]
    }
  ],
  "nodes": [
    {
      "name": "RootNode",
      "translation": [
        0.0,
        0.0,
        0.0
      ],
      "rotation": [
        0.0,
        0.0,
        0.0,
        1.0
      ],
      "scale": [
        1.0,
        1.0,
        1.0
      ],
      "children": [
        1,
        55,
        56
      ]
    },
    {
      "name": "Game_engine",
      "translation": [
        0.0,
        0.0,
        0.0
      ],
      "rotation": [
        0.0,
        0.0,
        0.0,
        1.0
      ],
      "scale": [
        10.0,
        10.0,
        10.0
      ],
      "children": [
        2
      ]
    },
    {
      "name": "Root",
      "translation": [
        0.0,
        0.0,
        -0.0252578612416983
      ],
      "rotation": [
        0.5,
        0.5,
        0.5,
        0.5
      ],
      "scale": [
        1.0,
        1.0,
        1.0
      ],
      "children": [
        3
      ]
    },
    {
      "name": "pelvis",
      "translation": [
        0.604473114013672,
        0.0295044872909784,
        -7.39557082114309E-34
      ],
      "rotation": [
        0.5827397108078,
        0.400517731904984,
        0.5827397108078,
        -0.400517731904984
      ],
      "scale": [
        1.0,
        1.0,
        1.0
      ],
      "children": [
        4,
        47,
        51
      ]
    },
    {
      "name": "spine_01",
      "translation": [
        7.88860887588597E-33,
        0.0658547133207321,
        5.24489740527656E-9
      ],
      "rotation": [
        0.252921789884567,
        -6.35228477913527E-33,
        6.81015075720459E-35,
        0.96748673915863
      ],
      "scale": [
        1.0,
        1.0,
        1.0
      ],
      "children": [
        5
      ]
    },
    {
      "name": "spine_02",
      "translation": [
        0.0,
        0.0525530427694321,
        8.49768433397458E-9
      ],
      "rotation": [
        -0.0926267430186272,
        7.13570472122542E-35,
        -7.67060068339201E-34,
        0.995700895786285
      ],
      "scale": [
        1.0,
        1.0,
        1.0
      ],
      "children": [
        6
      ]
    },
    {
      "name": "spine_03",
      "translation": [
        -3.94430443794298E-33,
        0.045956090092659,
        5.12656417317459E-10
      ],
      "rotation": [
        -0.108570270240307,
        1.52393694885511E-10,
        4.04417471733254E-10,
        0.994088768959045
      ],
      "scale": [
        1.0,
        1.0,
        1.0
      ],
      "children": [
        7,
        26,
        45
      ]
    },
    {
      "name": "clavicle_l",
      "translation": [
        0.0161040835082531,
        0.163991183042526,
        0.0847030878067017
      ],
      "rotation": [
        -0.0138285700231791,
        0.123276390135288,
        -0.782096922397614,
        0.610684931278229
      ],
      "scale": [
        1.0,
        1.0,
        1.0
      ],
      "children": [
        8
      ]
    },
    {
      "name": "upperarm_l",
      "translation": [
        1.69551590545325E-8,
        0.113581083714962,
        -7.72089003842069E-10
      ],
      "rotation": [
        0.040080301463604,
        0.0248384028673172,
        -0.286565601825714,
        0.956899583339691
      ],
      "scale": [
        1.0,
        1.0,
        1.0
      ],
      "children": [
        9
      ]
    },
    {
      "name": "lowerarm_l",
      "translation": [
        5.00547381321326E-9,
        0.163429349660873,
        -5.85952730780548E-10
      ],
      "rotation": [
        0.385073155164719,
        -0.00450510485097766,
        -0.0134876742959023,
        0.922776520252228
      ],
      "scale": [
        1.0,
        1.0,
        1.0
      ],
      "children": [
        10
      ]
    },
    {
      "name": "hand_l",
      "translation": [
        -1.66951057423148E-8,
        0.170198947191238,
        2.07975006105698E-8
      ],
      "rotation": [
        0.0937484949827194,
        0.444184511899948,
        0.0235261432826519,
        0.890706360340118
      ],
      "scale": [
        1.0,
        1.0,
        1.0
      ],
      "children": [
        11,
        14,
        17,
        20,
        23
      ]
    },
    {
      "name": "index_01_l",
      "translation": [
        -0.00475149182602763,
        0.074116162955761,
        0.0101673044264317
      ],
      "rotation": [
        0.149113997817039,
        0.463416218757629,
        -0.0162544213235378,
        0.87335342168808
      ],
      "scale": [
        1.0,
        1.0,
        1.0
      ],
      "children": [
        12
      ]
    },
    {
      "name": "index_02_l",
      "translation": [
        9.2011545049786E-9,
        0.0181444864720106,
        1.25005295004144E-8
      ],
      "rotation": [
        0.10952565819025,
        0.00301907700486481,
        0.00383886508643627,
        0.993971943855286
      ],
      "scale": [
        1.0,
        1.0,
        1.0
      ],
      "children": [
        13
      ]
    },
    {
      "name": "index_03_l",
      "translation": [
        -1.88531181777307E-8,
        0.0162661541253328,
        -2.05680308340561E-8
      ],
      "rotation": [
        0.0750320851802826,
        0.000121048287837766,
        0.0220192782580853,
        0.996937990188599
      ],
      "scale": [
        1.0,
        1.0,
        1.0
      ]
    },
    {
      "name": "middle_01_l",
      "translation": [
        0.00643133139237761,
        0.0716370120644569,
        -0.00439001619815826
      ],
      "rotation": [
        0.136590644717216,
        0.405085861682892,
        -0.168382421135902,
        0.88819807767868
      ],
      "scale": [
        1.0,
        1.0,
        1.0
      ],
      "children": [
        15
      ]
    },
    {
      "name": "middle_02_l",
      "translation": [
        -8.16526224411973E-9,
        0.0236960910260677,
        -1.02728190398693E-8
      ],
      "rotation": [
        0.057763047516346,
        0.00182177301030606,
        0.0364185161888599,
        0.997664153575897
      ],
      "scale": [
        1.0,
        1.0,
        1.0
      ],
      "children": [
        16
      ]
    },
    {
      "name": "middle_03_l",
      "translation": [
        8.83656525729748E-9,
        0.0193634741008282,
        8.16471779074845E-9
      ],
      "rotation": [
        0.068714015185833,
        0.00000405290165872429,
        -0.00500534474849701,
        0.997623860836029
      ],
      "scale": [
        1.0,
        1.0,
        1.0
      ]
    },
    {
      "name": "pinky_01_l",
      "translation": [
        0.0271939560770988,
        0.0578924231231213,
        -0.0189526043832302
      ],
      "rotation": [
        0.0789349600672722,
        0.300382733345032,
        -0.318757683038712,
        0.895507156848907
      ],
      "scale": [
        1.0,
        1.0,
        1.0
      ],
      "children": [
        18
      ]
    },
    {
      "name": "pinky_02_l",
      "translation": [
        -8.74294769914741E-9,
        0.0150071512907743,
        -1.09345892340684E-8
      ],
      "rotation": [
        0.101512379944324,
        0.000742901582270861,
        0.0231844782829285,
        0.994563817977905
      ],
      "scale": [
        1.0,
        1.0,
        1.0
      ],
      "children": [
        19
      ]
    },
    {
      "name": "pinky_03_l",
      "translation": [
        6.92888102449274E-9,
        0.0108908219262958,
        3.9748844216092E-9
      ],
      "rotation": [
        -0.00190287490841001,
        0.00000339316284225788,
        -0.0142325945198536,
        0.999896883964539
      ],
      "scale": [
        1.0,
        1.0,
        1.0
      ]
    },
    {
      "name": "ring_01_l",
      "translation": [
        0.0158923100680113,
        0.0660059973597527,
        -0.0133725879713893
      ],
      "rotation": [
        0.0897636190056801,
        0.383281111717224,
        -0.249472752213478,
        0.884760677814484
      ],
      "scale": [
        1.0,
        1.0,
        1.0
      ],
      "children": [
        21
      ]
    },
    {
      "name": "ring_02_l",
      "translation": [
        6.94588120353501E-9,
        0.021004194393754,
        9.73087566080721E-9
      ],
      "rotation": [
        0.0676418617367744,
        0.00129329029005021,
        0.0465356223285198,
        0.996622979640961
      ],
      "scale": [
        1.0,
        1.0,
        1.0
      ],
      "children": [
        22
      ]
    },
    {
      "name": "ring_03_l",
      "translation": [
        -7.23537230129523E-9,
        0.0173949133604765,
        -7.36140348678305E-9
      ],
      "rotation": [
        0.0669242963194847,
        -0.0000637122138869017,
        -0.0265271626412868,
        0.997405350208282
      ],
      "scale": [
        1.0,
        1.0,
        1.0
      ]
    },
    {
      "name": "thumb_01_l",
      "translation": [
        -0.00996325816959143,
        0.0287805143743753,
        0.0103345233947039
      ],
      "rotation": [
        0.339855968952179,
        0.686525642871857,
        0.449324101209641,
        0.459661096334457
      ],
      "scale": [
        1.0,
        1.0,
        1.0
      ],
      "children": [
        24
      ]
    },
    {
      "name": "thumb_02_l",
      "translation": [
        1.10552206278314E-10,
        0.022338017821312,
        1.84366761857291E-8
      ],
      "rotation": [
        0.0526851937174797,
        -0.0157378446310759,
        -0.213992118835449,
        0.975286602973938
      ],
      "scale": [
        1.0,
        1.0,
        1.0
      ],
      "children": [
        25
      ]
    },
    {
      "name": "thumb_03_l",
      "translation": [
        -2.09922657035122E-9,
        0.0254588574171066,
        1.7763662540915E-8
      ],
      "rotation": [
        0.149125337600708,
        -0.0055414536036551,
        -0.0367176122963428,
        0.988120794296265
      ],
      "scale": [
        1.0,
        1.0,
        1.0
      ]
    },
    {
      "name": "clavicle_r",
      "translation": [
        -0.0161040835082531,
        0.163991183042526,
        0.0847030878067017
      ],
      "rotation": [
        -0.0138285700231791,
        -0.123276390135288,
        0.782096922397614,
        0.610684931278229
      ],
      "scale": [
        1.0,
        1.0,
        1.0
      ],
      "children": [
        27
      ]
    },
    {
      "name": "upperarm_r",
      "translation": [
        -1.69551590545325E-8,
        0.113581083714962,
        -7.72089003842069E-10
      ],
      "rotation": [
        0.040080301463604,
        -0.0248384028673172,
        0.286565601825714,
        0.956899583339691
      ],
      "scale": [
        1.0,
        1.0,
        1.0
      ],
      "children": [
        28
      ]
    },
    {
      "name": "lowerarm_r",
      "translation": [
        -5.00547381321326E-9,
        0.163429349660873,
        -5.85952730780548E-10
      ],
      "rotation": [
        0.385073155164719,
        0.00450510485097766,
        0.0134876742959023,
        0.922776520252228
      ],
      "scale": [
        1.0,
        1.0,
        1.0
      ],
      "children": [
        29
      ]
    },
    {
      "name": "hand_r",
      "translation": [
        1.66951057423148E-8,
        0.170198947191238,
        2.07975006105698E-8
      ],
      "rotation": [
        0.0937484949827194,
        -0.444184511899948,
        -0.0235261432826519,
        0.890706360340118
      ],
      "scale": [
        1.0,
        1.0,
        1.0
      ],
      "children": [
        30,
        33,
        36,
        39,
        42
      ]
    },
    {
      "name": "index_01_r",
      "translation": [
        0.00475149182602763,
        0.074116162955761,
        0.0101673044264317
      ],
      "rotation": [
        0.149113997817039,
        -0.463416218757629,
        0.0162544213235378,
        0.87335342168808
      ],
      "scale": [
        1.0,
        1.0,
        1.0
      ],
      "children": [
        31
      ]
    },
    {
      "name": "index_02_r",
      "translation": [
        -9.2011545049786E-9,
        0.0181444864720106,
        1.25005295004144E-8
      ],
      "rotation": [
        0.10952565819025,
        -0.00301907700486481,
        -0.00383886508643627,
        0.993971943855286
      ],
      "scale": [
        1.0,
        1.0,
        1.0
      ],
      "children": [
        32
      ]
    },
    {
      "name": "index_03_r",
      "translation": [
        1.88531181777307E-8,
        0.0162661541253328,
        -2.05680343867698E-8
      ],
      "rotation": [
        0.0750320851802826,
        -0.000121048287837766,
        -0.0220192782580853,
        0.996937990188599
      ],
      "scale": [
        1.0,
        1.0,
        1.0
      ]
    },
    {
      "name": "middle_01_r",
      "translation": [
        -0.00643133139237761,
        0.0716370120644569,
        -0.00439001619815826
      ],
      "rotation": [
        0.136590644717216,
        -0.405085861682892,
        0.168382421135902,
        0.88819807767868
      ],
      "scale": [
        1.0,
        1.0,
        1.0
      ],
      "children": [
        34
      ]
    },
    {
      "name": "middle_02_r",
      "translation": [
        8.16526224411973E-9,
        0.0236960910260677,
        -1.02728190398693E-8
      ],
      "rotation": [
        0.057763047516346,
        -0.00182177301030606,
        -0.0364185161888599,
        0.997664153575897
      ],
      "scale": [
        1.0,
        1.0,
        1.0
      ],
      "children": [
        35
      ]
    },
    {
      "name": "middle_03_r",
      "translation": [
        -8.83656525729748E-9,
        0.0193634741008282,
        8.16471779074845E-9
      ],
      "rotation": [
        0.068714015185833,
        -0.00000405290165872429,
        0.00500534474849701,
        0.997623860836029
      ],
      "scale": [
        1.0,
        1.0,
        1.0
      ]
    },
    {
      "name": "pinky_01_r",
      "translation": [
        -0.0271939560770988,
        0.0578924231231213,
        -0.0189526043832302
      ],
      "rotation": [
        0.0789349600672722,
        -0.300382733345032,
        0.318757683038712,
        0.895507156848907
      ],
      "scale": [
        1.0,
        1.0,
        1.0
      ],
      "children": [
        37
      ]
    },
    {
      "name": "pinky_02_r",
      "translation": [
        8.74294769914741E-9,
        0.0150071512907743,
        -1.09345892340684E-8
      ],
      "rotation": [
        0.101512379944324,
        -0.000742901582270861,
        -0.0231844782829285,
        0.994563817977905
      ],
      "scale": [
        1.0,
        1.0,
        1.0
      ],
      "children": [
        38
      ]
    },
    {
      "name": "pinky_03_r",
      "translation": [
        -6.92888102449274E-9,
        0.0108908219262958,
        3.9748844216092E-9
      ],
      "rotation": [
        -0.00190287490841001,
        -0.00000339316284225788,
        0.0142325945198536,
        0.999896883964539
      ],
      "scale": [
        1.0,
        1.0,
        1.0
      ]
    },
    {
      "name": "ring_01_r",
      "translation": [
        -0.0158923100680113,
        0.0660059973597527,
        -0.0133725879713893
      ],
      "rotation": [
        0.0897636190056801,
        -0.383281111717224,
        0.249472752213478,
        0.884760677814484
      ],
      "scale": [
        1.0,
        1.0,
        1.0
      ],
      "children": [
        40
      ]
    },
    {
      "name": "ring_02_r",
      "translation": [
        -6.94588120353501E-9,
        0.021004194393754,
        9.73087566080721E-9
      ],
      "rotation": [
        0.0676418617367744,
        -0.00129329029005021,
        -0.0465356223285198,
        0.996622979640961
      ],
      "scale": [
        1.0,
        1.0,
        1.0
      ],
      "children": [
        41
      ]
    },
    {
      "name": "ring_03_r",
      "translation": [
        7.23537230129523E-9,
        0.0173949133604765,
        -7.36140348678305E-9
      ],
      "rotation": [
        0.0669242963194847,
        0.0000637122138869017,
        0.0265271626412868,
        0.997405350208282
      ],
      "scale": [
        1.0,
        1.0,
        1.0
      ]
    },
    {
      "name": "thumb_01_r",
      "translation": [
        0.00996325816959143,
        0.0287805143743753,
        0.0103345233947039
      ],
      "rotation": [
        -0.339855968952179,
        0.686525642871857,
        0.449324101209641,
        -0.459661096334457
      ],
      "scale": [
        1.0,
        1.0,
        1.0
      ],
      "children": [
        43
      ]
    },
    {
      "name": "thumb_02_r",
      "translation": [
        -1.10552136889375E-10,
        0.022338017821312,
        1.84366761857291E-8
      ],
      "rotation": [
        0.0526851937174797,
        0.0157378446310759,
        0.213992118835449,
        0.975286602973938
      ],
      "scale": [
        1.0,
        1.0,
        1.0
      ],
      "children": [
        44
      ]
    },
    {
      "name": "thumb_03_r",
      "translation": [
        2.09922679239583E-9,
        0.0254588574171066,
        1.7763662540915E-8
      ],
      "rotation": [
        0.149125337600708,
        0.0055414536036551,
        0.0367176122963428,
        0.988120794296265
      ],
      "scale": [
        1.0,
        1.0,
        1.0
      ]
    },
    {
      "name": "neck_01",
      "translation": [
        1.63331376201725E-10,
        0.215137988328934,
        0.0779394879937172
      ],
      "rotation": [
        0.338487297296524,
        -2.83342183049484E-10,
        -3.71990382941334E-10,
        0.940970957279205
      ],
      "scale": [
        1.0,
        1.0,
        1.0
      ],
      "children": [
        46
      ]
    },
    {
      "name": "head",
      "translation": [
        1.27484300524848E-18,
        0.07396300137043,
        1.48367638175273E-8
      ],
      "rotation": [
        -0.215655028820038,
        4.19513798699533E-11,
        9.26503578718707E-12,
        0.97646963596344
      ],
      "scale": [
        1.0,
        1.0,
        1.0
      ]
    },
    {
      "name": "thigh_l",
      "translation": [
        0.0749875605106354,
        0.00278638512827456,
        -0.00548755889758468
      ],
      "rotation": [
        0.969648063182831,
        0.0685463771224022,
        -0.213089555501938,
        -0.098370797932148
      ],
      "scale": [
        1.0,
        1.0,
        1.0
      ],
      "children": [
        48
      ]
    },
    {
      "name": "calf_l",
      "translation": [
        8.28302093580646E-10,
        0.273220419883728,
        -2.65695576651126E-9
      ],
      "rotation": [
        0.114077150821686,
        0.237085267901421,
        -0.0424080640077591,
        0.963835299015045
      ],
      "scale": [
        1.0,
        1.0,
        1.0
      ],
      "children": [
        49
      ]
    },
    {
      "name": "foot_l",
      "translation": [
        -2.42536435379748E-9,
        0.291373640298843,
        -7.39804884020145E-10
      ],
      "rotation": [
        -0.557814717292786,
        5.38830526863876E-8,
        1.42287746029979E-7,
        0.829965531826019
      ],
      "scale": [
        1.0,
        1.0,
        1.0
      ],
      "children": [
        50
      ]
    },
    {
      "name": "ball_l",
      "translation": [
        -3.74077635187375E-12,
        0.0920866653323174,
        -5.06894248797352E-10
      ],
      "rotation": [
        -0.312176883220673,
        0.0197464227676392,
        0.000435829482739791,
        0.949818670749664
      ],
      "scale": [
        1.0,
        1.0,
        1.0
      ]
    },
    {
      "name": "thigh_r",
      "translation": [
        -0.0749875605106354,
        0.00278638512827456,
        -0.00548755889758468
      ],
      "rotation": [
        0.969648063182831,
        -0.0685463771224022,
        0.213089555501938,
        -0.098370797932148
      ],
      "scale": [
        1.0,
        1.0,
        1.0
      ],
      "children": [
        52
      ]
    },
    {
      "name": "calf_r",
      "translation": [
        -8.28302093580646E-10,
        0.273220419883728,
        -2.65695576651126E-9
      ],
      "rotation": [
        0.114077150821686,
        -0.237085267901421,
        0.0424080640077591,
        0.963835299015045
      ],
      "scale": [
        1.0,
        1.0,
        1.0
      ],
      "children": [
        53
      ]
    },
    {
      "name": "foot_r",
      "translation": [
        2.42536435379748E-9,
        0.291373640298843,
        -7.39804884020145E-10
      ],
      "rotation": [
        -0.557814717292786,
        -5.38830526863876E-8,
        -1.42287746029979E-7,
        0.829965531826019
      ],
      "scale": [
        1.0,
        1.0,
        1.0
      ],
      "children": [
        54
      ]
    },
    {
      "name": "ball_r",
      "translation": [
        3.74075857095812E-12,
        0.0920866653323174,
        -5.06894248797352E-10
      ],
      "rotation": [
        -0.312176883220673,
        -0.0197464227676392,
        -0.000435829482739791,
        0.949818670749664
      ],
      "scale": [
        1.0,
        1.0,
        1.0
      ]
    },
    {
      "name": "child_maleMesh",
      "translation": [
        0.0,
        0.0,
        0.0
      ],
      "rotation": [
        0.0,
        0.0,
        0.0,
        1.0
      ],
      "scale": [
        10.0,
        10.0,
        10.0
      ],
      "mesh": 0,
      "skin": 0
    },
    {
      "name": "high-polyMesh",
      "translation": [
        0.0,
        0.0,
        0.0
      ],
      "rotation": [
        0.0,
        0.0,
        0.0,
        1.0
      ],
      "scale": [
        10.0,
        10.0,
        10.0
      ],
      "mesh": 1,
      "skin": 1
    }
  ]
}
