{
  "asset": {
    "generator": "FBX2glTF v0.13.1",
    "version": "2.0"
  },
  "scene": 0,
  "buffers": [
    {
      "byteLength": 1236492,
      "uri": "heavy-female0.bin"
    }
  ],
  "bufferViews": [
    {
      "buffer": 0,
      "byteLength": 160536,
      "byteOffset": 0,
      "target": 34963
    },
    {
      "buffer": 0,
      "byteLength": 174204,
      "byteOffset": 160536,
      "target": 34962
    },
    {
      "buffer": 0,
      "byteLength": 116136,
      "byteOffset": 334740,
      "target": 34962
    },
    {
      "buffer": 0,
      "byteLength": 116136,
      "byteOffset": 450876,
      "target": 34962
    },
    {
      "buffer": 0,
      "byteLength": 116136,
      "byteOffset": 567012,
      "target": 34962
    },
    {
      "buffer": 0,
      "byteLength": 232272,
      "byteOffset": 683148,
      "target": 34962
    },
    {
      "buffer": 0,
      "byteLength": 232272,
      "byteOffset": 915420,
      "target": 34962
    },
    {
      "buffer": 0,
      "byteLength": 12240,
      "byteOffset": 1147692,
      "target": 34963
    },
    {
      "buffer": 0,
      "byteLength": 12912,
      "byteOffset": 1159932,
      "target": 34962
    },
    {
      "buffer": 0,
      "byteLength": 8608,
      "byteOffset": 1172844,
      "target": 34962
    },
    {
      "buffer": 0,
      "byteLength": 8608,
      "byteOffset": 1181452,
      "target": 34962
    },
    {
      "buffer": 0,
      "byteLength": 8608,
      "byteOffset": 1190060,
      "target": 34962
    },
    {
      "buffer": 0,
      "byteLength": 17216,
      "byteOffset": 1198668,
      "target": 34962
    },
    {
      "buffer": 0,
      "byteLength": 17216,
      "byteOffset": 1215884,
      "target": 34962
    },
    {
      "buffer": 0,
      "byteLength": 3328,
      "byteOffset": 1233100
    },
    {
      "buffer": 0,
      "byteLength": 64,
      "byteOffset": 1236428
    }
  ],
  "scenes": [
    {
      "name": "Root Scene",
      "nodes": [
        0
      ]
    }
  ],
  "accessors": [
    {
      "componentType": 5123,
      "type": "SCALAR",
      "count": 80268,
      "bufferView": 0,
      "byteOffset": 0
    },
    {
      "componentType": 5126,
      "type": "VEC3",
      "count": 14517,
      "bufferView": 1,
      "byteOffset": 0,
      "min": [
        -0.482266157865524,
        -0.000434951769420877,
        -0.110178239643574
      ],
      "max": [
        0.482266157865524,
        1.57002103328705,
        0.313331812620163
      ]
    },
    {
      "componentType": 5126,
      "type": "VEC2",
      "count": 14517,
      "bufferView": 2,
      "byteOffset": 0
    },
    {
      "componentType": 5123,
      "type": "VEC4",
      "count": 14517,
      "bufferView": 3,
      "byteOffset": 0
    },
    {
      "componentType": 5123,
      "type": "VEC4",
      "count": 14517,
      "bufferView": 4,
      "byteOffset": 0
    },
    {
      "componentType": 5126,
      "type": "VEC4",
      "count": 14517,
      "bufferView": 5,
      "byteOffset": 0
    },
    {
      "componentType": 5126,
      "type": "VEC4",
      "count": 14517,
      "bufferView": 6,
      "byteOffset": 0
    },
    {
      "componentType": 5123,
      "type": "SCALAR",
      "count": 6120,
      "bufferView": 7,
      "byteOffset": 0
    },
    {
      "componentType": 5126,
      "type": "VEC3",
      "count": 1076,
      "bufferView": 8,
      "byteOffset": 0,
      "min": [
        -0.0434288382530212,
        1.45213258266449,
        0.113258026540279
      ],
      "max": [
        0.0434288345277309,
        1.48157930374146,
        0.135273456573486
      ]
    },
    {
      "componentType": 5126,
      "type": "VEC2",
      "count": 1076,
      "bufferView": 9,
      "byteOffset": 0
    },
    {
      "componentType": 5123,
      "type": "VEC4",
      "count": 1076,
      "bufferView": 10,
      "byteOffset": 0
    },
    {
      "componentType": 5123,
      "type": "VEC4",
      "count": 1076,
      "bufferView": 11,
      "byteOffset": 0
    },
    {
      "componentType": 5126,
      "type": "VEC4",
      "count": 1076,
      "bufferView": 12,
      "byteOffset": 0
    },
    {
      "componentType": 5126,
      "type": "VEC4",
      "count": 1076,
      "bufferView": 13,
      "byteOffset": 0
    },
    {
      "componentType": 5126,
      "type": "MAT4",
      "count": 52,
      "bufferView": 14,
      "byteOffset": 0
    },
    {
      "componentType": 5126,
      "type": "MAT4",
      "count": 1,
      "bufferView": 15,
      "byteOffset": 0
    }
  ],
  "images": [
    {
      "name": "brown_eye.png",
      "uri": "brown_eye.png"
    }
  ],
  "samplers": [
    {}
  ],
  "textures": [
    {
      "name": "brown_eye_png",
      "sampler": 0,
      "source": 0
    }
  ],
  "materials": [
    {
      "name": "heavy_female",
      "alphaMode": "OPAQUE",
      "doubleSided": false,
      "extras": {
        "fromFBX": {
          "shadingModel": "Phong",
          "isTruePBR": false
        }
      },
      "pbrMetallicRoughness": {
        "baseColorFactor": [
          0.590333342552185,
          0.439999997615814,
          0.337999999523163,
          1.0
        ],
        "metallicFactor": 0.400000005960464,
        "roughnessFactor": 0.821994960308075
      }
    },
    {
      "name": "high-poly",
      "alphaMode": "BLEND",
      "doubleSided": false,
      "extras": {
        "fromFBX": {
          "shadingModel": "Phong",
          "isTruePBR": false
        }
      },
      "pbrMetallicRoughness": {
        "baseColorTexture": {
          "index": 0,
          "texCoord": 0
        },
        "baseColorFactor": [
          1.0,
          1.0,
          1.0,
          1.0
        ],
        "metallicFactor": 0.400000005960464,
        "roughnessFactor": 0.816496610641479
      }
    }
  ],
  "meshes": [
    {
      "name": "heavy_femaleMesh",
      "primitives": [
        {
          "material": 0,
          "mode": 4,
          "attributes": {
            "JOINTS_0": 3,
            "JOINTS_1": 4,
            "POSITION": 1,
            "TEXCOORD_0": 2,
            "WEIGHTS_0": 5,
            "WEIGHTS_1": 6
          },
          "indices": 0
        }
      ]
    },
    {
      "name": "high-polyMesh",
      "primitives": [
        {
          "material": 1,
          "mode": 4,
          "attributes": {
            "JOINTS_0": 10,
            "JOINTS_1": 11,
            "POSITION": 8,
            "TEXCOORD_0": 9,
            "WEIGHTS_0": 12,
            "WEIGHTS_1": 13
          },
          "indices": 7
        }
      ]
    }
  ],
  "skins": [
    {
      "joints": [
        3,
        4,
        47,
        51,
        5,
        48,
        52,
        6,
        49,
        53,
        7,
        26,
        45,
        50,
        54,
        8,
        27,
        46,
        9,
        28,
        10,
        29,
        11,
        14,
        17,
        20,
        23,
        30,
        33,
        36,
        39,
        42,
        12,
        15,
        18,
        21,
        24,
        31,
        34,
        37,
        40,
        43,
        13,
        16,
        19,
        22,
        25,
        32,
        35,
        38,
        41,
        44
      ],
      "inverseBindMatrices": 14,
      "skeleton": 3
    },
    {
      "joints": [
        46
      ],
      "inverseBindMatrices": 15,
      "skeleton": 46
    },
    {
      "joints": [
        2,
        3,
        4,
        5,
        6,
        7,
        8,
        9,
        10,
        11,
        12,
        13,
        14,
        15,
        16,
        17,
        18,
        19,
        20,
        21,
        22,
        23,
        24,
        25,
        26,
        27,
        28,
        29,
        30,
        31,
        32,
        33,
        34,
        35,
        36,
        37,
        38,
        39,
        40,
        41,
        42,
        43,
        44,
        45,
        46,
        47,
        48,
        49,
        50,
        51,
        52,
        53,
        54
      ]
    }
  ],
  "nodes": [
    {
      "name": "RootNode",
      "translation": [
        0.0,
        0.0,
        0.0
      ],
      "rotation": [
        0.0,
        0.0,
        0.0,
        1.0
      ],
      "scale": [
        1.0,
        1.0,
        1.0
      ],
      "children": [
        1,
        55,
        56
      ]
    },
    {
      "name": "Game_engine",
      "translation": [
        0.0,
        0.0,
        0.0
      ],
      "rotation": [
        0.0,
        0.0,
        0.0,
        1.0
      ],
      "scale": [
        10.0,
        10.0,
        10.0
      ],
      "children": [
        2
      ]
    },
    {
      "name": "Root",
      "translation": [
        0.0,
        -0.000048828122089617,
        -0.0269030760973692
      ],
      "rotation": [
        0.499546766281128,
        0.500452816486359,
        0.499546766281128,
        0.500452816486359
      ],
      "scale": [
        1.0,
        1.0,
        1.0
      ],
      "children": [
        3
      ]
    },
    {
      "name": "pelvis",
      "translation": [
        0.817242622375488,
        0.0542770475149155,
        -4.65661259552164E-11
      ],
      "rotation": [
        0.619102418422699,
        0.341631710529327,
        0.619102418422699,
        -0.341631710529327
      ],
      "scale": [
        1.0,
        1.0,
        1.0
      ],
      "children": [
        4,
        47,
        51
      ]
    },
    {
      "name": "spine_01",
      "translation": [
        1.79964143763058E-18,
        0.085122138261795,
        5.38399769212106E-10
      ],
      "rotation": [
        0.428968250751495,
        -6.49734155366843E-10,
        1.36820743623645E-9,
        0.903319537639618
      ],
      "scale": [
        1.0,
        1.0,
        1.0
      ],
      "children": [
        5
      ]
    },
    {
      "name": "spine_02",
      "translation": [
        -2.94699471398145E-17,
        0.0656907334923744,
        7.21724768837362E-9
      ],
      "rotation": [
        -0.096297100186348,
        1.45824824437923E-10,
        -1.50792567321645E-9,
        0.995352625846863
      ],
      "scale": [
        1.0,
        1.0,
        1.0
      ],
      "children": [
        6
      ]
    },
    {
      "name": "spine_03",
      "translation": [
        -2.07684339209527E-17,
        0.0916558429598808,
        -2.53224219370907E-9
      ],
      "rotation": [
        -0.0518279857933521,
        4.08327746614923E-11,
        5.29286003914109E-10,
        0.998656034469604
      ],
      "scale": [
        1.0,
        1.0,
        1.0
      ],
      "children": [
        7,
        26,
        45
      ]
    },
    {
      "name": "clavicle_l",
      "translation": [
        0.0225200150161982,
        0.216447427868843,
        0.0130413370206952
      ],
      "rotation": [
        -0.0109078688547015,
        -0.0197660401463509,
        -0.742073953151703,
        0.66993772983551
      ],
      "scale": [
        1.0,
        1.0,
        1.0
      ],
      "children": [
        8
      ]
    },
    {
      "name": "upperarm_l",
      "translation": [
        -3.77618363245347E-8,
        0.131289109587669,
        6.27312868317631E-10
      ],
      "rotation": [
        0.00528824934735894,
        -0.00469452515244484,
        -0.351042300462723,
        0.936332881450653
      ],
      "scale": [
        1.0,
        1.0,
        1.0
      ],
      "children": [
        9
      ]
    },
    {
      "name": "lowerarm_l",
      "translation": [
        3.35438379295283E-8,
        0.225832223892212,
        -1.42754286169833E-9
      ],
      "rotation": [
        0.33185076713562,
        -0.0000725195641280152,
        -0.000143781508086249,
        0.943331897258759
      ],
      "scale": [
        1.0,
        1.0,
        1.0
      ],
      "children": [
        10
      ]
    },
    {
      "name": "hand_l",
      "translation": [
        1.50165160306415E-8,
        0.208897262811661,
        -1.12064020285629E-8
      ],
      "rotation": [
        0.123600333929062,
        0.405377417802811,
        -0.00939695537090302,
        0.905706226825714
      ],
      "scale": [
        1.0,
        1.0,
        1.0
      ],
      "children": [
        11,
        14,
        17,
        20,
        23
      ]
    },
    {
      "name": "index_01_l",
      "translation": [
        -0.0123249711468816,
        0.0959044992923737,
        0.00784983858466148
      ],
      "rotation": [
        0.106314726173878,
        0.472272604703903,
        -0.000930165813770145,
        0.875017106533051
      ],
      "scale": [
        1.0,
        1.0,
        1.0
      ],
      "children": [
        12
      ]
    },
    {
      "name": "index_02_l",
      "translation": [
        3.17797663740294E-8,
        0.0235190577805042,
        4.32663256333399E-8
      ],
      "rotation": [
        0.111432678997517,
        0.00302553921937943,
        0.00551913678646088,
        0.993752062320709
      ],
      "scale": [
        1.0,
        1.0,
        1.0
      ],
      "children": [
        13
      ]
    },
    {
      "name": "index_03_l",
      "translation": [
        -3.63420014082294E-8,
        0.0209411922842264,
        -3.83040443807658E-8
      ],
      "rotation": [
        0.0648882985115051,
        0.000110757282527629,
        0.0198408756405115,
        0.99769526720047
      ],
      "scale": [
        1.0,
        1.0,
        1.0
      ]
    },
    {
      "name": "middle_01_l",
      "translation": [
        0.00233766483142972,
        0.0923042967915535,
        -0.0110085969790816
      ],
      "rotation": [
        0.0951160788536072,
        0.405455261468887,
        -0.149720817804337,
        0.896740019321442
      ],
      "scale": [
        1.0,
        1.0,
        1.0
      ],
      "children": [
        15
      ]
    },
    {
      "name": "middle_02_l",
      "translation": [
        1.78579340204266E-9,
        0.0308435577899218,
        2.28231966659109E-9
      ],
      "rotation": [
        0.0488963462412357,
        0.00149161252193153,
        0.0363826565444469,
        0.99813985824585
      ],
      "scale": [
        1.0,
        1.0,
        1.0
      ],
      "children": [
        16
      ]
    },
    {
      "name": "middle_03_l",
      "translation": [
        -1.7199884183583E-8,
        0.0253523625433445,
        -1.59449076164719E-8
      ],
      "rotation": [
        0.0698476582765579,
        0.00000549737615074264,
        -0.00600197212770581,
        0.997539639472961
      ],
      "scale": [
        1.0,
        1.0,
        1.0
      ]
    },
    {
      "name": "pinky_01_l",
      "translation": [
        0.0300890672951937,
        0.0757322981953621,
        -0.0293023698031902
      ],
      "rotation": [
        0.0439798198640347,
        0.288939535617828,
        -0.30145788192749,
        0.9075807929039
      ],
      "scale": [
        1.0,
        1.0,
        1.0
      ],
      "children": [
        18
      ]
    },
    {
      "name": "pinky_02_l",
      "translation": [
        3.57953200413874E-9,
        0.0194398295134306,
        5.0489239455942E-9
      ],
      "rotation": [
        0.0857241675257683,
        0.000982863013632596,
        0.0257461164146662,
        0.995985686779022
      ],
      "scale": [
        1.0,
        1.0,
        1.0
      ],
      "children": [
        19
      ]
    },
    {
      "name": "pinky_03_l",
      "translation": [
        -1.88884694551916E-8,
        0.0142533434554935,
        -1.19733121195509E-8
      ],
      "rotation": [
        -0.00832345429807901,
        0.0000129539967019809,
        -0.0128262089565396,
        0.999883115291595
      ],
      "scale": [
        1.0,
        1.0,
        1.0
      ]
    },
    {
      "name": "ring_01_l",
      "translation": [
        0.0150856403633952,
        0.0855299457907677,
        -0.0223066993057728
      ],
      "rotation": [
        0.0479456372559071,
        0.383667409420013,
        -0.227211654186249,
        0.893798291683197
      ],
      "scale": [
        1.0,
        1.0,
        1.0
      ],
      "children": [
        21
      ]
    },
    {
      "name": "ring_02_l",
      "translation": [
        -5.46647127563915E-9,
        0.0271030273288488,
        -9.45470901569934E-9
      ],
      "rotation": [
        0.0665808022022247,
        0.0012079271255061,
        0.0416526421904564,
        0.996910512447357
      ],
      "scale": [
        1.0,
        1.0,
        1.0
      ],
      "children": [
        22
      ]
    },
    {
      "name": "ring_03_l",
      "translation": [
        1.52967949418326E-8,
        0.0226268135011196,
        1.58824047247208E-8
      ],
      "rotation": [
        0.0563807673752308,
        -0.0000495839776704088,
        -0.0226988904178143,
        0.998151302337646
      ],
      "scale": [
        1.0,
        1.0,
        1.0
      ]
    },
    {
      "name": "thumb_01_l",
      "translation": [
        -0.013179118745029,
        0.0357575230300426,
        0.0133942877873778
      ],
      "rotation": [
        0.266126036643982,
        0.732222557067871,
        0.44083109498024,
        0.445752173662186
      ],
      "scale": [
        1.0,
        1.0,
        1.0
      ],
      "children": [
        24
      ]
    },
    {
      "name": "thumb_02_l",
      "translation": [
        5.56189372336036E-10,
        0.0280658788979053,
        -8.98623930822851E-9
      ],
      "rotation": [
        0.0734864920377731,
        -0.018633496016264,
        -0.181182712316513,
        0.980522990226746
      ],
      "scale": [
        1.0,
        1.0,
        1.0
      ],
      "children": [
        25
      ]
    },
    {
      "name": "thumb_03_l",
      "translation": [
        -1.00706465389067E-9,
        0.0328915826976299,
        8.324938072235E-9
      ],
      "rotation": [
        0.139090031385422,
        -0.00456445524469018,
        -0.0324801281094551,
        0.989736437797546
      ],
      "scale": [
        1.0,
        1.0,
        1.0
      ]
    },
    {
      "name": "clavicle_r",
      "translation": [
        -0.0225200150161982,
        0.216447427868843,
        0.0130413370206952
      ],
      "rotation": [
        -0.0109078679233789,
        0.0197660401463509,
        0.742073953151703,
        0.66993772983551
      ],
      "scale": [
        1.0,
        1.0,
        1.0
      ],
      "children": [
        27
      ]
    },
    {
      "name": "upperarm_r",
      "translation": [
        3.77618363245347E-8,
        0.131289109587669,
        6.27312868317631E-10
      ],
      "rotation": [
        0.00528824934735894,
        0.00469452515244484,
        0.351042300462723,
        0.936332881450653
      ],
      "scale": [
        1.0,
        1.0,
        1.0
      ],
      "children": [
        28
      ]
    },
    {
      "name": "lowerarm_r",
      "translation": [
        -3.35438379295283E-8,
        0.225832223892212,
        -1.42754286169833E-9
      ],
      "rotation": [
        0.33185076713562,
        0.0000725195641280152,
        0.000143781508086249,
        0.943331897258759
      ],
      "scale": [
        1.0,
        1.0,
        1.0
      ],
      "children": [
        29
      ]
    },
    {
      "name": "hand_r",
      "translation": [
        -1.50165160306415E-8,
        0.208897262811661,
        -1.12064038049198E-8
      ],
      "rotation": [
        0.123600333929062,
        -0.405377417802811,
        0.00939695537090302,
        0.905706226825714
      ],
      "scale": [
        1.0,
        1.0,
        1.0
      ],
      "children": [
        30,
        33,
        36,
        39,
        42
      ]
    },
    {
      "name": "index_01_r",
      "translation": [
        0.0123249711468816,
        0.0959044992923737,
        0.00784983858466148
      ],
      "rotation": [
        0.106314726173878,
        -0.472272604703903,
        0.000930165813770145,
        0.875017106533051
      ],
      "scale": [
        1.0,
        1.0,
        1.0
      ],
      "children": [
        31
      ]
    },
    {
      "name": "index_02_r",
      "translation": [
        -3.17797663740294E-8,
        0.0235190577805042,
        4.32663256333399E-8
      ],
      "rotation": [
        0.111432678997517,
        -0.00302553921937943,
        -0.00551913678646088,
        0.993752062320709
      ],
      "scale": [
        1.0,
        1.0,
        1.0
      ],
      "children": [
        32
      ]
    },
    {
      "name": "index_03_r",
      "translation": [
        3.63420014082294E-8,
        0.0209411922842264,
        -3.83040443807658E-8
      ],
      "rotation": [
        0.0648882985115051,
        -0.000110757282527629,
        -0.0198408756405115,
        0.99769526720047
      ],
      "scale": [
        1.0,
        1.0,
        1.0
      ]
    },
    {
      "name": "middle_01_r",
      "translation": [
        -0.00233766483142972,
        0.0923042967915535,
        -0.0110085969790816
      ],
      "rotation": [
        0.0951160788536072,
        -0.405455261468887,
        0.149720817804337,
        0.896740019321442
      ],
      "scale": [
        1.0,
        1.0,
        1.0
      ],
      "children": [
        34
      ]
    },
    {
      "name": "middle_02_r",
      "translation": [
        -1.78579340204266E-9,
        0.0308435577899218,
        2.28231966659109E-9
      ],
      "rotation": [
        0.0488963462412357,
        -0.00149161252193153,
        -0.0363826565444469,
        0.99813985824585
      ],
      "scale": [
        1.0,
        1.0,
        1.0
      ],
      "children": [
        35
      ]
    },
    {
      "name": "middle_03_r",
      "translation": [
        1.7199884183583E-8,
        0.0253523625433445,
        -1.59449076164719E-8
      ],
      "rotation": [
        0.0698476582765579,
        -0.00000549737615074264,
        0.00600197212770581,
        0.997539639472961
      ],
      "scale": [
        1.0,
        1.0,
        1.0
      ]
    },
    {
      "name": "pinky_01_r",
      "translation": [
        -0.0300890672951937,
        0.0757322981953621,
        -0.0293023698031902
      ],
      "rotation": [
        0.0439798198640347,
        -0.288939535617828,
        0.30145788192749,
        0.9075807929039
      ],
      "scale": [
        1.0,
        1.0,
        1.0
      ],
      "children": [
        37
      ]
    },
    {
      "name": "pinky_02_r",
      "translation": [
        -3.57953200413874E-9,
        0.0194398295134306,
        5.0489239455942E-9
      ],
      "rotation": [
        0.0857241675257683,
        -0.000982863013632596,
        -0.0257461164146662,
        0.995985686779022
      ],
      "scale": [
        1.0,
        1.0,
        1.0
      ],
      "children": [
        38
      ]
    },
    {
      "name": "pinky_03_r",
      "translation": [
        1.88884694551916E-8,
        0.0142533434554935,
        -1.19733121195509E-8
      ],
      "rotation": [
        -0.00832345429807901,
        -0.0000129539967019809,
        0.0128262089565396,
        0.999883115291595
      ],
      "scale": [
        1.0,
        1.0,
        1.0
      ]
    },
    {
      "name": "ring_01_r",
      "translation": [
        -0.0150856403633952,
        0.0855299457907677,
        -0.0223066993057728
      ],
      "rotation": [
        0.0479456372559071,
        -0.383667409420013,
        0.227211654186249,
        0.893798291683197
      ],
      "scale": [
        1.0,
        1.0,
        1.0
      ],
      "children": [
        40
      ]
    },
    {
      "name": "ring_02_r",
      "translation": [
        5.46647127563915E-9,
        0.0271030273288488,
        -9.45470901569934E-9
      ],
      "rotation": [
        0.0665808022022247,
        -0.0012079271255061,
        -0.0416526421904564,
        0.996910512447357
      ],
      "scale": [
        1.0,
        1.0,
        1.0
      ],
      "children": [
        41
      ]
    },
    {
      "name": "ring_03_r",
      "translation": [
        -1.52967949418326E-8,
        0.0226268135011196,
        1.58824047247208E-8
      ],
      "rotation": [
        0.0563807673752308,
        0.0000495839776704088,
        0.0226988904178143,
        0.998151302337646
      ],
      "scale": [
        1.0,
        1.0,
        1.0
      ]
    },
    {
      "name": "thumb_01_r",
      "translation": [
        0.013179118745029,
        0.0357575230300426,
        0.0133942877873778
      ],
      "rotation": [
        -0.266126036643982,
        0.732222557067871,
        0.44083109498024,
        -0.445752173662186
      ],
      "scale": [
        1.0,
        1.0,
        1.0
      ],
      "children": [
        43
      ]
    },
    {
      "name": "thumb_02_r",
      "translation": [
        -5.56189372336036E-10,
        0.0280658788979053,
        -8.98623930822851E-9
      ],
      "rotation": [
        0.0734864920377731,
        0.018633496016264,
        0.181182712316513,
        0.980522990226746
      ],
      "scale": [
        1.0,
        1.0,
        1.0
      ],
      "children": [
        44
      ]
    },
    {
      "name": "thumb_03_r",
      "translation": [
        1.00706454286836E-9,
        0.0328915826976299,
        8.324938072235E-9
      ],
      "rotation": [
        0.139090031385422,
        0.00456445524469018,
        0.0324801281094551,
        0.989736437797546
      ],
      "scale": [
        1.0,
        1.0,
        1.0
      ]
    },
    {
      "name": "neck_01",
      "translation": [
        -2.49920136669024E-12,
        0.285046637058258,
        -0.00702854664996266
      ],
      "rotation": [
        0.170737594366074,
        1.23805943275102E-9,
        3.76269820856479E-10,
        0.985316514968872
      ],
      "scale": [
        1.0,
        1.0,
        1.0
      ],
      "children": [
        46
      ]
    },
    {
      "name": "head",
      "translation": [
        1.46551682183839E-18,
        0.106227688491344,
        -5.66382885036631E-10
      ],
      "rotation": [
        -0.209327325224876,
        -8.34290581064323E-10,
        -6.57392418279557E-10,
        0.97784560918808
      ],
      "scale": [
        1.0,
        1.0,
        1.0
      ]
    },
    {
      "name": "thigh_l",
      "translation": [
        0.0966538563370705,
        -0.00677322968840599,
        -0.0128830298781395
      ],
      "rotation": [
        0.948025763034821,
        0.0975740551948547,
        -0.204192772507668,
        -0.223677754402161
      ],
      "scale": [
        1.0,
        1.0,
        1.0
      ],
      "children": [
        48
      ]
    },
    {
      "name": "calf_l",
      "translation": [
        9.86942416680847E-10,
        0.366706788539886,
        -5.42220846000419E-9
      ],
      "rotation": [
        0.0639272630214691,
        0.243454977869987,
        -0.0207765307277441,
        0.967580139636993
      ],
      "scale": [
        1.0,
        1.0,
        1.0
      ],
      "children": [
        49
      ]
    },
    {
      "name": "foot_l",
      "translation": [
        -1.26940535860598E-9,
        0.372627556324005,
        -6.57799925640745E-10
      ],
      "rotation": [
        -0.529063999652863,
        2.1153016405151E-7,
        8.24801773546824E-8,
        0.848581910133362
      ],
      "scale": [
        1.0,
        1.0,
        1.0
      ],
      "children": [
        50
      ]
    },
    {
      "name": "ball_l",
      "translation": [
        -1.47052925392188E-10,
        0.123614445328712,
        1.01299224564144E-9
      ],
      "rotation": [
        -0.264185726642609,
        0.0171937458217144,
        0.0136232599616051,
        0.964222311973572
      ],
      "scale": [
        1.0,
        1.0,
        1.0
      ]
    },
    {
      "name": "thigh_r",
      "translation": [
        -0.0966538563370705,
        -0.00677322968840599,
        -0.0128830298781395
      ],
      "rotation": [
        0.948025763034821,
        -0.0975740551948547,
        0.204192772507668,
        -0.223677754402161
      ],
      "scale": [
        1.0,
        1.0,
        1.0
      ],
      "children": [
        52
      ]
    },
    {
      "name": "calf_r",
      "translation": [
        -9.86942416680847E-10,
        0.366706788539886,
        -5.42220846000419E-9
      ],
      "rotation": [
        0.0639272630214691,
        -0.243454977869987,
        0.0207765307277441,
        0.967580139636993
      ],
      "scale": [
        1.0,
        1.0,
        1.0
      ],
      "children": [
        53
      ]
    },
    {
      "name": "foot_r",
      "translation": [
        1.26940546962828E-9,
        0.372627556324005,
        -6.57799925640745E-10
      ],
      "rotation": [
        -0.529063999652863,
        -2.1153016405151E-7,
        -8.24801773546824E-8,
        0.848581910133362
      ],
      "scale": [
        1.0,
        1.0,
        1.0
      ],
      "children": [
        54
      ]
    },
    {
      "name": "ball_r",
      "translation": [
        1.47052967025552E-10,
        0.123614445328712,
        1.01299224564144E-9
      ],
      "rotation": [
        -0.264185726642609,
        -0.0171937458217144,
        -0.0136232599616051,
        0.964222311973572
      ],
      "scale": [
        1.0,
        1.0,
        1.0
      ]
    },
    {
      "name": "heavy_femaleMesh",
      "translation": [
        0.0,
        0.0,
        0.0
      ],
      "rotation": [
        0.0,
        0.0,
        0.0,
        1.0
      ],
      "scale": [
        10.0,
        10.0,
        10.0
      ],
      "mesh": 0,
      "skin": 0
    },
    {
      "name": "high-polyMesh",
      "translation": [
        0.0,
        0.0,
        0.0
      ],
      "rotation": [
        0.0,
        0.0,
        0.0,
        1.0
      ],
      "scale": [
        10.0,
        10.0,
        10.0
      ],
      "mesh": 1,
      "skin": 1
    }
  ]
}
