{
  "asset": {
    "generator": "FBX2glTF v0.13.1",
    "version": "2.0"
  },
  "scene": 0,
  "buffers": [
    {
      "byteLength": 1236492,
      "uri": "muscular-male0.bin"
    }
  ],
  "bufferViews": [
    {
      "buffer": 0,
      "byteLength": 160536,
      "byteOffset": 0,
      "target": 34963
    },
    {
      "buffer": 0,
      "byteLength": 174204,
      "byteOffset": 160536,
      "target": 34962
    },
    {
      "buffer": 0,
      "byteLength": 116136,
      "byteOffset": 334740,
      "target": 34962
    },
    {
      "buffer": 0,
      "byteLength": 116136,
      "byteOffset": 450876,
      "target": 34962
    },
    {
      "buffer": 0,
      "byteLength": 116136,
      "byteOffset": 567012,
      "target": 34962
    },
    {
      "buffer": 0,
      "byteLength": 232272,
      "byteOffset": 683148,
      "target": 34962
    },
    {
      "buffer": 0,
      "byteLength": 232272,
      "byteOffset": 915420,
      "target": 34962
    },
    {
      "buffer": 0,
      "byteLength": 12240,
      "byteOffset": 1147692,
      "target": 34963
    },
    {
      "buffer": 0,
      "byteLength": 12912,
      "byteOffset": 1159932,
      "target": 34962
    },
    {
      "buffer": 0,
      "byteLength": 8608,
      "byteOffset": 1172844,
      "target": 34962
    },
    {
      "buffer": 0,
      "byteLength": 8608,
      "byteOffset": 1181452,
      "target": 34962
    },
    {
      "buffer": 0,
      "byteLength": 8608,
      "byteOffset": 1190060,
      "target": 34962
    },
    {
      "buffer": 0,
      "byteLength": 17216,
      "byteOffset": 1198668,
      "target": 34962
    },
    {
      "buffer": 0,
      "byteLength": 17216,
      "byteOffset": 1215884,
      "target": 34962
    },
    {
      "buffer": 0,
      "byteLength": 3328,
      "byteOffset": 1233100
    },
    {
      "buffer": 0,
      "byteLength": 64,
      "byteOffset": 1236428
    }
  ],
  "scenes": [
    {
      "name": "Root Scene",
      "nodes": [
        0
      ]
    }
  ],
  "accessors": [
    {
      "componentType": 5123,
      "type": "SCALAR",
      "count": 80268,
      "bufferView": 0,
      "byteOffset": 0
    },
    {
      "componentType": 5126,
      "type": "VEC3",
      "count": 14517,
      "bufferView": 1,
      "byteOffset": 0,
      "min": [
        -0.643712520599365,
        -0.0014157866826281,
        -0.104305543005466
      ],
      "max": [
        0.643712520599365,
        1.9579656124115,
        0.421571105718613
      ]
    },
    {
      "componentType": 5126,
      "type": "VEC2",
      "count": 14517,
      "bufferView": 2,
      "byteOffset": 0
    },
    {
      "componentType": 5123,
      "type": "VEC4",
      "count": 14517,
      "bufferView": 3,
      "byteOffset": 0
    },
    {
      "componentType": 5123,
      "type": "VEC4",
      "count": 14517,
      "bufferView": 4,
      "byteOffset": 0
    },
    {
      "componentType": 5126,
      "type": "VEC4",
      "count": 14517,
      "bufferView": 5,
      "byteOffset": 0
    },
    {
      "componentType": 5126,
      "type": "VEC4",
      "count": 14517,
      "bufferView": 6,
      "byteOffset": 0
    },
    {
      "componentType": 5123,
      "type": "SCALAR",
      "count": 6120,
      "bufferView": 7,
      "byteOffset": 0
    },
    {
      "componentType": 5126,
      "type": "VEC3",
      "count": 1076,
      "bufferView": 8,
      "byteOffset": 0,
      "min": [
        -0.0491545014083385,
        1.82265257835388,
        0.12894494831562
      ],
      "max": [
        0.0491545014083385,
        1.85528635978699,
        0.155805349349976
      ]
    },
    {
      "componentType": 5126,
      "type": "VEC2",
      "count": 1076,
      "bufferView": 9,
      "byteOffset": 0
    },
    {
      "componentType": 5123,
      "type": "VEC4",
      "count": 1076,
      "bufferView": 10,
      "byteOffset": 0
    },
    {
      "componentType": 5123,
      "type": "VEC4",
      "count": 1076,
      "bufferView": 11,
      "byteOffset": 0
    },
    {
      "componentType": 5126,
      "type": "VEC4",
      "count": 1076,
      "bufferView": 12,
      "byteOffset": 0
    },
    {
      "componentType": 5126,
      "type": "VEC4",
      "count": 1076,
      "bufferView": 13,
      "byteOffset": 0
    },
    {
      "componentType": 5126,
      "type": "MAT4",
      "count": 52,
      "bufferView": 14,
      "byteOffset": 0
    },
    {
      "componentType": 5126,
      "type": "MAT4",
      "count": 1,
      "bufferView": 15,
      "byteOffset": 0
    }
  ],
  "images": [
    {
      "name": "brown_eye.png",
      "uri": "brown_eye.png"
    }
  ],
  "samplers": [
    {}
  ],
  "textures": [
    {
      "name": "brown_eye_png",
      "sampler": 0,
      "source": 0
    }
  ],
  "materials": [
    {
      "name": "muscular_male",
      "alphaMode": "OPAQUE",
      "doubleSided": false,
      "extras": {
        "fromFBX": {
          "shadingModel": "Phong",
          "isTruePBR": false
        }
      },
      "pbrMetallicRoughness": {
        "baseColorFactor": [
          0.590333342552185,
          0.439999997615814,
          0.337999999523163,
          1.0
        ],
        "metallicFactor": 0.400000005960464,
        "roughnessFactor": 0.821994960308075
      }
    },
    {
      "name": "high-poly",
      "alphaMode": "BLEND",
      "doubleSided": false,
      "extras": {
        "fromFBX": {
          "shadingModel": "Phong",
          "isTruePBR": false
        }
      },
      "pbrMetallicRoughness": {
        "baseColorTexture": {
          "index": 0,
          "texCoord": 0
        },
        "baseColorFactor": [
          1.0,
          1.0,
          1.0,
          1.0
        ],
        "metallicFactor": 0.400000005960464,
        "roughnessFactor": 0.816496610641479
      }
    }
  ],
  "meshes": [
    {
      "name": "muscular_maleMesh",
      "primitives": [
        {
          "material": 0,
          "mode": 4,
          "attributes": {
            "JOINTS_0": 3,
            "JOINTS_1": 4,
            "POSITION": 1,
            "TEXCOORD_0": 2,
            "WEIGHTS_0": 5,
            "WEIGHTS_1": 6
          },
          "indices": 0
        }
      ]
    },
    {
      "name": "high-polyMesh",
      "primitives": [
        {
          "material": 1,
          "mode": 4,
          "attributes": {
            "JOINTS_0": 10,
            "JOINTS_1": 11,
            "POSITION": 8,
            "TEXCOORD_0": 9,
            "WEIGHTS_0": 12,
            "WEIGHTS_1": 13
          },
          "indices": 7
        }
      ]
    }
  ],
  "skins": [
    {
      "joints": [
        3,
        4,
        47,
        51,
        5,
        48,
        52,
        6,
        49,
        53,
        7,
        26,
        45,
        50,
        54,
        8,
        27,
        46,
        9,
        28,
        10,
        29,
        11,
        14,
        17,
        20,
        23,
        30,
        33,
        36,
        39,
        42,
        12,
        15,
        18,
        21,
        24,
        31,
        34,
        37,
        40,
        43,
        13,
        16,
        19,
        22,
        25,
        32,
        35,
        38,
        41,
        44
      ],
      "inverseBindMatrices": 14,
      "skeleton": 3
    },
    {
      "joints": [
        46
      ],
      "inverseBindMatrices": 15,
      "skeleton": 46
    },
    {
      "joints": [
        2,
        3,
        4,
        5,
        6,
        7,
        8,
        9,
        10,
        11,
        12,
        13,
        14,
        15,
        16,
        17,
        18,
        19,
        20,
        21,
        22,
        23,
        24,
        25,
        26,
        27,
        28,
        29,
        30,
        31,
        32,
        33,
        34,
        35,
        36,
        37,
        38,
        39,
        40,
        41,
        42,
        43,
        44,
        45,
        46,
        47,
        48,
        49,
        50,
        51,
        52,
        53,
        54
      ]
    }
  ],
  "nodes": [
    {
      "name": "RootNode",
      "translation": [
        0.0,
        0.0,
        0.0
      ],
      "rotation": [
        0.0,
        0.0,
        0.0,
        1.0
      ],
      "scale": [
        1.0,
        1.0,
        1.0
      ],
      "children": [
        1,
        55,
        56
      ]
    },
    {
      "name": "Game_engine",
      "translation": [
        0.0,
        0.0,
        0.0
      ],
      "rotation": [
        0.0,
        0.0,
        0.0,
        1.0
      ],
      "scale": [
        10.0,
        10.0,
        10.0
      ],
      "children": [
        2
      ]
    },
    {
      "name": "Root",
      "translation": [
        0.0,
        0.0,
        -0.0261133331805468
      ],
      "rotation": [
        0.5,
        0.5,
        0.5,
        0.5
      ],
      "scale": [
        1.0,
        1.0,
        1.0
      ],
      "children": [
        3
      ]
    },
    {
      "name": "pelvis",
      "translation": [
        1.07491075992584,
        0.0302777476608753,
        -9.31322519104327E-11
      ],
      "rotation": [
        0.58055853843689,
        0.403672873973846,
        0.58055853843689,
        -0.403672873973846
      ],
      "scale": [
        1.0,
        1.0,
        1.0
      ],
      "children": [
        4,
        47,
        51
      ]
    },
    {
      "name": "spine_01",
      "translation": [
        -1.98050762185163E-17,
        0.0989295914769173,
        1.43544838238086E-8
      ],
      "rotation": [
        0.243549630045891,
        1.23514490302234E-10,
        -4.91872209629207E-10,
        0.96988844871521
      ],
      "scale": [
        1.0,
        1.0,
        1.0
      ],
      "children": [
        5
      ]
    },
    {
      "name": "spine_02",
      "translation": [
        5.61252037959029E-17,
        0.0739500746130943,
        5.77468650675428E-9
      ],
      "rotation": [
        -0.141033604741096,
        -2.46929299924092E-11,
        8.30811419660904E-10,
        0.99000483751297
      ],
      "scale": [
        1.0,
        1.0,
        1.0
      ],
      "children": [
        6
      ]
    },
    {
      "name": "spine_03",
      "translation": [
        -9.65437854881825E-19,
        0.0711332485079765,
        -6.86718348852366E-10
      ],
      "rotation": [
        -0.00199604360386729,
        8.5461179799573E-11,
        9.03287222797644E-10,
        0.999998033046722
      ],
      "scale": [
        1.0,
        1.0,
        1.0
      ],
      "children": [
        7,
        26,
        45
      ]
    },
    {
      "name": "clavicle_l",
      "translation": [
        0.0249897576868534,
        0.284870594739914,
        0.102569669485092
      ],
      "rotation": [
        -0.0155428051948547,
        0.035264078527689,
        -0.758394181728363,
        0.650655925273895
      ],
      "scale": [
        1.0,
        1.0,
        1.0
      ],
      "children": [
        8
      ]
    },
    {
      "name": "upperarm_l",
      "translation": [
        1.89154150675996E-10,
        0.189754799008369,
        -4.91869635299569E-11
      ],
      "rotation": [
        -0.00841395650058985,
        0.0203664526343346,
        -0.336514472961426,
        0.941420435905457
      ],
      "scale": [
        1.0,
        1.0,
        1.0
      ],
      "children": [
        9
      ]
    },
    {
      "name": "lowerarm_l",
      "translation": [
        2.36011405974068E-8,
        0.295843064785004,
        -2.69514299766627E-9
      ],
      "rotation": [
        0.386393934488297,
        -0.00585893914103508,
        -0.0105074867606163,
        0.922255396842957
      ],
      "scale": [
        1.0,
        1.0,
        1.0
      ],
      "children": [
        10
      ]
    },
    {
      "name": "hand_l",
      "translation": [
        6.80916489859129E-10,
        0.295780420303345,
        4.07810407665465E-9
      ],
      "rotation": [
        0.102275803685188,
        0.439378291368484,
        -0.0284457877278328,
        0.892007410526276
      ],
      "scale": [
        1.0,
        1.0,
        1.0
      ],
      "children": [
        11,
        14,
        17,
        20,
        23
      ]
    },
    {
      "name": "index_01_l",
      "translation": [
        -0.0163687989115715,
        0.127318575978279,
        0.0102655114606023
      ],
      "rotation": [
        0.102417506277561,
        0.477291524410248,
        0.000864277128130198,
        0.872755825519562
      ],
      "scale": [
        1.0,
        1.0,
        1.0
      ],
      "children": [
        12
      ]
    },
    {
      "name": "index_02_l",
      "translation": [
        6.45830888768018E-10,
        0.0312986224889755,
        4.88914797536211E-10
      ],
      "rotation": [
        0.106372825801373,
        0.00256913620978594,
        0.00667200796306133,
        0.994300603866577
      ],
      "scale": [
        1.0,
        1.0,
        1.0
      ],
      "children": [
        13
      ]
    },
    {
      "name": "index_03_l",
      "translation": [
        -1.93300913053918E-8,
        0.0280388109385967,
        -2.13884590039015E-8
      ],
      "rotation": [
        0.0575975440442562,
        0.0000607592628512066,
        0.0163546223193407,
        0.998205900192261
      ],
      "scale": [
        1.0,
        1.0,
        1.0
      ]
    },
    {
      "name": "middle_01_l",
      "translation": [
        0.00349954306147993,
        0.123111598193645,
        -0.0141316121444106
      ],
      "rotation": [
        0.0866938084363937,
        0.408988684415817,
        -0.147480428218842,
        0.896360397338867
      ],
      "scale": [
        1.0,
        1.0,
        1.0
      ],
      "children": [
        15
      ]
    },
    {
      "name": "middle_02_l",
      "translation": [
        -3.25442108817242E-8,
        0.0406299643218517,
        -4.04482669580375E-8
      ],
      "rotation": [
        0.0505595877766609,
        0.00160229776520282,
        0.0376096665859222,
        0.998011350631714
      ],
      "scale": [
        1.0,
        1.0,
        1.0
      ],
      "children": [
        16
      ]
    },
    {
      "name": "middle_03_l",
      "translation": [
        3.5710900903041E-8,
        0.0329773649573326,
        3.36061205530314E-8
      ],
      "rotation": [
        0.0622620210051537,
        0.00000410767006542301,
        -0.00604155007749796,
        0.998041570186615
      ],
      "scale": [
        1.0,
        1.0,
        1.0
      ]
    },
    {
      "name": "pinky_01_l",
      "translation": [
        0.0402782186865807,
        0.100317239761353,
        -0.0387539118528366
      ],
      "rotation": [
        0.0410092584788799,
        0.283675521612167,
        -0.293422818183899,
        0.912003040313721
      ],
      "scale": [
        1.0,
        1.0,
        1.0
      ],
      "children": [
        18
      ]
    },
    {
      "name": "pinky_02_l",
      "translation": [
        6.50553877434845E-9,
        0.0258458033204079,
        6.61531762702339E-9
      ],
      "rotation": [
        0.0828619971871376,
        0.000597376085352153,
        0.0188057944178581,
        0.996383368968964
      ],
      "scale": [
        1.0,
        1.0,
        1.0
      ],
      "children": [
        19
      ]
    },
    {
      "name": "pinky_03_l",
      "translation": [
        6.49623466131288E-9,
        0.0187256895005703,
        3.97248367534075E-9
      ],
      "rotation": [
        -0.00459786457940936,
        0.00000575637932342943,
        -0.0104116247966886,
        0.999935209751129
      ],
      "scale": [
        1.0,
        1.0,
        1.0
      ]
    },
    {
      "name": "ring_01_l",
      "translation": [
        0.0202290080487728,
        0.113613180816174,
        -0.0294375699013472
      ],
      "rotation": [
        0.0415302291512489,
        0.381218284368515,
        -0.225994184613228,
        0.895474433898926
      ],
      "scale": [
        1.0,
        1.0,
        1.0
      ],
      "children": [
        21
      ]
    },
    {
      "name": "ring_02_l",
      "translation": [
        7.61406770966033E-10,
        0.0358040817081928,
        9.80679870643542E-10
      ],
      "rotation": [
        0.0607143305242062,
        0.00106032413896173,
        0.0457384884357452,
        0.99710613489151
      ],
      "scale": [
        1.0,
        1.0,
        1.0
      ],
      "children": [
        22
      ]
    },
    {
      "name": "ring_03_l",
      "translation": [
        -1.55182444672164E-8,
        0.0299516841769218,
        -1.51926453639817E-8
      ],
      "rotation": [
        0.0608406439423561,
        -0.0000533053243998438,
        -0.0274460501968861,
        0.997770071029663
      ],
      "scale": [
        1.0,
        1.0,
        1.0
      ]
    },
    {
      "name": "thumb_01_l",
      "translation": [
        -0.0175290461629629,
        0.0483565740287304,
        0.0175286792218685
      ],
      "rotation": [
        0.268476337194443,
        0.726339519023895,
        0.430834054946899,
        0.463393270969391
      ],
      "scale": [
        1.0,
        1.0,
        1.0
      ],
      "children": [
        24
      ]
    },
    {
      "name": "thumb_02_l",
      "translation": [
        1.01844221944702E-9,
        0.0369719117879868,
        -3.64989212187083E-8
      ],
      "rotation": [
        0.0636532008647919,
        -0.0160381812602282,
        -0.181824654340744,
        0.98113751411438
      ],
      "scale": [
        1.0,
        1.0,
        1.0
      ],
      "children": [
        25
      ]
    },
    {
      "name": "thumb_03_l",
      "translation": [
        -7.81573417096837E-10,
        0.0440857000648975,
        -1.62515750856684E-10
      ],
      "rotation": [
        0.135104238986969,
        -0.00429644295945764,
        -0.0314941294491291,
        0.990321397781372
      ],
      "scale": [
        1.0,
        1.0,
        1.0
      ]
    },
    {
      "name": "clavicle_r",
      "translation": [
        -0.0249897576868534,
        0.284870594739914,
        0.102569669485092
      ],
      "rotation": [
        -0.0155428042635322,
        -0.035264078527689,
        0.758394181728363,
        0.650655925273895
      ],
      "scale": [
        1.0,
        1.0,
        1.0
      ],
      "children": [
        27
      ]
    },
    {
      "name": "upperarm_r",
      "translation": [
        -1.89154150675996E-10,
        0.189754799008369,
        -4.91868594465483E-11
      ],
      "rotation": [
        -0.00841395650058985,
        -0.0203664526343346,
        0.336514472961426,
        0.941420435905457
      ],
      "scale": [
        1.0,
        1.0,
        1.0
      ],
      "children": [
        28
      ]
    },
    {
      "name": "lowerarm_r",
      "translation": [
        -2.36011405974068E-8,
        0.295843064785004,
        -2.69514299766627E-9
      ],
      "rotation": [
        0.386393934488297,
        0.00585893914103508,
        0.0105074867606163,
        0.922255396842957
      ],
      "scale": [
        1.0,
        1.0,
        1.0
      ],
      "children": [
        29
      ]
    },
    {
      "name": "hand_r",
      "translation": [
        -6.80916489859129E-10,
        0.295780420303345,
        4.07810407665465E-9
      ],
      "rotation": [
        0.102275803685188,
        -0.439378291368484,
        0.0284457877278328,
        0.892007410526276
      ],
      "scale": [
        1.0,
        1.0,
        1.0
      ],
      "children": [
        30,
        33,
        36,
        39,
        42
      ]
    },
    {
      "name": "index_01_r",
      "translation": [
        0.0163687989115715,
        0.127318575978279,
        0.0102655114606023
      ],
      "rotation": [
        0.102417506277561,
        -0.477291524410248,
        -0.000864277128130198,
        0.872755825519562
      ],
      "scale": [
        1.0,
        1.0,
        1.0
      ],
      "children": [
        31
      ]
    },
    {
      "name": "index_02_r",
      "translation": [
        -6.45830944279169E-10,
        0.0312986224889755,
        4.88914797536211E-10
      ],
      "rotation": [
        0.106372825801373,
        -0.00256913620978594,
        -0.00667200796306133,
        0.994300603866577
      ],
      "scale": [
        1.0,
        1.0,
        1.0
      ],
      "children": [
        32
      ]
    },
    {
      "name": "index_03_r",
      "translation": [
        1.93300913053918E-8,
        0.0280388109385967,
        -2.13884590039015E-8
      ],
      "rotation": [
        0.0575975440442562,
        -0.0000607592628512066,
        -0.0163546223193407,
        0.998205900192261
      ],
      "scale": [
        1.0,
        1.0,
        1.0
      ]
    },
    {
      "name": "middle_01_r",
      "translation": [
        -0.00349954306147993,
        0.123111598193645,
        -0.0141316121444106
      ],
      "rotation": [
        0.0866938084363937,
        -0.408988684415817,
        0.147480428218842,
        0.896360397338867
      ],
      "scale": [
        1.0,
        1.0,
        1.0
      ],
      "children": [
        34
      ]
    },
    {
      "name": "middle_02_r",
      "translation": [
        3.25442108817242E-8,
        0.0406299643218517,
        -4.04482669580375E-8
      ],
      "rotation": [
        0.0505595877766609,
        -0.00160229776520282,
        -0.0376096665859222,
        0.998011350631714
      ],
      "scale": [
        1.0,
        1.0,
        1.0
      ],
      "children": [
        35
      ]
    },
    {
      "name": "middle_03_r",
      "translation": [
        -3.5710900903041E-8,
        0.0329773649573326,
        3.36061205530314E-8
      ],
      "rotation": [
        0.0622620210051537,
        -0.00000410767006542301,
        0.00604155007749796,
        0.998041570186615
      ],
      "scale": [
        1.0,
        1.0,
        1.0
      ]
    },
    {
      "name": "pinky_01_r",
      "translation": [
        -0.0402782186865807,
        0.100317239761353,
        -0.0387539118528366
      ],
      "rotation": [
        0.0410092584788799,
        -0.283675521612167,
        0.293422818183899,
        0.912003040313721
      ],
      "scale": [
        1.0,
        1.0,
        1.0
      ],
      "children": [
        37
      ]
    },
    {
      "name": "pinky_02_r",
      "translation": [
        -6.50553877434845E-9,
        0.0258458033204079,
        6.6153180711126E-9
      ],
      "rotation": [
        0.0828619971871376,
        -0.000597376085352153,
        -0.0188057944178581,
        0.996383368968964
      ],
      "scale": [
        1.0,
        1.0,
        1.0
      ],
      "children": [
        38
      ]
    },
    {
      "name": "pinky_03_r",
      "translation": [
        -6.49623466131288E-9,
        0.0187256895005703,
        3.97248367534075E-9
      ],
      "rotation": [
        -0.00459786457940936,
        -0.00000575637932342943,
        0.0104116247966886,
        0.999935209751129
      ],
      "scale": [
        1.0,
        1.0,
        1.0
      ]
    },
    {
      "name": "ring_01_r",
      "translation": [
        -0.0202290080487728,
        0.113613180816174,
        -0.0294375699013472
      ],
      "rotation": [
        0.0415302291512489,
        -0.381218284368515,
        0.225994184613228,
        0.895474433898926
      ],
      "scale": [
        1.0,
        1.0,
        1.0
      ],
      "children": [
        40
      ]
    },
    {
      "name": "ring_02_r",
      "translation": [
        -7.61406770966033E-10,
        0.0358040817081928,
        9.80679981665844E-10
      ],
      "rotation": [
        0.0607143305242062,
        -0.00106032413896173,
        -0.0457384884357452,
        0.99710613489151
      ],
      "scale": [
        1.0,
        1.0,
        1.0
      ],
      "children": [
        41
      ]
    },
    {
      "name": "ring_03_r",
      "translation": [
        1.55182444672164E-8,
        0.0299516841769218,
        -1.51926453639817E-8
      ],
      "rotation": [
        0.0608406439423561,
        0.0000533053243998438,
        0.0274460501968861,
        0.997770071029663
      ],
      "scale": [
        1.0,
        1.0,
        1.0
      ]
    },
    {
      "name": "thumb_01_r",
      "translation": [
        0.0175290461629629,
        0.0483565740287304,
        0.0175286792218685
      ],
      "rotation": [
        -0.268476337194443,
        0.726339519023895,
        0.430834054946899,
        -0.463393270969391
      ],
      "scale": [
        1.0,
        1.0,
        1.0
      ],
      "children": [
        43
      ]
    },
    {
      "name": "thumb_02_r",
      "translation": [
        -1.01844221944702E-9,
        0.0369719117879868,
        -3.64989212187083E-8
      ],
      "rotation": [
        0.0636532008647919,
        0.0160381812602282,
        0.181824654340744,
        0.98113751411438
      ],
      "scale": [
        1.0,
        1.0,
        1.0
      ],
      "children": [
        44
      ]
    },
    {
      "name": "thumb_03_r",
      "translation": [
        7.81573417096837E-10,
        0.0440857000648975,
        -1.6251590351235E-10
      ],
      "rotation": [
        0.135104238986969,
        0.00429644295945764,
        0.0314941294491291,
        0.990321397781372
      ],
      "scale": [
        1.0,
        1.0,
        1.0
      ]
    },
    {
      "name": "neck_01",
      "translation": [
        6.91905255312264E-10,
        0.367705464363098,
        0.0990596488118172
      ],
      "rotation": [
        0.234748363494873,
        1.4576130302757E-9,
        -7.63160978856092E-10,
        0.972056150436401
      ],
      "scale": [
        1.0,
        1.0,
        1.0
      ],
      "children": [
        46
      ]
    },
    {
      "name": "head",
      "translation": [
        5.15622538526562E-17,
        0.111185871064663,
        -2.3485487332664E-8
      ],
      "rotation": [
        -0.177672579884529,
        -1.07505915281081E-9,
        -5.57026681724526E-11,
        0.98408967256546
      ],
      "scale": [
        1.0,
        1.0,
        1.0
      ]
    },
    {
      "name": "thigh_l",
      "translation": [
        0.118998847901821,
        -0.00455649057403207,
        -0.0137352617457509
      ],
      "rotation": [
        0.967432975769043,
        0.0734979212284088,
        -0.206512838602066,
        -0.126585885882378
      ],
      "scale": [
        1.0,
        1.0,
        1.0
      ],
      "children": [
        48
      ]
    },
    {
      "name": "calf_l",
      "translation": [
        1.19265031184312E-9,
        0.487003266811371,
        -2.5050801433224E-9
      ],
      "rotation": [
        0.0560300387442112,
        0.228165000677109,
        -0.0176727920770645,
        0.971848249435425
      ],
      "scale": [
        1.0,
        1.0,
        1.0
      ],
      "children": [
        49
      ]
    },
    {
      "name": "foot_l",
      "translation": [
        -1.08950204413816E-9,
        0.505536615848541,
        4.46631842621059E-10
      ],
      "rotation": [
        -0.542812347412109,
        5.455130125398E-9,
        -6.21270572764843E-8,
        0.839854001998901
      ],
      "scale": [
        1.0,
        1.0,
        1.0
      ],
      "children": [
        50
      ]
    },
    {
      "name": "ball_l",
      "translation": [
        -1.11343927133856E-10,
        0.160163938999176,
        -1.09087316957357E-9
      ],
      "rotation": [
        -0.27007582783699,
        0.016663359478116,
        0.0108174858614802,
        0.962634086608887
      ],
      "scale": [
        1.0,
        1.0,
        1.0
      ]
    },
    {
      "name": "thigh_r",
      "translation": [
        -0.118998847901821,
        -0.00455649057403207,
        -0.0137352617457509
      ],
      "rotation": [
        0.967432975769043,
        -0.0734979212284088,
        0.206512838602066,
        -0.126585885882378
      ],
      "scale": [
        1.0,
        1.0,
        1.0
      ],
      "children": [
        52
      ]
    },
    {
      "name": "calf_r",
      "translation": [
        -1.19265031184312E-9,
        0.487003266811371,
        -2.5050801433224E-9
      ],
      "rotation": [
        0.0560300387442112,
        -0.228165000677109,
        0.0176727920770645,
        0.971848249435425
      ],
      "scale": [
        1.0,
        1.0,
        1.0
      ],
      "children": [
        53
      ]
    },
    {
      "name": "foot_r",
      "translation": [
        1.08950204413816E-9,
        0.505536615848541,
        4.46631842621059E-10
      ],
      "rotation": [
        -0.542812347412109,
        -5.455130125398E-9,
        6.21270572764843E-8,
        0.839854001998901
      ],
      "scale": [
        1.0,
        1.0,
        1.0
      ],
      "children": [
        54
      ]
    },
    {
      "name": "ball_r",
      "translation": [
        1.11343892439386E-10,
        0.160163938999176,
        -1.09087316957357E-9
      ],
      "rotation": [
        -0.27007582783699,
        -0.016663359478116,
        -0.0108174858614802,
        0.962634086608887
      ],
      "scale": [
        1.0,
        1.0,
        1.0
      ]
    },
    {
      "name": "muscular_maleMesh",
      "translation": [
        0.0,
        0.0,
        0.0
      ],
      "rotation": [
        0.0,
        0.0,
        0.0,
        1.0
      ],
      "scale": [
        10.0,
        10.0,
        10.0
      ],
      "mesh": 0,
      "skin": 0
    },
    {
      "name": "high-polyMesh",
      "translation": [
        0.0,
        0.0,
        0.0
      ],
      "rotation": [
        0.0,
        0.0,
        0.0,
        1.0
      ],
      "scale": [
        10.0,
        10.0,
        10.0
      ],
      "mesh": 1,
      "skin": 1
    }
  ]
}
