{
  "asset": {
    "generator": "FBX2glTF v0.13.1",
    "version": "2.0"
  },
  "scene": 0,
  "buffers": [
    {
      "byteLength": 1236492,
      "uri": "senior-male0.bin"
    }
  ],
  "bufferViews": [
    {
      "buffer": 0,
      "byteLength": 160536,
      "byteOffset": 0,
      "target": 34963
    },
    {
      "buffer": 0,
      "byteLength": 174204,
      "byteOffset": 160536,
      "target": 34962
    },
    {
      "buffer": 0,
      "byteLength": 116136,
      "byteOffset": 334740,
      "target": 34962
    },
    {
      "buffer": 0,
      "byteLength": 116136,
      "byteOffset": 450876,
      "target": 34962
    },
    {
      "buffer": 0,
      "byteLength": 116136,
      "byteOffset": 567012,
      "target": 34962
    },
    {
      "buffer": 0,
      "byteLength": 232272,
      "byteOffset": 683148,
      "target": 34962
    },
    {
      "buffer": 0,
      "byteLength": 232272,
      "byteOffset": 915420,
      "target": 34962
    },
    {
      "buffer": 0,
      "byteLength": 12240,
      "byteOffset": 1147692,
      "target": 34963
    },
    {
      "buffer": 0,
      "byteLength": 12912,
      "byteOffset": 1159932,
      "target": 34962
    },
    {
      "buffer": 0,
      "byteLength": 8608,
      "byteOffset": 1172844,
      "target": 34962
    },
    {
      "buffer": 0,
      "byteLength": 8608,
      "byteOffset": 1181452,
      "target": 34962
    },
    {
      "buffer": 0,
      "byteLength": 8608,
      "byteOffset": 1190060,
      "target": 34962
    },
    {
      "buffer": 0,
      "byteLength": 17216,
      "byteOffset": 1198668,
      "target": 34962
    },
    {
      "buffer": 0,
      "byteLength": 17216,
      "byteOffset": 1215884,
      "target": 34962
    },
    {
      "buffer": 0,
      "byteLength": 3328,
      "byteOffset": 1233100
    },
    {
      "buffer": 0,
      "byteLength": 64,
      "byteOffset": 1236428
    }
  ],
  "scenes": [
    {
      "name": "Root Scene",
      "nodes": [
        0
      ]
    }
  ],
  "accessors": [
    {
      "componentType": 5123,
      "type": "SCALAR",
      "count": 80268,
      "bufferView": 0,
      "byteOffset": 0
    },
    {
      "componentType": 5126,
      "type": "VEC3",
      "count": 14517,
      "bufferView": 1,
      "byteOffset": 0,
      "min": [
        -0.519539415836334,
        -0.0015699767973274,
        -0.109779022634029
      ],
      "max": [
        0.519539415836334,
        1.6626341342926,
        0.332878142595291
      ]
    },
    {
      "componentType": 5126,
      "type": "VEC2",
      "count": 14517,
      "bufferView": 2,
      "byteOffset": 0
    },
    {
      "componentType": 5123,
      "type": "VEC4",
      "count": 14517,
      "bufferView": 3,
      "byteOffset": 0
    },
    {
      "componentType": 5123,
      "type": "VEC4",
      "count": 14517,
      "bufferView": 4,
      "byteOffset": 0
    },
    {
      "componentType": 5126,
      "type": "VEC4",
      "count": 14517,
      "bufferView": 5,
      "byteOffset": 0
    },
    {
      "componentType": 5126,
      "type": "VEC4",
      "count": 14517,
      "bufferView": 6,
      "byteOffset": 0
    },
    {
      "componentType": 5123,
      "type": "SCALAR",
      "count": 6120,
      "bufferView": 7,
      "byteOffset": 0
    },
    {
      "componentType": 5126,
      "type": "VEC3",
      "count": 1076,
      "bufferView": 8,
      "byteOffset": 0,
      "min": [
        -0.0443817563354969,
        1.53811311721802,
        0.110842950642109
      ],
      "max": [
        0.0443817563354969,
        1.56749022006989,
        0.135077953338623
      ]
    },
    {
      "componentType": 5126,
      "type": "VEC2",
      "count": 1076,
      "bufferView": 9,
      "byteOffset": 0
    },
    {
      "componentType": 5123,
      "type": "VEC4",
      "count": 1076,
      "bufferView": 10,
      "byteOffset": 0
    },
    {
      "componentType": 5123,
      "type": "VEC4",
      "count": 1076,
      "bufferView": 11,
      "byteOffset": 0
    },
    {
      "componentType": 5126,
      "type": "VEC4",
      "count": 1076,
      "bufferView": 12,
      "byteOffset": 0
    },
    {
      "componentType": 5126,
      "type": "VEC4",
      "count": 1076,
      "bufferView": 13,
      "byteOffset": 0
    },
    {
      "componentType": 5126,
      "type": "MAT4",
      "count": 52,
      "bufferView": 14,
      "byteOffset": 0
    },
    {
      "componentType": 5126,
      "type": "MAT4",
      "count": 1,
      "bufferView": 15,
      "byteOffset": 0
    }
  ],
  "images": [
    {
      "name": "brown_eye.png",
      "uri": "brown_eye.png"
    }
  ],
  "samplers": [
    {}
  ],
  "textures": [
    {
      "name": "brown_eye_png",
      "sampler": 0,
      "source": 0
    }
  ],
  "materials": [
    {
      "name": "senior_male",
      "alphaMode": "OPAQUE",
      "doubleSided": false,
      "extras": {
        "fromFBX": {
          "shadingModel": "Phong",
          "isTruePBR": false
        }
      },
      "pbrMetallicRoughness": {
        "baseColorFactor": [
          0.590333342552185,
          0.439999997615814,
          0.337999999523163,
          1.0
        ],
        "metallicFactor": 0.400000005960464,
        "roughnessFactor": 0.821994960308075
      }
    },
    {
      "name": "high-poly",
      "alphaMode": "BLEND",
      "doubleSided": false,
      "extras": {
        "fromFBX": {
          "shadingModel": "Phong",
          "isTruePBR": false
        }
      },
      "pbrMetallicRoughness": {
        "baseColorTexture": {
          "index": 0,
          "texCoord": 0
        },
        "baseColorFactor": [
          1.0,
          1.0,
          1.0,
          1.0
        ],
        "metallicFactor": 0.400000005960464,
        "roughnessFactor": 0.816496610641479
      }
    }
  ],
  "meshes": [
    {
      "name": "senior_maleMesh",
      "primitives": [
        {
          "material": 0,
          "mode": 4,
          "attributes": {
            "JOINTS_0": 3,
            "JOINTS_1": 4,
            "POSITION": 1,
            "TEXCOORD_0": 2,
            "WEIGHTS_0": 5,
            "WEIGHTS_1": 6
          },
          "indices": 0
        }
      ]
    },
    {
      "name": "high-polyMesh",
      "primitives": [
        {
          "material": 1,
          "mode": 4,
          "attributes": {
            "JOINTS_0": 10,
            "JOINTS_1": 11,
            "POSITION": 8,
            "TEXCOORD_0": 9,
            "WEIGHTS_0": 12,
            "WEIGHTS_1": 13
          },
          "indices": 7
        }
      ]
    }
  ],
  "skins": [
    {
      "joints": [
        3,
        4,
        47,
        51,
        5,
        48,
        52,
        6,
        49,
        53,
        7,
        26,
        45,
        50,
        54,
        8,
        27,
        46,
        9,
        28,
        10,
        29,
        11,
        14,
        17,
        20,
        23,
        30,
        33,
        36,
        39,
        42,
        12,
        15,
        18,
        21,
        24,
        31,
        34,
        37,
        40,
        43,
        13,
        16,
        19,
        22,
        25,
        32,
        35,
        38,
        41,
        44
      ],
      "inverseBindMatrices": 14,
      "skeleton": 3
    },
    {
      "joints": [
        46
      ],
      "inverseBindMatrices": 15,
      "skeleton": 46
    },
    {
      "joints": [
        2,
        3,
        4,
        5,
        6,
        7,
        8,
        9,
        10,
        11,
        12,
        13,
        14,
        15,
        16,
        17,
        18,
        19,
        20,
        21,
        22,
        23,
        24,
        25,
        26,
        27,
        28,
        29,
        30,
        31,
        32,
        33,
        34,
        35,
        36,
        37,
        38,
        39,
        40,
        41,
        42,
        43,
        44,
        45,
        46,
        47,
        48,
        49,
        50,
        51,
        52,
        53,
        54
      ]
    }
  ],
  "nodes": [
    {
      "name": "RootNode",
      "translation": [
        0.0,
        0.0,
        0.0
      ],
      "rotation": [
        0.0,
        0.0,
        0.0,
        1.0
      ],
      "scale": [
        1.0,
        1.0,
        1.0
      ],
      "children": [
        1,
        55,
        56
      ]
    },
    {
      "name": "Game_engine",
      "translation": [
        0.0,
        0.0,
        0.0
      ],
      "rotation": [
        0.0,
        0.0,
        0.0,
        1.0
      ],
      "scale": [
        10.0,
        10.0,
        10.0
      ],
      "children": [
        2
      ]
    },
    {
      "name": "Root",
      "translation": [
        0.0,
        0.0,
        -0.0221933331340551
      ],
      "rotation": [
        0.5,
        0.5,
        0.5,
        0.5
      ],
      "scale": [
        1.0,
        1.0,
        1.0
      ],
      "children": [
        3
      ]
    },
    {
      "name": "pelvis",
      "translation": [
        0.892144083976746,
        0.0254345051944256,
        -4.65661259552164E-11
      ],
      "rotation": [
        0.580283224582672,
        0.404068499803543,
        0.580283224582672,
        -0.404068499803543
      ],
      "scale": [
        1.0,
        1.0,
        1.0
      ],
      "children": [
        4,
        47,
        51
      ]
    },
    {
      "name": "spine_01",
      "translation": [
        -6.01419823556064E-20,
        0.092003308236599,
        -9.77830039161631E-11
      ],
      "rotation": [
        0.222868785262108,
        1.83130705044832E-10,
        -8.01030297647998E-10,
        0.974848449230194
      ],
      "scale": [
        1.0,
        1.0,
        1.0
      ],
      "children": [
        5
      ]
    },
    {
      "name": "spine_02",
      "translation": [
        -5.36455214602608E-17,
        0.0676766559481621,
        -3.68223096458564E-9
      ],
      "rotation": [
        -0.238538667559624,
        7.60855822790063E-11,
        1.90571314284682E-9,
        0.97113299369812
      ],
      "scale": [
        1.0,
        1.0,
        1.0
      ],
      "children": [
        6
      ]
    },
    {
      "name": "spine_03",
      "translation": [
        -4.99243998438543E-17,
        0.0617718920111656,
        -7.23984694417368E-9
      ],
      "rotation": [
        0.124355278909206,
        -4.32006513895189E-11,
        -1.55830770509624E-9,
        0.992237746715546
      ],
      "scale": [
        1.0,
        1.0,
        1.0
      ],
      "children": [
        7,
        26,
        45
      ]
    },
    {
      "name": "clavicle_l",
      "translation": [
        0.0223049055784941,
        0.238317847251892,
        0.100991606712341
      ],
      "rotation": [
        -0.00301934685558081,
        0.072261318564415,
        -0.760475277900696,
        0.645326673984528
      ],
      "scale": [
        1.0,
        1.0,
        1.0
      ],
      "children": [
        8
      ]
    },
    {
      "name": "upperarm_l",
      "translation": [
        -3.79160773888998E-8,
        0.154480785131454,
        7.8053885577134E-10
      ],
      "rotation": [
        0.0444948635995388,
        -0.00382413971237838,
        -0.325273931026459,
        0.944564700126648
      ],
      "scale": [
        1.0,
        1.0,
        1.0
      ],
      "children": [
        9
      ]
    },
    {
      "name": "lowerarm_l",
      "translation": [
        5.97174505401199E-8,
        0.233742639422417,
        -6.27654728191374E-9
      ],
      "rotation": [
        0.369123339653015,
        0.00010168987500947,
        0.000262477406067774,
        0.929380357265472
      ],
      "scale": [
        1.0,
        1.0,
        1.0
      ],
      "children": [
        10
      ]
    },
    {
      "name": "hand_l",
      "translation": [
        -4.7948148562682E-8,
        0.233031794428825,
        4.27272190961503E-8
      ],
      "rotation": [
        0.104590378701687,
        0.414786040782928,
        -0.0170043054968119,
        0.903727948665619
      ],
      "scale": [
        1.0,
        1.0,
        1.0
      ],
      "children": [
        11,
        14,
        17,
        20,
        23
      ]
    },
    {
      "name": "index_01_l",
      "translation": [
        -0.0121635496616364,
        0.101228028535843,
        0.00866485200822353
      ],
      "rotation": [
        0.110754571855068,
        0.471412569284439,
        -0.00352191342972219,
        0.874923527240753
      ],
      "scale": [
        1.0,
        1.0,
        1.0
      ],
      "children": [
        12
      ]
    },
    {
      "name": "index_02_l",
      "translation": [
        -9.64386881463497E-9,
        0.0248557236045599,
        -1.27380701542279E-8
      ],
      "rotation": [
        0.114808812737465,
        0.00296254130080342,
        0.00614923471584916,
        0.993364155292511
      ],
      "scale": [
        1.0,
        1.0,
        1.0
      ],
      "children": [
        13
      ]
    },
    {
      "name": "index_03_l",
      "translation": [
        3.10665548841627E-10,
        0.0221387427300215,
        3.22761761761825E-10
      ],
      "rotation": [
        0.0663273707032204,
        0.0000921065584407188,
        0.0181786641478539,
        0.997632324695587
      ],
      "scale": [
        1.0,
        1.0,
        1.0
      ]
    },
    {
      "name": "middle_01_l",
      "translation": [
        0.00288000819273293,
        0.097751222550869,
        -0.0114098954945803
      ],
      "rotation": [
        0.103704407811165,
        0.406756103038788,
        -0.155994102358818,
        0.894125640392303
      ],
      "scale": [
        1.0,
        1.0,
        1.0
      ],
      "children": [
        15
      ]
    },
    {
      "name": "middle_02_l",
      "translation": [
        -1.45097796624971E-11,
        0.0324370823800564,
        -4.01213201550732E-10
      ],
      "rotation": [
        0.0502231679856777,
        0.00160338706336915,
        0.0371655337512493,
        0.998044967651367
      ],
      "scale": [
        1.0,
        1.0,
        1.0
      ],
      "children": [
        16
      ]
    },
    {
      "name": "middle_03_l",
      "translation": [
        -9.27713816878395E-9,
        0.0264442823827267,
        -8.40350811159851E-9
      ],
      "rotation": [
        0.0688008442521095,
        0.00000427831992055872,
        -0.00535563426092267,
        0.997616052627563
      ],
      "scale": [
        1.0,
        1.0,
        1.0
      ]
    },
    {
      "name": "pinky_01_l",
      "translation": [
        0.0325137637555599,
        0.0796632394194603,
        -0.0303459223359823
      ],
      "rotation": [
        0.0444855131208897,
        0.294304192066193,
        -0.300997734069824,
        0.905983686447144
      ],
      "scale": [
        1.0,
        1.0,
        1.0
      ],
      "children": [
        18
      ]
    },
    {
      "name": "pinky_02_l",
      "translation": [
        3.23050031170169E-9,
        0.0204025283455849,
        3.79880038536839E-9
      ],
      "rotation": [
        0.0953003466129303,
        0.000830307311844081,
        0.0227828398346901,
        0.99518746137619
      ],
      "scale": [
        1.0,
        1.0,
        1.0
      ],
      "children": [
        19
      ]
    },
    {
      "name": "pinky_03_l",
      "translation": [
        1.35075612917035E-8,
        0.014913147315383,
        7.74354180776982E-9
      ],
      "rotation": [
        -0.00272496370598674,
        0.00000421703953179531,
        -0.0126281948760152,
        0.999916553497314
      ],
      "scale": [
        1.0,
        1.0,
        1.0
      ]
    },
    {
      "name": "ring_01_l",
      "translation": [
        0.0164167117327452,
        0.0902194380760193,
        -0.0231879018247128
      ],
      "rotation": [
        0.0538027882575989,
        0.382910966873169,
        -0.233622848987579,
        0.892134964466095
      ],
      "scale": [
        1.0,
        1.0,
        1.0
      ],
      "children": [
        21
      ]
    },
    {
      "name": "ring_02_l",
      "translation": [
        2.24752874089518E-8,
        0.0285755731165409,
        3.33653815687285E-8
      ],
      "rotation": [
        0.061344001442194,
        0.00109940476249903,
        0.0468244403600693,
        0.99701714515686
      ],
      "scale": [
        1.0,
        1.0,
        1.0
      ],
      "children": [
        22
      ]
    },
    {
      "name": "ring_03_l",
      "translation": [
        -1.92299278722885E-8,
        0.0237895455211401,
        -1.88405291368099E-8
      ],
      "rotation": [
        0.0699856132268906,
        -0.0000703746918588877,
        -0.0279322061687708,
        0.997156858444214
      ],
      "scale": [
        1.0,
        1.0,
        1.0
      ]
    },
    {
      "name": "thumb_01_l",
      "translation": [
        -0.0137612372636795,
        0.0383098423480988,
        0.0140500329434872
      ],
      "rotation": [
        0.275390714406967,
        0.725065648555756,
        0.442971587181091,
        0.449684292078018
      ],
      "scale": [
        1.0,
        1.0,
        1.0
      ],
      "children": [
        24
      ]
    },
    {
      "name": "thumb_02_l",
      "translation": [
        2.80188455770158E-10,
        0.0295174233615398,
        7.43278841253137E-11
      ],
      "rotation": [
        0.069376103579998,
        -0.0181781202554703,
        -0.186293035745621,
        0.979873180389404
      ],
      "scale": [
        1.0,
        1.0,
        1.0
      ],
      "children": [
        25
      ]
    },
    {
      "name": "thumb_03_l",
      "translation": [
        5.28595078819194E-9,
        0.0348280966281891,
        -3.57720288945984E-8
      ],
      "rotation": [
        0.150846645236015,
        -0.0051598628051579,
        -0.0337932035326958,
        0.987965941429138
      ],
      "scale": [
        1.0,
        1.0,
        1.0
      ]
    },
    {
      "name": "clavicle_r",
      "translation": [
        -0.0223049055784941,
        0.238317847251892,
        0.100991606712341
      ],
      "rotation": [
        -0.00301934638991952,
        -0.072261318564415,
        0.760475277900696,
        0.645326673984528
      ],
      "scale": [
        1.0,
        1.0,
        1.0
      ],
      "children": [
        27
      ]
    },
    {
      "name": "upperarm_r",
      "translation": [
        3.79160773888998E-8,
        0.154480785131454,
        7.8053885577134E-10
      ],
      "rotation": [
        0.0444948635995388,
        0.00382413971237838,
        0.325273931026459,
        0.944564700126648
      ],
      "scale": [
        1.0,
        1.0,
        1.0
      ],
      "children": [
        28
      ]
    },
    {
      "name": "lowerarm_r",
      "translation": [
        -5.97174505401199E-8,
        0.233742639422417,
        -6.27654728191374E-9
      ],
      "rotation": [
        0.369123339653015,
        -0.00010168987500947,
        -0.000262477406067774,
        0.929380357265472
      ],
      "scale": [
        1.0,
        1.0,
        1.0
      ],
      "children": [
        29
      ]
    },
    {
      "name": "hand_r",
      "translation": [
        4.7948148562682E-8,
        0.233031794428825,
        4.27272190961503E-8
      ],
      "rotation": [
        0.104590378701687,
        -0.414786040782928,
        0.0170043054968119,
        0.903727948665619
      ],
      "scale": [
        1.0,
        1.0,
        1.0
      ],
      "children": [
        30,
        33,
        36,
        39,
        42
      ]
    },
    {
      "name": "index_01_r",
      "translation": [
        0.0121635496616364,
        0.101228028535843,
        0.00866485200822353
      ],
      "rotation": [
        0.110754571855068,
        -0.471412569284439,
        0.00352191342972219,
        0.874923527240753
      ],
      "scale": [
        1.0,
        1.0,
        1.0
      ],
      "children": [
        31
      ]
    },
    {
      "name": "index_02_r",
      "translation": [
        9.64386881463497E-9,
        0.0248557236045599,
        -1.27380701542279E-8
      ],
      "rotation": [
        0.114808812737465,
        -0.00296254130080342,
        -0.00614923471584916,
        0.993364155292511
      ],
      "scale": [
        1.0,
        1.0,
        1.0
      ],
      "children": [
        32
      ]
    },
    {
      "name": "index_03_r",
      "translation": [
        -3.10665548841627E-10,
        0.0221387427300215,
        3.22761622983947E-10
      ],
      "rotation": [
        0.0663273707032204,
        -0.0000921065584407188,
        -0.0181786641478539,
        0.997632324695587
      ],
      "scale": [
        1.0,
        1.0,
        1.0
      ]
    },
    {
      "name": "middle_01_r",
      "translation": [
        -0.00288000819273293,
        0.097751222550869,
        -0.0114098954945803
      ],
      "rotation": [
        0.103704407811165,
        -0.406756103038788,
        0.155994102358818,
        0.894125640392303
      ],
      "scale": [
        1.0,
        1.0,
        1.0
      ],
      "children": [
        34
      ]
    },
    {
      "name": "middle_02_r",
      "translation": [
        1.45097085388346E-11,
        0.0324370823800564,
        -4.01212923994976E-10
      ],
      "rotation": [
        0.0502231679856777,
        -0.00160338706336915,
        -0.0371655337512493,
        0.998044967651367
      ],
      "scale": [
        1.0,
        1.0,
        1.0
      ],
      "children": [
        35
      ]
    },
    {
      "name": "middle_03_r",
      "translation": [
        9.27713816878395E-9,
        0.0264442823827267,
        -8.40350811159851E-9
      ],
      "rotation": [
        0.0688008442521095,
        -0.00000427831992055872,
        0.00535563426092267,
        0.997616052627563
      ],
      "scale": [
        1.0,
        1.0,
        1.0
      ]
    },
    {
      "name": "pinky_01_r",
      "translation": [
        -0.0325137637555599,
        0.0796632394194603,
        -0.0303459223359823
      ],
      "rotation": [
        0.0444855131208897,
        -0.294304192066193,
        0.300997734069824,
        0.905983686447144
      ],
      "scale": [
        1.0,
        1.0,
        1.0
      ],
      "children": [
        37
      ]
    },
    {
      "name": "pinky_02_r",
      "translation": [
        -3.23050031170169E-9,
        0.0204025283455849,
        3.79880038536839E-9
      ],
      "rotation": [
        0.0953003466129303,
        -0.000830307311844081,
        -0.0227828398346901,
        0.99518746137619
      ],
      "scale": [
        1.0,
        1.0,
        1.0
      ],
      "children": [
        38
      ]
    },
    {
      "name": "pinky_03_r",
      "translation": [
        -1.35075612917035E-8,
        0.014913147315383,
        7.74354180776982E-9
      ],
      "rotation": [
        -0.00272496370598674,
        -0.00000421703953179531,
        0.0126281948760152,
        0.999916553497314
      ],
      "scale": [
        1.0,
        1.0,
        1.0
      ]
    },
    {
      "name": "ring_01_r",
      "translation": [
        -0.0164167117327452,
        0.0902194380760193,
        -0.0231879018247128
      ],
      "rotation": [
        0.0538027882575989,
        -0.382910966873169,
        0.233622848987579,
        0.892134964466095
      ],
      "scale": [
        1.0,
        1.0,
        1.0
      ],
      "children": [
        40
      ]
    },
    {
      "name": "ring_02_r",
      "translation": [
        -2.24752874089518E-8,
        0.0285755731165409,
        3.33653815687285E-8
      ],
      "rotation": [
        0.061344001442194,
        -0.00109940476249903,
        -0.0468244403600693,
        0.99701714515686
      ],
      "scale": [
        1.0,
        1.0,
        1.0
      ],
      "children": [
        41
      ]
    },
    {
      "name": "ring_03_r",
      "translation": [
        1.92299278722885E-8,
        0.0237895455211401,
        -1.88405291368099E-8
      ],
      "rotation": [
        0.0699856132268906,
        0.0000703746918588877,
        0.0279322061687708,
        0.997156858444214
      ],
      "scale": [
        1.0,
        1.0,
        1.0
      ]
    },
    {
      "name": "thumb_01_r",
      "translation": [
        0.0137612372636795,
        0.0383098423480988,
        0.0140500329434872
      ],
      "rotation": [
        -0.275390714406967,
        0.725065648555756,
        0.442971587181091,
        -0.449684292078018
      ],
      "scale": [
        1.0,
        1.0,
        1.0
      ],
      "children": [
        43
      ]
    },
    {
      "name": "thumb_02_r",
      "translation": [
        -2.80188455770158E-10,
        0.0295174233615398,
        7.43277453474356E-11
      ],
      "rotation": [
        0.069376103579998,
        0.0181781202554703,
        0.186293035745621,
        0.979873180389404
      ],
      "scale": [
        1.0,
        1.0,
        1.0
      ],
      "children": [
        44
      ]
    },
    {
      "name": "thumb_03_r",
      "translation": [
        -5.28595078819194E-9,
        0.0348280966281891,
        -3.57720288945984E-8
      ],
      "rotation": [
        0.150846645236015,
        0.0051598628051579,
        0.0337932035326958,
        0.987965941429138
      ],
      "scale": [
        1.0,
        1.0,
        1.0
      ]
    },
    {
      "name": "neck_01",
      "translation": [
        -8.9968477112734E-11,
        0.315212994813919,
        0.0971818715333939
      ],
      "rotation": [
        0.229442372918129,
        1.00685515480592E-9,
        4.59501270366758E-10,
        0.97332227230072
      ],
      "scale": [
        1.0,
        1.0,
        1.0
      ],
      "children": [
        46
      ]
    },
    {
      "name": "head",
      "translation": [
        -4.94461703357904E-17,
        0.089746855199337,
        3.5729172509491E-8
      ],
      "rotation": [
        -0.153476998209953,
        -6.90240864464897E-10,
        -2.55186122233297E-10,
        0.988152205944061
      ],
      "scale": [
        1.0,
        1.0,
        1.0
      ]
    },
    {
      "name": "thigh_l",
      "translation": [
        0.115160159766674,
        -0.0187324099242687,
        -0.0181095916777849
      ],
      "rotation": [
        0.966948628425598,
        0.0752721577882767,
        -0.211191177368164,
        -0.121419481933117
      ],
      "scale": [
        1.0,
        1.0,
        1.0
      ],
      "children": [
        48
      ]
    },
    {
      "name": "calf_l",
      "translation": [
        -1.33816124847641E-9,
        0.372075349092484,
        -1.76773318205647E-9
      ],
      "rotation": [
        0.0720927566289902,
        0.225033774971962,
        0.00233655725605786,
        0.971677422523499
      ],
      "scale": [
        1.0,
        1.0,
        1.0
      ],
      "children": [
        49
      ]
    },
    {
      "name": "foot_l",
      "translation": [
        -4.76616301980926E-10,
        0.434633374214172,
        2.27782584460989E-10
      ],
      "rotation": [
        -0.560263097286224,
        -3.182011987235E-9,
        -1.25706964837491E-8,
        0.82831472158432
      ],
      "scale": [
        1.0,
        1.0,
        1.0
      ],
      "children": [
        50
      ]
    },
    {
      "name": "ball_l",
      "translation": [
        -3.89124114874573E-11,
        0.137771725654602,
        -2.15248974200222E-9
      ],
      "rotation": [
        -0.239585354924202,
        0.0177481062710285,
        0.0181973893195391,
        0.97054249048233
      ],
      "scale": [
        1.0,
        1.0,
        1.0
      ]
    },
    {
      "name": "thigh_r",
      "translation": [
        -0.115160159766674,
        -0.0187324099242687,
        -0.0181095916777849
      ],
      "rotation": [
        0.966948628425598,
        -0.0752721577882767,
        0.211191177368164,
        -0.121419481933117
      ],
      "scale": [
        1.0,
        1.0,
        1.0
      ],
      "children": [
        52
      ]
    },
    {
      "name": "calf_r",
      "translation": [
        1.33816124847641E-9,
        0.372075349092484,
        -1.76773318205647E-9
      ],
      "rotation": [
        0.0720927566289902,
        -0.225033774971962,
        -0.00233655725605786,
        0.971677422523499
      ],
      "scale": [
        1.0,
        1.0,
        1.0
      ],
      "children": [
        53
      ]
    },
    {
      "name": "foot_r",
      "translation": [
        4.76616357492077E-10,
        0.434633374214172,
        2.27782584460989E-10
      ],
      "rotation": [
        -0.560263097286224,
        3.182011987235E-9,
        1.25706964837491E-8,
        0.82831472158432
      ],
      "scale": [
        1.0,
        1.0,
        1.0
      ],
      "children": [
        54
      ]
    },
    {
      "name": "ball_r",
      "translation": [
        3.89124461819268E-11,
        0.137771725654602,
        -2.15248974200222E-9
      ],
      "rotation": [
        -0.239585354924202,
        -0.0177481062710285,
        -0.0181973893195391,
        0.97054249048233
      ],
      "scale": [
        1.0,
        1.0,
        1.0
      ]
    },
    {
      "name": "senior_maleMesh",
      "translation": [
        0.0,
        0.0,
        0.0
      ],
      "rotation": [
        0.0,
        0.0,
        0.0,
        1.0
      ],
      "scale": [
        10.0,
        10.0,
        10.0
      ],
      "mesh": 0,
      "skin": 0
    },
    {
      "name": "high-polyMesh",
      "translation": [
        0.0,
        0.0,
        0.0
      ],
      "rotation": [
        0.0,
        0.0,
        0.0,
        1.0
      ],
      "scale": [
        10.0,
        10.0,
        10.0
      ],
      "mesh": 1,
      "skin": 1
    }
  ]
}
