{
  "asset": {
    "generator": "FBX2glTF v0.13.1",
    "version": "2.0"
  },
  "scene": 0,
  "buffers": [
    {
      "byteLength": 1236492,
      "uri": "senior-female0.bin"
    }
  ],
  "bufferViews": [
    {
      "buffer": 0,
      "byteLength": 160536,
      "byteOffset": 0,
      "target": 34963
    },
    {
      "buffer": 0,
      "byteLength": 174204,
      "byteOffset": 160536,
      "target": 34962
    },
    {
      "buffer": 0,
      "byteLength": 116136,
      "byteOffset": 334740,
      "target": 34962
    },
    {
      "buffer": 0,
      "byteLength": 116136,
      "byteOffset": 450876,
      "target": 34962
    },
    {
      "buffer": 0,
      "byteLength": 116136,
      "byteOffset": 567012,
      "target": 34962
    },
    {
      "buffer": 0,
      "byteLength": 232272,
      "byteOffset": 683148,
      "target": 34962
    },
    {
      "buffer": 0,
      "byteLength": 232272,
      "byteOffset": 915420,
      "target": 34962
    },
    {
      "buffer": 0,
      "byteLength": 12240,
      "byteOffset": 1147692,
      "target": 34963
    },
    {
      "buffer": 0,
      "byteLength": 12912,
      "byteOffset": 1159932,
      "target": 34962
    },
    {
      "buffer": 0,
      "byteLength": 8608,
      "byteOffset": 1172844,
      "target": 34962
    },
    {
      "buffer": 0,
      "byteLength": 8608,
      "byteOffset": 1181452,
      "target": 34962
    },
    {
      "buffer": 0,
      "byteLength": 8608,
      "byteOffset": 1190060,
      "target": 34962
    },
    {
      "buffer": 0,
      "byteLength": 17216,
      "byteOffset": 1198668,
      "target": 34962
    },
    {
      "buffer": 0,
      "byteLength": 17216,
      "byteOffset": 1215884,
      "target": 34962
    },
    {
      "buffer": 0,
      "byteLength": 3328,
      "byteOffset": 1233100
    },
    {
      "buffer": 0,
      "byteLength": 64,
      "byteOffset": 1236428
    }
  ],
  "scenes": [
    {
      "name": "Root Scene",
      "nodes": [
        0
      ]
    }
  ],
  "accessors": [
    {
      "componentType": 5123,
      "type": "SCALAR",
      "count": 80268,
      "bufferView": 0,
      "byteOffset": 0
    },
    {
      "componentType": 5126,
      "type": "VEC3",
      "count": 14517,
      "bufferView": 1,
      "byteOffset": 0,
      "min": [
        -0.48653706908226,
        -0.000617294281255454,
        -0.0970292538404465
      ],
      "max": [
        0.48653706908226,
        1.55587291717529,
        0.331821382045746
      ]
    },
    {
      "componentType": 5126,
      "type": "VEC2",
      "count": 14517,
      "bufferView": 2,
      "byteOffset": 0
    },
    {
      "componentType": 5123,
      "type": "VEC4",
      "count": 14517,
      "bufferView": 3,
      "byteOffset": 0
    },
    {
      "componentType": 5123,
      "type": "VEC4",
      "count": 14517,
      "bufferView": 4,
      "byteOffset": 0
    },
    {
      "componentType": 5126,
      "type": "VEC4",
      "count": 14517,
      "bufferView": 5,
      "byteOffset": 0
    },
    {
      "componentType": 5126,
      "type": "VEC4",
      "count": 14517,
      "bufferView": 6,
      "byteOffset": 0
    },
    {
      "componentType": 5123,
      "type": "SCALAR",
      "count": 6120,
      "bufferView": 7,
      "byteOffset": 0
    },
    {
      "componentType": 5126,
      "type": "VEC3",
      "count": 1076,
      "bufferView": 8,
      "byteOffset": 0,
      "min": [
        -0.0430586822330952,
        1.43749952316284,
        0.118787512183189
      ],
      "max": [
        0.0430586859583855,
        1.46640038490295,
        0.141375124454498
      ]
    },
    {
      "componentType": 5126,
      "type": "VEC2",
      "count": 1076,
      "bufferView": 9,
      "byteOffset": 0
    },
    {
      "componentType": 5123,
      "type": "VEC4",
      "count": 1076,
      "bufferView": 10,
      "byteOffset": 0
    },
    {
      "componentType": 5123,
      "type": "VEC4",
      "count": 1076,
      "bufferView": 11,
      "byteOffset": 0
    },
    {
      "componentType": 5126,
      "type": "VEC4",
      "count": 1076,
      "bufferView": 12,
      "byteOffset": 0
    },
    {
      "componentType": 5126,
      "type": "VEC4",
      "count": 1076,
      "bufferView": 13,
      "byteOffset": 0
    },
    {
      "componentType": 5126,
      "type": "MAT4",
      "count": 52,
      "bufferView": 14,
      "byteOffset": 0
    },
    {
      "componentType": 5126,
      "type": "MAT4",
      "count": 1,
      "bufferView": 15,
      "byteOffset": 0
    }
  ],
  "images": [
    {
      "name": "brown_eye.png",
      "uri": "brown_eye.png"
    }
  ],
  "samplers": [
    {}
  ],
  "textures": [
    {
      "name": "brown_eye_png",
      "sampler": 0,
      "source": 0
    }
  ],
  "materials": [
    {
      "name": "senior_female",
      "alphaMode": "OPAQUE",
      "doubleSided": false,
      "extras": {
        "fromFBX": {
          "shadingModel": "Phong",
          "isTruePBR": false
        }
      },
      "pbrMetallicRoughness": {
        "baseColorFactor": [
          0.590333342552185,
          0.439999997615814,
          0.337999999523163,
          1.0
        ],
        "metallicFactor": 0.400000005960464,
        "roughnessFactor": 0.821994960308075
      }
    },
    {
      "name": "high-poly",
      "alphaMode": "BLEND",
      "doubleSided": false,
      "extras": {
        "fromFBX": {
          "shadingModel": "Phong",
          "isTruePBR": false
        }
      },
      "pbrMetallicRoughness": {
        "baseColorTexture": {
          "index": 0,
          "texCoord": 0
        },
        "baseColorFactor": [
          1.0,
          1.0,
          1.0,
          1.0
        ],
        "metallicFactor": 0.400000005960464,
        "roughnessFactor": 0.816496610641479
      }
    }
  ],
  "meshes": [
    {
      "name": "senior_femaleMesh",
      "primitives": [
        {
          "material": 0,
          "mode": 4,
          "attributes": {
            "JOINTS_0": 3,
            "JOINTS_1": 4,
            "POSITION": 1,
            "TEXCOORD_0": 2,
            "WEIGHTS_0": 5,
            "WEIGHTS_1": 6
          },
          "indices": 0
        }
      ]
    },
    {
      "name": "high-polyMesh",
      "primitives": [
        {
          "material": 1,
          "mode": 4,
          "attributes": {
            "JOINTS_0": 10,
            "JOINTS_1": 11,
            "POSITION": 8,
            "TEXCOORD_0": 9,
            "WEIGHTS_0": 12,
            "WEIGHTS_1": 13
          },
          "indices": 7
        }
      ]
    }
  ],
  "skins": [
    {
      "joints": [
        3,
        4,
        47,
        51,
        5,
        48,
        52,
        6,
        49,
        53,
        7,
        26,
        45,
        50,
        54,
        8,
        27,
        46,
        9,
        28,
        10,
        29,
        11,
        14,
        17,
        20,
        23,
        30,
        33,
        36,
        39,
        42,
        12,
        15,
        18,
        21,
        24,
        31,
        34,
        37,
        40,
        43,
        13,
        16,
        19,
        22,
        25,
        32,
        35,
        38,
        41,
        44
      ],
      "inverseBindMatrices": 14,
      "skeleton": 3
    },
    {
      "joints": [
        46
      ],
      "inverseBindMatrices": 15,
      "skeleton": 46
    },
    {
      "joints": [
        2,
        3,
        4,
        5,
        6,
        7,
        8,
        9,
        10,
        11,
        12,
        13,
        14,
        15,
        16,
        17,
        18,
        19,
        20,
        21,
        22,
        23,
        24,
        25,
        26,
        27,
        28,
        29,
        30,
        31,
        32,
        33,
        34,
        35,
        36,
        37,
        38,
        39,
        40,
        41,
        42,
        43,
        44,
        45,
        46,
        47,
        48,
        49,
        50,
        51,
        52,
        53,
        54
      ]
    }
  ],
  "nodes": [
    {
      "name": "RootNode",
      "translation": [
        0.0,
        0.0,
        0.0
      ],
      "rotation": [
        0.0,
        0.0,
        0.0,
        1.0
      ],
      "scale": [
        1.0,
        1.0,
        1.0
      ],
      "children": [
        1,
        55,
        56
      ]
    },
    {
      "name": "Game_engine",
      "translation": [
        0.0,
        0.0,
        0.0
      ],
      "rotation": [
        0.0,
        0.0,
        0.0,
        1.0
      ],
      "scale": [
        10.0,
        10.0,
        10.0
      ],
      "children": [
        2
      ]
    },
    {
      "name": "Root",
      "translation": [
        0.0,
        -0.0000687408464727923,
        -0.0250108707696199
      ],
      "rotation": [
        0.499360173940659,
        0.500639021396637,
        0.499360173940659,
        0.500639021396637
      ],
      "scale": [
        1.0,
        1.0,
        1.0
      ],
      "children": [
        3
      ]
    },
    {
      "name": "pelvis",
      "translation": [
        0.817678570747375,
        0.0459723956882954,
        -4.65661259552164E-11
      ],
      "rotation": [
        0.604399263858795,
        0.367017030715942,
        0.604399263858795,
        -0.367017030715942
      ],
      "scale": [
        1.0,
        1.0,
        1.0
      ],
      "children": [
        4,
        47,
        51
      ]
    },
    {
      "name": "spine_01",
      "translation": [
        -5.34813500969068E-18,
        0.0862942859530449,
        -2.70368255561593E-10
      ],
      "rotation": [
        0.345847725868225,
        -4.72531291872968E-10,
        1.28198551774261E-9,
        0.938290655612946
      ],
      "scale": [
        1.0,
        1.0,
        1.0
      ],
      "children": [
        5
      ]
    },
    {
      "name": "spine_02",
      "translation": [
        3.5102190152186E-17,
        0.0648560151457787,
        -6.23928686493969E-9
      ],
      "rotation": [
        -0.125700056552887,
        2.2831497803466E-10,
        -9.08981334646342E-10,
        0.992068290710449
      ],
      "scale": [
        1.0,
        1.0,
        1.0
      ],
      "children": [
        6
      ]
    },
    {
      "name": "spine_03",
      "translation": [
        1.64853059440429E-17,
        0.07779560983181,
        -8.31364199704865E-10
      ],
      "rotation": [
        0.00148778187576681,
        -7.87737583496373E-11,
        4.85909035230492E-10,
        0.999998867511749
      ],
      "scale": [
        1.0,
        1.0,
        1.0
      ],
      "children": [
        7,
        26,
        45
      ]
    },
    {
      "name": "clavicle_l",
      "translation": [
        0.0218779891729355,
        0.213572025299072,
        0.0496724061667919
      ],
      "rotation": [
        -0.0181648470461369,
        -0.00182183447759598,
        -0.748795866966248,
        0.662549257278442
      ],
      "scale": [
        1.0,
        1.0,
        1.0
      ],
      "children": [
        8
      ]
    },
    {
      "name": "upperarm_l",
      "translation": [
        3.65356171982967E-8,
        0.138348892331123,
        -1.7445740407851E-9
      ],
      "rotation": [
        0.0157354176044464,
        -0.00351851130835712,
        -0.340099453926086,
        0.940251231193542
      ],
      "scale": [
        1.0,
        1.0,
        1.0
      ],
      "children": [
        9
      ]
    },
    {
      "name": "lowerarm_l",
      "translation": [
        -2.13345163757594E-8,
        0.21944472193718,
        2.71610867130789E-9
      ],
      "rotation": [
        0.345755368471146,
        -0.000200347087229602,
        -0.000429519393946975,
        0.938324570655823
      ],
      "scale": [
        1.0,
        1.0,
        1.0
      ],
      "children": [
        10
      ]
    },
    {
      "name": "hand_l",
      "translation": [
        1.46598218009331E-8,
        0.211285531520844,
        -6.20388052041676E-9
      ],
      "rotation": [
        0.12113081663847,
        0.407039701938629,
        -0.0184265300631523,
        0.90515547990799
      ],
      "scale": [
        1.0,
        1.0,
        1.0
      ],
      "children": [
        11,
        14,
        17,
        20,
        23
      ]
    },
    {
      "name": "index_01_l",
      "translation": [
        -0.012745562940836,
        0.0975112020969391,
        0.00736647751182318
      ],
      "rotation": [
        0.102256812155247,
        0.473120838403702,
        -0.000483149167848751,
        0.875042855739594
      ],
      "scale": [
        1.0,
        1.0,
        1.0
      ],
      "children": [
        12
      ]
    },
    {
      "name": "index_02_l",
      "translation": [
        -1.45651899430277E-8,
        0.0239015016704798,
        -1.97556566661206E-8
      ],
      "rotation": [
        0.112768650054932,
        0.00292821926996112,
        0.00569743430241942,
        0.993600606918335
      ],
      "scale": [
        1.0,
        1.0,
        1.0
      ],
      "children": [
        13
      ]
    },
    {
      "name": "index_03_l",
      "translation": [
        -9.54573220468546E-9,
        0.0212756916880608,
        -1.01318882173018E-8
      ],
      "rotation": [
        0.0661505982279778,
        0.000100326156825759,
        0.0186683721840382,
        0.997635006904602
      ],
      "scale": [
        1.0,
        1.0,
        1.0
      ]
    },
    {
      "name": "middle_01_l",
      "translation": [
        0.00194314680993557,
        0.0940182581543922,
        -0.0118520222604275
      ],
      "rotation": [
        0.0922242552042007,
        0.406544983386993,
        -0.151218622922897,
        0.89629727602005
      ],
      "scale": [
        1.0,
        1.0,
        1.0
      ],
      "children": [
        15
      ]
    },
    {
      "name": "middle_02_l",
      "translation": [
        5.14590980937868E-10,
        0.0311869122087955,
        -1.51216428267986E-10
      ],
      "rotation": [
        0.0500727221369743,
        0.001595618436113,
        0.0370804630219936,
        0.998055696487427
      ],
      "scale": [
        1.0,
        1.0,
        1.0
      ],
      "children": [
        16
      ]
    },
    {
      "name": "middle_03_l",
      "translation": [
        9.87909754002203E-9,
        0.0256155468523502,
        8.89703599682434E-9
      ],
      "rotation": [
        0.0721561536192894,
        0.0000047992512008932,
        -0.00533405737951398,
        0.997379064559937
      ],
      "scale": [
        1.0,
        1.0,
        1.0
      ]
    },
    {
      "name": "pinky_01_l",
      "translation": [
        0.0304235946387053,
        0.0768701657652855,
        -0.0301827229559422
      ],
      "rotation": [
        0.0366525910794735,
        0.293182075023651,
        -0.297101140022278,
        0.907982230186462
      ],
      "scale": [
        1.0,
        1.0,
        1.0
      ],
      "children": [
        18
      ]
    },
    {
      "name": "pinky_02_l",
      "translation": [
        8.59795079577452E-9,
        0.0196914300322533,
        1.07483835165567E-8
      ],
      "rotation": [
        0.0955732464790344,
        0.00085175916319713,
        0.0227062273770571,
        0.995163023471832
      ],
      "scale": [
        1.0,
        1.0,
        1.0
      ],
      "children": [
        19
      ]
    },
    {
      "name": "pinky_03_l",
      "translation": [
        3.27521032517097E-9,
        0.0144220432266593,
        1.93107219104149E-9
      ],
      "rotation": [
        -0.00373638956807554,
        0.00000560847865926917,
        -0.0123898712918162,
        0.999916255474091
      ],
      "scale": [
        1.0,
        1.0,
        1.0
      ]
    },
    {
      "name": "ring_01_l",
      "translation": [
        0.0149611122906208,
        0.0869058966636658,
        -0.0232563447207212
      ],
      "rotation": [
        0.0426983758807182,
        0.382753968238831,
        -0.228394970297813,
        0.894154369831085
      ],
      "scale": [
        1.0,
        1.0,
        1.0
      ],
      "children": [
        21
      ]
    },
    {
      "name": "ring_02_l",
      "translation": [
        1.47224754609709E-9,
        0.0275173056870699,
        2.43437026092863E-9
      ],
      "rotation": [
        0.0663950890302658,
        0.00121425813995302,
        0.0452926941215992,
        0.996764183044434
      ],
      "scale": [
        1.0,
        1.0,
        1.0
      ],
      "children": [
        22
      ]
    },
    {
      "name": "ring_03_l",
      "translation": [
        -2.01652863296431E-8,
        0.0229541156440973,
        -2.015764444252E-8
      ],
      "rotation": [
        0.0665393024682999,
        -0.0000640242360532284,
        -0.0260991826653481,
        0.997442424297333
      ],
      "scale": [
        1.0,
        1.0,
        1.0
      ]
    },
    {
      "name": "thumb_01_l",
      "translation": [
        -0.0133578861132264,
        0.0366911925375462,
        0.0135259525850415
      ],
      "rotation": [
        0.262743443250656,
        0.731702983379364,
        0.440150111913681,
        0.449271082878113
      ],
      "scale": [
        1.0,
        1.0,
        1.0
      ],
      "children": [
        24
      ]
    },
    {
      "name": "thumb_02_l",
      "translation": [
        -2.22090859591795E-10,
        0.028312087059021,
        -9.11727315866528E-9
      ],
      "rotation": [
        0.0733838304877281,
        -0.0185952242463827,
        -0.181356996297836,
        0.98049920797348
      ],
      "scale": [
        1.0,
        1.0,
        1.0
      ],
      "children": [
        25
      ]
    },
    {
      "name": "thumb_03_l",
      "translation": [
        5.29533261683923E-9,
        0.0334948897361755,
        -3.56514746613357E-8
      ],
      "rotation": [
        0.145036727190018,
        -0.00473532034084201,
        -0.0322862379252911,
        0.988888025283813
      ],
      "scale": [
        1.0,
        1.0,
        1.0
      ]
    },
    {
      "name": "clavicle_r",
      "translation": [
        -0.0218779891729355,
        0.213572025299072,
        0.0496724061667919
      ],
      "rotation": [
        -0.0181648470461369,
        0.00182183494325727,
        0.748795866966248,
        0.662549257278442
      ],
      "scale": [
        1.0,
        1.0,
        1.0
      ],
      "children": [
        27
      ]
    },
    {
      "name": "upperarm_r",
      "translation": [
        -3.65356171982967E-8,
        0.138348892331123,
        -1.7445740407851E-9
      ],
      "rotation": [
        0.0157354176044464,
        0.00351851130835712,
        0.340099453926086,
        0.940251231193542
      ],
      "scale": [
        1.0,
        1.0,
        1.0
      ],
      "children": [
        28
      ]
    },
    {
      "name": "lowerarm_r",
      "translation": [
        2.13345163757594E-8,
        0.21944472193718,
        2.71610867130789E-9
      ],
      "rotation": [
        0.345755368471146,
        0.000200347087229602,
        0.000429519393946975,
        0.938324570655823
      ],
      "scale": [
        1.0,
        1.0,
        1.0
      ],
      "children": [
        29
      ]
    },
    {
      "name": "hand_r",
      "translation": [
        -1.46598226891115E-8,
        0.211285531520844,
        -6.20387963223834E-9
      ],
      "rotation": [
        0.12113081663847,
        -0.407039701938629,
        0.0184265300631523,
        0.90515547990799
      ],
      "scale": [
        1.0,
        1.0,
        1.0
      ],
      "children": [
        30,
        33,
        36,
        39,
        42
      ]
    },
    {
      "name": "index_01_r",
      "translation": [
        0.012745562940836,
        0.0975112020969391,
        0.00736647751182318
      ],
      "rotation": [
        0.102256812155247,
        -0.473120838403702,
        0.000483149167848751,
        0.875042855739594
      ],
      "scale": [
        1.0,
        1.0,
        1.0
      ],
      "children": [
        31
      ]
    },
    {
      "name": "index_02_r",
      "translation": [
        1.45651899430277E-8,
        0.0239015016704798,
        -1.97556566661206E-8
      ],
      "rotation": [
        0.112768650054932,
        -0.00292821926996112,
        -0.00569743430241942,
        0.993600606918335
      ],
      "scale": [
        1.0,
        1.0,
        1.0
      ],
      "children": [
        32
      ]
    },
    {
      "name": "index_03_r",
      "translation": [
        9.54573220468546E-9,
        0.0212756916880608,
        -1.01318882173018E-8
      ],
      "rotation": [
        0.0661505982279778,
        -0.000100326156825759,
        -0.0186683721840382,
        0.997635006904602
      ],
      "scale": [
        1.0,
        1.0,
        1.0
      ]
    },
    {
      "name": "middle_01_r",
      "translation": [
        -0.00194314680993557,
        0.0940182581543922,
        -0.0118520222604275
      ],
      "rotation": [
        0.0922242552042007,
        -0.406544983386993,
        0.151218622922897,
        0.89629727602005
      ],
      "scale": [
        1.0,
        1.0,
        1.0
      ],
      "children": [
        34
      ]
    },
    {
      "name": "middle_02_r",
      "translation": [
        -5.14590980937868E-10,
        0.0311869122087955,
        -1.51216428267986E-10
      ],
      "rotation": [
        0.0500727221369743,
        -0.001595618436113,
        -0.0370804630219936,
        0.998055696487427
      ],
      "scale": [
        1.0,
        1.0,
        1.0
      ],
      "children": [
        35
      ]
    },
    {
      "name": "middle_03_r",
      "translation": [
        -9.87909754002203E-9,
        0.0256155468523502,
        8.89703510864592E-9
      ],
      "rotation": [
        0.0721561536192894,
        -0.0000047992512008932,
        0.00533405737951398,
        0.997379064559937
      ],
      "scale": [
        1.0,
        1.0,
        1.0
      ]
    },
    {
      "name": "pinky_01_r",
      "translation": [
        -0.0304235946387053,
        0.0768701657652855,
        -0.0301827229559422
      ],
      "rotation": [
        0.0366525910794735,
        -0.293182075023651,
        0.297101140022278,
        0.907982230186462
      ],
      "scale": [
        1.0,
        1.0,
        1.0
      ],
      "children": [
        37
      ]
    },
    {
      "name": "pinky_02_r",
      "translation": [
        -8.59795079577452E-9,
        0.0196914300322533,
        1.07483835165567E-8
      ],
      "rotation": [
        0.0955732464790344,
        -0.00085175916319713,
        -0.0227062273770571,
        0.995163023471832
      ],
      "scale": [
        1.0,
        1.0,
        1.0
      ],
      "children": [
        38
      ]
    },
    {
      "name": "pinky_03_r",
      "translation": [
        -3.27521032517097E-9,
        0.0144220432266593,
        1.93107219104149E-9
      ],
      "rotation": [
        -0.00373638956807554,
        -0.00000560847865926917,
        0.0123898712918162,
        0.999916255474091
      ],
      "scale": [
        1.0,
        1.0,
        1.0
      ]
    },
    {
      "name": "ring_01_r",
      "translation": [
        -0.0149611122906208,
        0.0869058966636658,
        -0.0232563447207212
      ],
      "rotation": [
        0.0426983758807182,
        -0.382753968238831,
        0.228394970297813,
        0.894154369831085
      ],
      "scale": [
        1.0,
        1.0,
        1.0
      ],
      "children": [
        40
      ]
    },
    {
      "name": "ring_02_r",
      "translation": [
        -1.47224754609709E-9,
        0.0275173056870699,
        2.43437048297324E-9
      ],
      "rotation": [
        0.0663950890302658,
        -0.00121425813995302,
        -0.0452926941215992,
        0.996764183044434
      ],
      "scale": [
        1.0,
        1.0,
        1.0
      ],
      "children": [
        41
      ]
    },
    {
      "name": "ring_03_r",
      "translation": [
        2.01652863296431E-8,
        0.0229541156440973,
        -2.015764444252E-8
      ],
      "rotation": [
        0.0665393024682999,
        0.0000640242360532284,
        0.0260991826653481,
        0.997442424297333
      ],
      "scale": [
        1.0,
        1.0,
        1.0
      ]
    },
    {
      "name": "thumb_01_r",
      "translation": [
        0.0133578861132264,
        0.0366911925375462,
        0.0135259525850415
      ],
      "rotation": [
        -0.262743443250656,
        0.731702983379364,
        0.440150111913681,
        -0.449271082878113
      ],
      "scale": [
        1.0,
        1.0,
        1.0
      ],
      "children": [
        43
      ]
    },
    {
      "name": "thumb_02_r",
      "translation": [
        2.22090859591795E-10,
        0.028312087059021,
        -9.11727315866528E-9
      ],
      "rotation": [
        0.0733838304877281,
        0.0185952242463827,
        0.181356996297836,
        0.98049920797348
      ],
      "scale": [
        1.0,
        1.0,
        1.0
      ],
      "children": [
        44
      ]
    },
    {
      "name": "thumb_03_r",
      "translation": [
        -5.29533261683923E-9,
        0.0334948897361755,
        -3.56514746613357E-8
      ],
      "rotation": [
        0.145036727190018,
        0.00473532034084201,
        0.0322862379252911,
        0.988888025283813
      ],
      "scale": [
        1.0,
        1.0,
        1.0
      ]
    },
    {
      "name": "neck_01",
      "translation": [
        9.10365116624234E-11,
        0.285758435726166,
        0.0390015728771687
      ],
      "rotation": [
        0.182728469371796,
        1.15261333810679E-9,
        1.49459403187002E-10,
        0.983163416385651
      ],
      "scale": [
        1.0,
        1.0,
        1.0
      ],
      "children": [
        46
      ]
    },
    {
      "name": "head",
      "translation": [
        -3.61610011885886E-17,
        0.0926666036248207,
        1.12734488411093E-8
      ],
      "rotation": [
        -0.182083234190941,
        -5.75341108088878E-10,
        -4.46994274927448E-10,
        0.98328310251236
      ],
      "scale": [
        1.0,
        1.0,
        1.0
      ]
    },
    {
      "name": "thigh_l",
      "translation": [
        0.106613487005234,
        -0.0118604488670826,
        -0.0169394202530384
      ],
      "rotation": [
        0.95954167842865,
        0.0798894613981247,
        -0.194193094968796,
        -0.187580451369286
      ],
      "scale": [
        1.0,
        1.0,
        1.0
      ],
      "children": [
        48
      ]
    },
    {
      "name": "calf_l",
      "translation": [
        -1.31325805785565E-9,
        0.353432923555374,
        -8.16927359093E-10
      ],
      "rotation": [
        0.066695049405098,
        0.24263596534729,
        -0.027469702064991,
        0.967432141304016
      ],
      "scale": [
        1.0,
        1.0,
        1.0
      ],
      "children": [
        49
      ]
    },
    {
      "name": "foot_l",
      "translation": [
        -8.05002953185863E-10,
        0.381198823451996,
        -3.33901684079763E-10
      ],
      "rotation": [
        -0.538753747940063,
        -7.76424613491145E-9,
        -1.33664874724104E-8,
        0.842463314533234
      ],
      "scale": [
        1.0,
        1.0,
        1.0
      ],
      "children": [
        50
      ]
    },
    {
      "name": "ball_l",
      "translation": [
        2.07601037055527E-11,
        0.128590136766434,
        -2.53329163202309E-10
      ],
      "rotation": [
        -0.263312578201294,
        0.0176430847495794,
        -0.00791273452341557,
        0.964516758918762
      ],
      "scale": [
        1.0,
        1.0,
        1.0
      ]
    },
    {
      "name": "thigh_r",
      "translation": [
        -0.106613487005234,
        -0.0118604488670826,
        -0.0169394202530384
      ],
      "rotation": [
        0.95954167842865,
        -0.0798894613981247,
        0.194193094968796,
        -0.187580451369286
      ],
      "scale": [
        1.0,
        1.0,
        1.0
      ],
      "children": [
        52
      ]
    },
    {
      "name": "calf_r",
      "translation": [
        1.31325805785565E-9,
        0.353432923555374,
        -8.16927303581849E-10
      ],
      "rotation": [
        0.066695049405098,
        -0.24263596534729,
        0.027469702064991,
        0.967432141304016
      ],
      "scale": [
        1.0,
        1.0,
        1.0
      ],
      "children": [
        53
      ]
    },
    {
      "name": "foot_r",
      "translation": [
        8.05002953185863E-10,
        0.381198823451996,
        -3.33901684079763E-10
      ],
      "rotation": [
        -0.538753747940063,
        7.76424613491145E-9,
        1.33664874724104E-8,
        0.842463314533234
      ],
      "scale": [
        1.0,
        1.0,
        1.0
      ],
      "children": [
        54
      ]
    },
    {
      "name": "ball_r",
      "translation": [
        -2.07600325818902E-11,
        0.128590136766434,
        -2.53329163202309E-10
      ],
      "rotation": [
        -0.263312578201294,
        -0.0176430847495794,
        0.00791273452341557,
        0.964516758918762
      ],
      "scale": [
        1.0,
        1.0,
        1.0
      ]
    },
    {
      "name": "senior_femaleMesh",
      "translation": [
        0.0,
        0.0,
        0.0
      ],
      "rotation": [
        0.0,
        0.0,
        0.0,
        1.0
      ],
      "scale": [
        10.0,
        10.0,
        10.0
      ],
      "mesh": 0,
      "skin": 0
    },
    {
      "name": "high-polyMesh",
      "translation": [
        0.0,
        0.0,
        0.0
      ],
      "rotation": [
        0.0,
        0.0,
        0.0,
        1.0
      ],
      "scale": [
        10.0,
        10.0,
        10.0
      ],
      "mesh": 1,
      "skin": 1
    }
  ]
}
