{
  "asset": {
    "generator": "FBX2glTF v0.13.1",
    "version": "2.0"
  },
  "scene": 0,
  "buffers": [
    {
      "byteLength": 1236492,
      "uri": "slim-female0.bin"
    }
  ],
  "bufferViews": [
    {
      "buffer": 0,
      "byteLength": 160536,
      "byteOffset": 0,
      "target": 34963
    },
    {
      "buffer": 0,
      "byteLength": 174204,
      "byteOffset": 160536,
      "target": 34962
    },
    {
      "buffer": 0,
      "byteLength": 116136,
      "byteOffset": 334740,
      "target": 34962
    },
    {
      "buffer": 0,
      "byteLength": 116136,
      "byteOffset": 450876,
      "target": 34962
    },
    {
      "buffer": 0,
      "byteLength": 116136,
      "byteOffset": 567012,
      "target": 34962
    },
    {
      "buffer": 0,
      "byteLength": 232272,
      "byteOffset": 683148,
      "target": 34962
    },
    {
      "buffer": 0,
      "byteLength": 232272,
      "byteOffset": 915420,
      "target": 34962
    },
    {
      "buffer": 0,
      "byteLength": 12240,
      "byteOffset": 1147692,
      "target": 34963
    },
    {
      "buffer": 0,
      "byteLength": 12912,
      "byteOffset": 1159932,
      "target": 34962
    },
    {
      "buffer": 0,
      "byteLength": 8608,
      "byteOffset": 1172844,
      "target": 34962
    },
    {
      "buffer": 0,
      "byteLength": 8608,
      "byteOffset": 1181452,
      "target": 34962
    },
    {
      "buffer": 0,
      "byteLength": 8608,
      "byteOffset": 1190060,
      "target": 34962
    },
    {
      "buffer": 0,
      "byteLength": 17216,
      "byteOffset": 1198668,
      "target": 34962
    },
    {
      "buffer": 0,
      "byteLength": 17216,
      "byteOffset": 1215884,
      "target": 34962
    },
    {
      "buffer": 0,
      "byteLength": 3328,
      "byteOffset": 1233100
    },
    {
      "buffer": 0,
      "byteLength": 64,
      "byteOffset": 1236428
    }
  ],
  "scenes": [
    {
      "name": "Root Scene",
      "nodes": [
        0
      ]
    }
  ],
  "accessors": [
    {
      "componentType": 5123,
      "type": "SCALAR",
      "count": 80268,
      "bufferView": 0,
      "byteOffset": 0
    },
    {
      "componentType": 5126,
      "type": "VEC3",
      "count": 14517,
      "bufferView": 1,
      "byteOffset": 0,
      "min": [
        -0.573009073734283,
        -0.000367736822227016,
        -0.0828791707754135
      ],
      "max": [
        0.573009073734283,
        1.8820059299469,
        0.354129254817963
      ]
    },
    {
      "componentType": 5126,
      "type": "VEC2",
      "count": 14517,
      "bufferView": 2,
      "byteOffset": 0
    },
    {
      "componentType": 5123,
      "type": "VEC4",
      "count": 14517,
      "bufferView": 3,
      "byteOffset": 0
    },
    {
      "componentType": 5123,
      "type": "VEC4",
      "count": 14517,
      "bufferView": 4,
      "byteOffset": 0
    },
    {
      "componentType": 5126,
      "type": "VEC4",
      "count": 14517,
      "bufferView": 5,
      "byteOffset": 0
    },
    {
      "componentType": 5126,
      "type": "VEC4",
      "count": 14517,
      "bufferView": 6,
      "byteOffset": 0
    },
    {
      "componentType": 5123,
      "type": "SCALAR",
      "count": 6120,
      "bufferView": 7,
      "byteOffset": 0
    },
    {
      "componentType": 5126,
      "type": "VEC3",
      "count": 1076,
      "bufferView": 8,
      "byteOffset": 0,
      "min": [
        -0.0488399788737297,
        1.74868011474609,
        0.119218096137047
      ],
      "max": [
        0.0488399788737297,
        1.78161025047302,
        0.143957227468491
      ]
    },
    {
      "componentType": 5126,
      "type": "VEC2",
      "count": 1076,
      "bufferView": 9,
      "byteOffset": 0
    },
    {
      "componentType": 5123,
      "type": "VEC4",
      "count": 1076,
      "bufferView": 10,
      "byteOffset": 0
    },
    {
      "componentType": 5123,
      "type": "VEC4",
      "count": 1076,
      "bufferView": 11,
      "byteOffset": 0
    },
    {
      "componentType": 5126,
      "type": "VEC4",
      "count": 1076,
      "bufferView": 12,
      "byteOffset": 0
    },
    {
      "componentType": 5126,
      "type": "VEC4",
      "count": 1076,
      "bufferView": 13,
      "byteOffset": 0
    },
    {
      "componentType": 5126,
      "type": "MAT4",
      "count": 52,
      "bufferView": 14,
      "byteOffset": 0
    },
    {
      "componentType": 5126,
      "type": "MAT4",
      "count": 1,
      "bufferView": 15,
      "byteOffset": 0
    }
  ],
  "images": [
    {
      "name": "brown_eye.png",
      "uri": "brown_eye.png"
    }
  ],
  "samplers": [
    {}
  ],
  "textures": [
    {
      "name": "brown_eye_png",
      "sampler": 0,
      "source": 0
    }
  ],
  "materials": [
    {
      "name": "slim_female",
      "alphaMode": "OPAQUE",
      "doubleSided": false,
      "extras": {
        "fromFBX": {
          "shadingModel": "Phong",
          "isTruePBR": false
        }
      },
      "pbrMetallicRoughness": {
        "baseColorFactor": [
          0.590333342552185,
          0.439999997615814,
          0.337999999523163,
          1.0
        ],
        "metallicFactor": 0.400000005960464,
        "roughnessFactor": 0.821994960308075
      }
    },
    {
      "name": "high-poly",
      "alphaMode": "BLEND",
      "doubleSided": false,
      "extras": {
        "fromFBX": {
          "shadingModel": "Phong",
          "isTruePBR": false
        }
      },
      "pbrMetallicRoughness": {
        "baseColorTexture": {
          "index": 0,
          "texCoord": 0
        },
        "baseColorFactor": [
          1.0,
          1.0,
          1.0,
          1.0
        ],
        "metallicFactor": 0.400000005960464,
        "roughnessFactor": 0.816496610641479
      }
    }
  ],
  "meshes": [
    {
      "name": "slim_femaleMesh",
      "primitives": [
        {
          "material": 0,
          "mode": 4,
          "attributes": {
            "JOINTS_0": 3,
            "JOINTS_1": 4,
            "POSITION": 1,
            "TEXCOORD_0": 2,
            "WEIGHTS_0": 5,
            "WEIGHTS_1": 6
          },
          "indices": 0
        }
      ]
    },
    {
      "name": "high-polyMesh",
      "primitives": [
        {
          "material": 1,
          "mode": 4,
          "attributes": {
            "JOINTS_0": 10,
            "JOINTS_1": 11,
            "POSITION": 8,
            "TEXCOORD_0": 9,
            "WEIGHTS_0": 12,
            "WEIGHTS_1": 13
          },
          "indices": 7
        }
      ]
    }
  ],
  "skins": [
    {
      "joints": [
        3,
        4,
        47,
        51,
        5,
        48,
        52,
        6,
        49,
        53,
        7,
        26,
        45,
        50,
        54,
        8,
        27,
        46,
        9,
        28,
        10,
        29,
        11,
        14,
        17,
        20,
        23,
        30,
        33,
        36,
        39,
        42,
        12,
        15,
        18,
        21,
        24,
        31,
        34,
        37,
        40,
        43,
        13,
        16,
        19,
        22,
        25,
        32,
        35,
        38,
        41,
        44
      ],
      "inverseBindMatrices": 14,
      "skeleton": 3
    },
    {
      "joints": [
        46
      ],
      "inverseBindMatrices": 15,
      "skeleton": 46
    },
    {
      "joints": [
        2,
        3,
        4,
        5,
        6,
        7,
        8,
        9,
        10,
        11,
        12,
        13,
        14,
        15,
        16,
        17,
        18,
        19,
        20,
        21,
        22,
        23,
        24,
        25,
        26,
        27,
        28,
        29,
        30,
        31,
        32,
        33,
        34,
        35,
        36,
        37,
        38,
        39,
        40,
        41,
        42,
        43,
        44,
        45,
        46,
        47,
        48,
        49,
        50,
        51,
        52,
        53,
        54
      ]
    }
  ],
  "nodes": [
    {
      "name": "RootNode",
      "translation": [
        0.0,
        0.0,
        0.0
      ],
      "rotation": [
        0.0,
        0.0,
        0.0,
        1.0
      ],
      "scale": [
        1.0,
        1.0,
        1.0
      ],
      "children": [
        1,
        55,
        56
      ]
    },
    {
      "name": "Game_engine",
      "translation": [
        0.0,
        0.0,
        0.0
      ],
      "rotation": [
        0.0,
        0.0,
        0.0,
        1.0
      ],
      "scale": [
        10.0,
        10.0,
        10.0
      ],
      "children": [
        2
      ]
    },
    {
      "name": "Root",
      "translation": [
        0.0,
        -0.00000740051245884388,
        -0.0269117951393127
      ],
      "rotation": [
        0.499931961297989,
        0.500068008899689,
        0.499931961297989,
        0.500068008899689
      ],
      "scale": [
        1.0,
        1.0,
        1.0
      ],
      "children": [
        3
      ]
    },
    {
      "name": "pelvis",
      "translation": [
        1.01557314395905,
        0.0500936098396778,
        4.65661259552164E-11
      ],
      "rotation": [
        0.616726100444794,
        0.345903009176254,
        0.616726100444794,
        -0.345903009176254
      ],
      "scale": [
        1.0,
        1.0,
        1.0
      ],
      "children": [
        4,
        47,
        51
      ]
    },
    {
      "name": "spine_01",
      "translation": [
        -1.65442260190751E-17,
        0.0929314270615578,
        2.51069671719506E-8
      ],
      "rotation": [
        0.414436221122742,
        -2.2970707280745E-10,
        5.04423613989502E-10,
        0.910078346729279
      ],
      "scale": [
        1.0,
        1.0,
        1.0
      ],
      "children": [
        5
      ]
    },
    {
      "name": "spine_02",
      "translation": [
        -3.0068481796168E-17,
        0.0761560276150703,
        1.06382023190577E-8
      ],
      "rotation": [
        -0.0900025367736816,
        6.84017079088939E-11,
        -3.47116557719573E-10,
        0.995941519737244
      ],
      "scale": [
        1.0,
        1.0,
        1.0
      ],
      "children": [
        6
      ]
    },
    {
      "name": "spine_03",
      "translation": [
        2.62841933594645E-18,
        0.101835198700428,
        -5.10675501885771E-9
      ],
      "rotation": [
        -0.0631393939256668,
        3.04689953822823E-11,
        -3.44251502304438E-11,
        0.998004734516144
      ],
      "scale": [
        1.0,
        1.0,
        1.0
      ],
      "children": [
        7,
        26,
        45
      ]
    },
    {
      "name": "clavicle_l",
      "translation": [
        0.0260629523545504,
        0.260204493999481,
        0.019593046978116
      ],
      "rotation": [
        0.00101668736897409,
        0.0224636923521757,
        -0.745906174182892,
        0.665671288967133
      ],
      "scale": [
        1.0,
        1.0,
        1.0
      ],
      "children": [
        8
      ]
    },
    {
      "name": "upperarm_l",
      "translation": [
        -1.19958362687633E-10,
        0.150385543704033,
        8.53708284620502E-11
      ],
      "rotation": [
        0.0377386398613453,
        -0.0115304244682193,
        -0.350534081459045,
        0.935718297958374
      ],
      "scale": [
        1.0,
        1.0,
        1.0
      ],
      "children": [
        9
      ]
    },
    {
      "name": "lowerarm_l",
      "translation": [
        1.06779722841566E-8,
        0.287582039833069,
        4.58172166872828E-10
      ],
      "rotation": [
        0.333912670612335,
        0.00171434925869107,
        0.00407325895503163,
        0.942593634128571
      ],
      "scale": [
        1.0,
        1.0,
        1.0
      ],
      "children": [
        10
      ]
    },
    {
      "name": "hand_l",
      "translation": [
        -2.81026277804131E-8,
        0.252133846282959,
        1.36117819238279E-8
      ],
      "rotation": [
        0.116107389330864,
        0.40425717830658,
        -0.0141063025221229,
        0.907136261463165
      ],
      "scale": [
        1.0,
        1.0,
        1.0
      ],
      "children": [
        11,
        14,
        17,
        20,
        23
      ]
    },
    {
      "name": "index_01_l",
      "translation": [
        -0.0145159494131804,
        0.10917405039072,
        0.00886172149330378
      ],
      "rotation": [
        0.100781977176666,
        0.475022435188293,
        0.00331843574531376,
        0.874177157878876
      ],
      "scale": [
        1.0,
        1.0,
        1.0
      ],
      "children": [
        12
      ]
    },
    {
      "name": "index_02_l",
      "translation": [
        -5.13994513617888E-10,
        0.0268210638314486,
        -2.92217666730821E-10
      ],
      "rotation": [
        0.110754415392876,
        0.00286227860487998,
        0.00568441487848759,
        0.993827402591705
      ],
      "scale": [
        1.0,
        1.0,
        1.0
      ],
      "children": [
        13
      ]
    },
    {
      "name": "index_03_l",
      "translation": [
        -1.17485146611251E-10,
        0.0239130612462759,
        -1.07291522888353E-10
      ],
      "rotation": [
        0.0594240985810757,
        0.0000859300052979961,
        0.0186381600797176,
        0.998058795928955
      ],
      "scale": [
        1.0,
        1.0,
        1.0
      ]
    },
    {
      "name": "middle_01_l",
      "translation": [
        0.00269851181656122,
        0.10510066896677,
        -0.0119740404188633
      ],
      "rotation": [
        0.0854422524571419,
        0.407980680465698,
        -0.14332503080368,
        0.897613108158112
      ],
      "scale": [
        1.0,
        1.0,
        1.0
      ],
      "children": [
        15
      ]
    },
    {
      "name": "middle_02_l",
      "translation": [
        7.80940379030426E-9,
        0.0350912176072598,
        9.95729010355717E-9
      ],
      "rotation": [
        0.0527224354445934,
        0.00156941346358508,
        0.0365784280002117,
        0.997937798500061
      ],
      "scale": [
        1.0,
        1.0,
        1.0
      ],
      "children": [
        16
      ]
    },
    {
      "name": "middle_03_l",
      "translation": [
        -8.03366351220802E-9,
        0.0286557357758284,
        -7.60256568810291E-9
      ],
      "rotation": [
        0.0599372498691082,
        0.00000598102087678853,
        -0.00696479855105281,
        0.998177826404572
      ],
      "scale": [
        1.0,
        1.0,
        1.0
      ]
    },
    {
      "name": "pinky_01_l",
      "translation": [
        0.0339919403195381,
        0.086349755525589,
        -0.0332315750420094
      ],
      "rotation": [
        0.04210140183568,
        0.284815907478333,
        -0.295086145401001,
        0.911060690879822
      ],
      "scale": [
        1.0,
        1.0,
        1.0
      ],
      "children": [
        18
      ]
    },
    {
      "name": "pinky_02_l",
      "translation": [
        3.93332276471536E-11,
        0.0222530495375395,
        2.50201276363882E-10
      ],
      "rotation": [
        0.0793178081512451,
        0.000690801593009382,
        0.0235184952616692,
        0.996571660041809
      ],
      "scale": [
        1.0,
        1.0,
        1.0
      ],
      "children": [
        19
      ]
    },
    {
      "name": "pinky_03_l",
      "translation": [
        -5.87882320601807E-9,
        0.0161221269518137,
        -3.78180331495059E-9
      ],
      "rotation": [
        -0.00902818236500025,
        0.0000143997931445483,
        -0.0132877817377448,
        0.999870955944061
      ],
      "scale": [
        1.0,
        1.0,
        1.0
      ]
    },
    {
      "name": "ring_01_l",
      "translation": [
        0.0171636156737804,
        0.0974018350243568,
        -0.0249485839158297
      ],
      "rotation": [
        0.0405006855726242,
        0.383730530738831,
        -0.221461087465286,
        0.895581126213074
      ],
      "scale": [
        1.0,
        1.0,
        1.0
      ],
      "children": [
        21
      ]
    },
    {
      "name": "ring_02_l",
      "translation": [
        -1.03946309337744E-8,
        0.0307630468159914,
        -1.85110309303127E-8
      ],
      "rotation": [
        0.0675622075796127,
        0.00120754726231098,
        0.0412085652351379,
        0.996862947940826
      ],
      "scale": [
        1.0,
        1.0,
        1.0
      ],
      "children": [
        22
      ]
    },
    {
      "name": "ring_03_l",
      "translation": [
        6.67635369211439E-9,
        0.0257184952497482,
        7.416044223163E-9
      ],
      "rotation": [
        0.046897578984499,
        -0.0000376798998331651,
        -0.0226134397089481,
        0.998643696308136
      ],
      "scale": [
        1.0,
        1.0,
        1.0
      ]
    },
    {
      "name": "thumb_01_l",
      "translation": [
        -0.0150705128908157,
        0.0409201607108116,
        0.0151397306472063
      ],
      "rotation": [
        0.264677196741104,
        0.732174634933472,
        0.433526217937469,
        0.453785538673401
      ],
      "scale": [
        1.0,
        1.0,
        1.0
      ],
      "children": [
        24
      ]
    },
    {
      "name": "thumb_02_l",
      "translation": [
        -2.79322870389009E-10,
        0.0318713486194611,
        -3.61038381413437E-8
      ],
      "rotation": [
        0.068689301609993,
        -0.0171735323965549,
        -0.179224297404289,
        0.981257081031799
      ],
      "scale": [
        1.0,
        1.0,
        1.0
      ],
      "children": [
        25
      ]
    },
    {
      "name": "thumb_03_l",
      "translation": [
        2.12867323767796E-9,
        0.0375590287148952,
        -1.66550364610885E-8
      ],
      "rotation": [
        0.127827778458595,
        -0.0041136029176414,
        -0.0318999476730824,
        0.99127471446991
      ],
      "scale": [
        1.0,
        1.0,
        1.0
      ]
    },
    {
      "name": "clavicle_r",
      "translation": [
        -0.0260629523545504,
        0.260204493999481,
        0.019593046978116
      ],
      "rotation": [
        0.00101668701972812,
        -0.0224636923521757,
        0.745906174182892,
        0.665671288967133
      ],
      "scale": [
        1.0,
        1.0,
        1.0
      ],
      "children": [
        27
      ]
    },
    {
      "name": "upperarm_r",
      "translation": [
        1.19958362687633E-10,
        0.150385543704033,
        8.53708284620502E-11
      ],
      "rotation": [
        0.0377386398613453,
        0.0115304244682193,
        0.350534081459045,
        0.935718297958374
      ],
      "scale": [
        1.0,
        1.0,
        1.0
      ],
      "children": [
        28
      ]
    },
    {
      "name": "lowerarm_r",
      "translation": [
        -1.06779722841566E-8,
        0.287582039833069,
        4.58172166872828E-10
      ],
      "rotation": [
        0.333912670612335,
        -0.00171434925869107,
        -0.00407325895503163,
        0.942593634128571
      ],
      "scale": [
        1.0,
        1.0,
        1.0
      ],
      "children": [
        29
      ]
    },
    {
      "name": "hand_r",
      "translation": [
        2.81026277804131E-8,
        0.252133846282959,
        1.36117819238279E-8
      ],
      "rotation": [
        0.116107389330864,
        -0.40425717830658,
        0.0141063025221229,
        0.907136261463165
      ],
      "scale": [
        1.0,
        1.0,
        1.0
      ],
      "children": [
        30,
        33,
        36,
        39,
        42
      ]
    },
    {
      "name": "index_01_r",
      "translation": [
        0.0145159494131804,
        0.10917405039072,
        0.00886172149330378
      ],
      "rotation": [
        0.100781977176666,
        -0.475022435188293,
        -0.00331843574531376,
        0.874177157878876
      ],
      "scale": [
        1.0,
        1.0,
        1.0
      ],
      "children": [
        31
      ]
    },
    {
      "name": "index_02_r",
      "translation": [
        5.13994680151342E-10,
        0.0268210638314486,
        -2.92217666730821E-10
      ],
      "rotation": [
        0.110754415392876,
        -0.00286227860487998,
        -0.00568441487848759,
        0.993827402591705
      ],
      "scale": [
        1.0,
        1.0,
        1.0
      ],
      "children": [
        32
      ]
    },
    {
      "name": "index_03_r",
      "translation": [
        1.17485118855676E-10,
        0.0239130612462759,
        -1.07291522888353E-10
      ],
      "rotation": [
        0.0594240985810757,
        -0.0000859300052979961,
        -0.0186381600797176,
        0.998058795928955
      ],
      "scale": [
        1.0,
        1.0,
        1.0
      ]
    },
    {
      "name": "middle_01_r",
      "translation": [
        -0.00269851181656122,
        0.10510066896677,
        -0.0119740404188633
      ],
      "rotation": [
        0.0854422524571419,
        -0.407980680465698,
        0.14332503080368,
        0.897613108158112
      ],
      "scale": [
        1.0,
        1.0,
        1.0
      ],
      "children": [
        34
      ]
    },
    {
      "name": "middle_02_r",
      "translation": [
        -7.80940379030426E-9,
        0.0350912176072598,
        9.95729010355717E-9
      ],
      "rotation": [
        0.0527224354445934,
        -0.00156941346358508,
        -0.0365784280002117,
        0.997937798500061
      ],
      "scale": [
        1.0,
        1.0,
        1.0
      ],
      "children": [
        35
      ]
    },
    {
      "name": "middle_03_r",
      "translation": [
        8.03366351220802E-9,
        0.0286557357758284,
        -7.60256568810291E-9
      ],
      "rotation": [
        0.0599372498691082,
        -0.00000598102087678853,
        0.00696479855105281,
        0.998177826404572
      ],
      "scale": [
        1.0,
        1.0,
        1.0
      ]
    },
    {
      "name": "pinky_01_r",
      "translation": [
        -0.0339919403195381,
        0.086349755525589,
        -0.0332315750420094
      ],
      "rotation": [
        0.04210140183568,
        -0.284815907478333,
        0.295086145401001,
        0.911060690879822
      ],
      "scale": [
        1.0,
        1.0,
        1.0
      ],
      "children": [
        37
      ]
    },
    {
      "name": "pinky_02_r",
      "translation": [
        -3.93332276471536E-11,
        0.0222530495375395,
        2.50201553919638E-10
      ],
      "rotation": [
        0.0793178081512451,
        -0.000690801593009382,
        -0.0235184952616692,
        0.996571660041809
      ],
      "scale": [
        1.0,
        1.0,
        1.0
      ],
      "children": [
        38
      ]
    },
    {
      "name": "pinky_03_r",
      "translation": [
        5.87882320601807E-9,
        0.0161221269518137,
        -3.78180331495059E-9
      ],
      "rotation": [
        -0.00902818236500025,
        -0.0000143997931445483,
        0.0132877817377448,
        0.999870955944061
      ],
      "scale": [
        1.0,
        1.0,
        1.0
      ]
    },
    {
      "name": "ring_01_r",
      "translation": [
        -0.0171636156737804,
        0.0974018350243568,
        -0.0249485839158297
      ],
      "rotation": [
        0.0405006855726242,
        -0.383730530738831,
        0.221461087465286,
        0.895581126213074
      ],
      "scale": [
        1.0,
        1.0,
        1.0
      ],
      "children": [
        40
      ]
    },
    {
      "name": "ring_02_r",
      "translation": [
        1.03946309337744E-8,
        0.0307630468159914,
        -1.85110309303127E-8
      ],
      "rotation": [
        0.0675622075796127,
        -0.00120754726231098,
        -0.0412085652351379,
        0.996862947940826
      ],
      "scale": [
        1.0,
        1.0,
        1.0
      ],
      "children": [
        41
      ]
    },
    {
      "name": "ring_03_r",
      "translation": [
        -6.67635369211439E-9,
        0.0257184952497482,
        7.416044223163E-9
      ],
      "rotation": [
        0.046897578984499,
        0.0000376798998331651,
        0.0226134397089481,
        0.998643696308136
      ],
      "scale": [
        1.0,
        1.0,
        1.0
      ]
    },
    {
      "name": "thumb_01_r",
      "translation": [
        0.0150705128908157,
        0.0409201607108116,
        0.0151397306472063
      ],
      "rotation": [
        -0.264677196741104,
        0.732174634933472,
        0.433526217937469,
        -0.453785538673401
      ],
      "scale": [
        1.0,
        1.0,
        1.0
      ],
      "children": [
        43
      ]
    },
    {
      "name": "thumb_02_r",
      "translation": [
        2.79322731611131E-10,
        0.0318713486194611,
        -3.61038381413437E-8
      ],
      "rotation": [
        0.068689301609993,
        0.0171735323965549,
        0.179224297404289,
        0.981257081031799
      ],
      "scale": [
        1.0,
        1.0,
        1.0
      ],
      "children": [
        44
      ]
    },
    {
      "name": "thumb_03_r",
      "translation": [
        -2.12867323767796E-9,
        0.0375590287148952,
        -1.66550364610885E-8
      ],
      "rotation": [
        0.127827778458595,
        0.0041136029176414,
        0.0318999476730824,
        0.99127471446991
      ],
      "scale": [
        1.0,
        1.0,
        1.0
      ]
    },
    {
      "name": "neck_01",
      "translation": [
        -4.23085629031039E-11,
        0.338135063648224,
        -0.00739475432783365
      ],
      "rotation": [
        0.16823773086071,
        -2.5237991696514E-9,
        -3.33874178304328E-10,
        0.985746443271637
      ],
      "scale": [
        1.0,
        1.0,
        1.0
      ],
      "children": [
        46
      ]
    },
    {
      "name": "head",
      "translation": [
        -6.02217109344291E-19,
        0.125440493226051,
        -1.32505909022917E-10
      ],
      "rotation": [
        -0.191286161541939,
        2.41693798308518E-9,
        2.472468063619E-10,
        0.98153430223465
      ],
      "scale": [
        1.0,
        1.0,
        1.0
      ]
    },
    {
      "name": "thigh_l",
      "translation": [
        0.106832310557365,
        -0.00855984631925821,
        -0.0121993441134691
      ],
      "rotation": [
        0.94716465473175,
        0.100372135639191,
        -0.213992267847061,
        -0.216822192072868
      ],
      "scale": [
        1.0,
        1.0,
        1.0
      ],
      "children": [
        48
      ]
    },
    {
      "name": "calf_l",
      "translation": [
        -2.14912021512248E-9,
        0.455349385738373,
        4.15942480458398E-9
      ],
      "rotation": [
        0.0708531960844994,
        0.22957806289196,
        -0.00435186363756657,
        0.970698118209839
      ],
      "scale": [
        1.0,
        1.0,
        1.0
      ],
      "children": [
        49
      ]
    },
    {
      "name": "foot_l",
      "translation": [
        5.78866232725517E-10,
        0.47311407327652,
        -4.44033532165378E-10
      ],
      "rotation": [
        -0.5423304438591,
        -8.64090878849311E-8,
        -3.14702242043552E-9,
        0.840165257453918
      ],
      "scale": [
        1.0,
        1.0,
        1.0
      ],
      "children": [
        50
      ]
    },
    {
      "name": "ball_l",
      "translation": [
        -4.88577685253677E-11,
        0.144970282912254,
        -1.67869551592759E-9
      ],
      "rotation": [
        -0.257766485214233,
        0.0176428612321615,
        0.0368338227272034,
        0.965343713760376
      ],
      "scale": [
        1.0,
        1.0,
        1.0
      ]
    },
    {
      "name": "thigh_r",
      "translation": [
        -0.106832310557365,
        -0.00855984631925821,
        -0.0121993441134691
      ],
      "rotation": [
        0.94716465473175,
        -0.100372135639191,
        0.213992267847061,
        -0.216822192072868
      ],
      "scale": [
        1.0,
        1.0,
        1.0
      ],
      "children": [
        52
      ]
    },
    {
      "name": "calf_r",
      "translation": [
        2.14912021512248E-9,
        0.455349385738373,
        4.15942480458398E-9
      ],
      "rotation": [
        0.0708531960844994,
        -0.22957806289196,
        0.00435186363756657,
        0.970698118209839
      ],
      "scale": [
        1.0,
        1.0,
        1.0
      ],
      "children": [
        53
      ]
    },
    {
      "name": "foot_r",
      "translation": [
        -5.78866177214366E-10,
        0.47311407327652,
        -4.44033532165378E-10
      ],
      "rotation": [
        -0.5423304438591,
        8.64090878849311E-8,
        3.14702242043552E-9,
        0.840165257453918
      ],
      "scale": [
        1.0,
        1.0,
        1.0
      ],
      "children": [
        54
      ]
    },
    {
      "name": "ball_r",
      "translation": [
        4.88577685253677E-11,
        0.144970282912254,
        -1.67869551592759E-9
      ],
      "rotation": [
        -0.257766485214233,
        -0.0176428612321615,
        -0.0368338227272034,
        0.965343713760376
      ],
      "scale": [
        1.0,
        1.0,
        1.0
      ]
    },
    {
      "name": "slim_femaleMesh",
      "translation": [
        0.0,
        0.0,
        0.0
      ],
      "rotation": [
        0.0,
        0.0,
        0.0,
        1.0
      ],
      "scale": [
        10.0,
        10.0,
        10.0
      ],
      "mesh": 0,
      "skin": 0
    },
    {
      "name": "high-polyMesh",
      "translation": [
        0.0,
        0.0,
        0.0
      ],
      "rotation": [
        0.0,
        0.0,
        0.0,
        1.0
      ],
      "scale": [
        10.0,
        10.0,
        10.0
      ],
      "mesh": 1,
      "skin": 1
    }
  ]
}
