{
  "asset": {
    "generator": "FBX2glTF v0.13.1",
    "version": "2.0"
  },
  "scene": 0,
  "buffers": [
    {
      "byteLength": 1236492,
      "uri": "teen-female0.bin"
    }
  ],
  "bufferViews": [
    {
      "buffer": 0,
      "byteLength": 160536,
      "byteOffset": 0,
      "target": 34963
    },
    {
      "buffer": 0,
      "byteLength": 174204,
      "byteOffset": 160536,
      "target": 34962
    },
    {
      "buffer": 0,
      "byteLength": 116136,
      "byteOffset": 334740,
      "target": 34962
    },
    {
      "buffer": 0,
      "byteLength": 116136,
      "byteOffset": 450876,
      "target": 34962
    },
    {
      "buffer": 0,
      "byteLength": 116136,
      "byteOffset": 567012,
      "target": 34962
    },
    {
      "buffer": 0,
      "byteLength": 232272,
      "byteOffset": 683148,
      "target": 34962
    },
    {
      "buffer": 0,
      "byteLength": 232272,
      "byteOffset": 915420,
      "target": 34962
    },
    {
      "buffer": 0,
      "byteLength": 12240,
      "byteOffset": 1147692,
      "target": 34963
    },
    {
      "buffer": 0,
      "byteLength": 12912,
      "byteOffset": 1159932,
      "target": 34962
    },
    {
      "buffer": 0,
      "byteLength": 8608,
      "byteOffset": 1172844,
      "target": 34962
    },
    {
      "buffer": 0,
      "byteLength": 8608,
      "byteOffset": 1181452,
      "target": 34962
    },
    {
      "buffer": 0,
      "byteLength": 8608,
      "byteOffset": 1190060,
      "target": 34962
    },
    {
      "buffer": 0,
      "byteLength": 17216,
      "byteOffset": 1198668,
      "target": 34962
    },
    {
      "buffer": 0,
      "byteLength": 17216,
      "byteOffset": 1215884,
      "target": 34962
    },
    {
      "buffer": 0,
      "byteLength": 3328,
      "byteOffset": 1233100
    },
    {
      "buffer": 0,
      "byteLength": 64,
      "byteOffset": 1236428
    }
  ],
  "scenes": [
    {
      "name": "Root Scene",
      "nodes": [
        0
      ]
    }
  ],
  "accessors": [
    {
      "componentType": 5123,
      "type": "SCALAR",
      "count": 80268,
      "bufferView": 0,
      "byteOffset": 0
    },
    {
      "componentType": 5126,
      "type": "VEC3",
      "count": 14517,
      "bufferView": 1,
      "byteOffset": 0,
      "min": [
        -0.43356516957283,
        -0.00266044610179961,
        -0.0792613551020622
      ],
      "max": [
        0.43356516957283,
        1.39243388175964,
        0.275412142276764
      ]
    },
    {
      "componentType": 5126,
      "type": "VEC2",
      "count": 14517,
      "bufferView": 2,
      "byteOffset": 0
    },
    {
      "componentType": 5123,
      "type": "VEC4",
      "count": 14517,
      "bufferView": 3,
      "byteOffset": 0
    },
    {
      "componentType": 5123,
      "type": "VEC4",
      "count": 14517,
      "bufferView": 4,
      "byteOffset": 0
    },
    {
      "componentType": 5126,
      "type": "VEC4",
      "count": 14517,
      "bufferView": 5,
      "byteOffset": 0
    },
    {
      "componentType": 5126,
      "type": "VEC4",
      "count": 14517,
      "bufferView": 6,
      "byteOffset": 0
    },
    {
      "componentType": 5123,
      "type": "SCALAR",
      "count": 6120,
      "bufferView": 7,
      "byteOffset": 0
    },
    {
      "componentType": 5126,
      "type": "VEC3",
      "count": 1076,
      "bufferView": 8,
      "byteOffset": 0,
      "min": [
        -0.0417321398854256,
        1.27841353416443,
        0.0968163087964058
      ],
      "max": [
        0.0417321398854256,
        1.30723357200623,
        0.119076929986477
      ]
    },
    {
      "componentType": 5126,
      "type": "VEC2",
      "count": 1076,
      "bufferView": 9,
      "byteOffset": 0
    },
    {
      "componentType": 5123,
      "type": "VEC4",
      "count": 1076,
      "bufferView": 10,
      "byteOffset": 0
    },
    {
      "componentType": 5123,
      "type": "VEC4",
      "count": 1076,
      "bufferView": 11,
      "byteOffset": 0
    },
    {
      "componentType": 5126,
      "type": "VEC4",
      "count": 1076,
      "bufferView": 12,
      "byteOffset": 0
    },
    {
      "componentType": 5126,
      "type": "VEC4",
      "count": 1076,
      "bufferView": 13,
      "byteOffset": 0
    },
    {
      "componentType": 5126,
      "type": "MAT4",
      "count": 52,
      "bufferView": 14,
      "byteOffset": 0
    },
    {
      "componentType": 5126,
      "type": "MAT4",
      "count": 1,
      "bufferView": 15,
      "byteOffset": 0
    }
  ],
  "images": [
    {
      "name": "brown_eye.png",
      "uri": "brown_eye.png"
    }
  ],
  "samplers": [
    {}
  ],
  "textures": [
    {
      "name": "brown_eye_png",
      "sampler": 0,
      "source": 0
    }
  ],
  "materials": [
    {
      "name": "teen_female",
      "alphaMode": "OPAQUE",
      "doubleSided": false,
      "extras": {
        "fromFBX": {
          "shadingModel": "Phong",
          "isTruePBR": false
        }
      },
      "pbrMetallicRoughness": {
        "baseColorFactor": [
          0.590333342552185,
          0.439999997615814,
          0.337999999523163,
          1.0
        ],
        "metallicFactor": 0.400000005960464,
        "roughnessFactor": 0.821994960308075
      }
    },
    {
      "name": "high-poly",
      "alphaMode": "BLEND",
      "doubleSided": false,
      "extras": {
        "fromFBX": {
          "shadingModel": "Phong",
          "isTruePBR": false
        }
      },
      "pbrMetallicRoughness": {
        "baseColorTexture": {
          "index": 0,
          "texCoord": 0
        },
        "baseColorFactor": [
          1.0,
          1.0,
          1.0,
          1.0
        ],
        "metallicFactor": 0.400000005960464,
        "roughnessFactor": 0.816496610641479
      }
    }
  ],
  "meshes": [
    {
      "name": "teen_femaleMesh",
      "primitives": [
        {
          "material": 0,
          "mode": 4,
          "attributes": {
            "JOINTS_0": 3,
            "JOINTS_1": 4,
            "POSITION": 1,
            "TEXCOORD_0": 2,
            "WEIGHTS_0": 5,
            "WEIGHTS_1": 6
          },
          "indices": 0
        }
      ]
    },
    {
      "name": "high-polyMesh",
      "primitives": [
        {
          "material": 1,
          "mode": 4,
          "attributes": {
            "JOINTS_0": 10,
            "JOINTS_1": 11,
            "POSITION": 8,
            "TEXCOORD_0": 9,
            "WEIGHTS_0": 12,
            "WEIGHTS_1": 13
          },
          "indices": 7
        }
      ]
    }
  ],
  "skins": [
    {
      "joints": [
        3,
        4,
        47,
        51,
        5,
        48,
        52,
        6,
        49,
        53,
        7,
        26,
        45,
        50,
        54,
        8,
        27,
        46,
        9,
        28,
        10,
        29,
        11,
        14,
        17,
        20,
        23,
        30,
        33,
        36,
        39,
        42,
        12,
        15,
        18,
        21,
        24,
        31,
        34,
        37,
        40,
        43,
        13,
        16,
        19,
        22,
        25,
        32,
        35,
        38,
        41,
        44
      ],
      "inverseBindMatrices": 14,
      "skeleton": 3
    },
    {
      "joints": [
        46
      ],
      "inverseBindMatrices": 15,
      "skeleton": 46
    },
    {
      "joints": [
        2,
        3,
        4,
        5,
        6,
        7,
        8,
        9,
        10,
        11,
        12,
        13,
        14,
        15,
        16,
        17,
        18,
        19,
        20,
        21,
        22,
        23,
        24,
        25,
        26,
        27,
        28,
        29,
        30,
        31,
        32,
        33,
        34,
        35,
        36,
        37,
        38,
        39,
        40,
        41,
        42,
        43,
        44,
        45,
        46,
        47,
        48,
        49,
        50,
        51,
        52,
        53,
        54
      ]
    }
  ],
  "nodes": [
    {
      "name": "RootNode",
      "translation": [
        0.0,
        0.0,
        0.0
      ],
      "rotation": [
        0.0,
        0.0,
        0.0,
        1.0
      ],
      "scale": [
        1.0,
        1.0,
        1.0
      ],
      "children": [
        1,
        55,
        56
      ]
    },
    {
      "name": "Game_engine",
      "translation": [
        0.0,
        0.0,
        0.0
      ],
      "rotation": [
        0.0,
        0.0,
        0.0,
        1.0
      ],
      "scale": [
        10.0,
        10.0,
        10.0
      ],
      "children": [
        2
      ]
    },
    {
      "name": "Root",
      "translation": [
        0.0,
        0.0,
        -0.0259811133146286
      ],
      "rotation": [
        0.5,
        0.5,
        0.5,
        0.5
      ],
      "scale": [
        1.0,
        1.0,
        1.0
      ],
      "children": [
        3
      ]
    },
    {
      "name": "pelvis",
      "translation": [
        0.732161223888397,
        0.0391367711126804,
        6.16297582203915E-33
      ],
      "rotation": [
        0.617887556552887,
        0.343824028968811,
        0.617887556552887,
        -0.343824028968811
      ],
      "scale": [
        1.0,
        1.0,
        1.0
      ],
      "children": [
        4,
        47,
        51
      ]
    },
    {
      "name": "spine_01",
      "translation": [
        -1.62403728015823E-17,
        0.0594773888587952,
        5.50213341554695E-9
      ],
      "rotation": [
        0.376958191394806,
        -7.37457206412273E-10,
        1.81201853521884E-9,
        0.926230251789093
      ],
      "scale": [
        1.0,
        1.0,
        1.0
      ],
      "children": [
        5
      ]
    },
    {
      "name": "spine_02",
      "translation": [
        -2.10859968299179E-17,
        0.0583081431686878,
        2.48591525142672E-9
      ],
      "rotation": [
        -0.0705566480755806,
        1.69162087115815E-10,
        -1.51135992609852E-9,
        0.997507750988007
      ],
      "scale": [
        1.0,
        1.0,
        1.0
      ],
      "children": [
        6
      ]
    },
    {
      "name": "spine_03",
      "translation": [
        1.3789391151654E-17,
        0.0650288090109825,
        1.039955677129E-9
      ],
      "rotation": [
        -0.129990249872208,
        -1.54181962336297E-11,
        4.1165232333995E-10,
        0.991515278816223
      ],
      "scale": [
        1.0,
        1.0,
        1.0
      ],
      "children": [
        7,
        26,
        45
      ]
    },
    {
      "name": "clavicle_l",
      "translation": [
        0.0195586364716291,
        0.200260937213898,
        0.0592808537185192
      ],
      "rotation": [
        -0.00509815383702517,
        0.0510040335357189,
        -0.767384946346283,
        0.639134526252747
      ],
      "scale": [
        1.0,
        1.0,
        1.0
      ],
      "children": [
        8
      ]
    },
    {
      "name": "upperarm_l",
      "translation": [
        1.86399251589364E-8,
        0.121603190898895,
        -2.08663908374263E-9
      ],
      "rotation": [
        -0.0155411949381232,
        0.0307675059884787,
        -0.318194299936295,
        0.947398662567139
      ],
      "scale": [
        1.0,
        1.0,
        1.0
      ],
      "children": [
        9
      ]
    },
    {
      "name": "lowerarm_l",
      "translation": [
        -6.79291467520216E-9,
        0.201067864894867,
        5.3701226798708E-10
      ],
      "rotation": [
        0.384403616189957,
        -0.00428844662383199,
        -0.00851744040846825,
        0.923115849494934
      ],
      "scale": [
        1.0,
        1.0,
        1.0
      ],
      "children": [
        10
      ]
    },
    {
      "name": "hand_l",
      "translation": [
        1.92451832248253E-8,
        0.197489276528358,
        -1.59431365887031E-8
      ],
      "rotation": [
        0.10478413850069,
        0.43305629491806,
        -0.00459531042724848,
        0.895243763923645
      ],
      "scale": [
        1.0,
        1.0,
        1.0
      ],
      "children": [
        11,
        14,
        17,
        20,
        23
      ]
    },
    {
      "name": "index_01_l",
      "translation": [
        -0.00900913309305906,
        0.0866791307926178,
        0.00878447387367487
      ],
      "rotation": [
        0.122366398572922,
        0.469380587339401,
        -0.00707081332802773,
        0.874447464942932
      ],
      "scale": [
        1.0,
        1.0,
        1.0
      ],
      "children": [
        12
      ]
    },
    {
      "name": "index_02_l",
      "translation": [
        -3.59612672973242E-9,
        0.0211804267019033,
        -5.10202635695123E-9
      ],
      "rotation": [
        0.111437819898129,
        0.00300813023932278,
        0.00487588346004486,
        0.993754923343658
      ],
      "scale": [
        1.0,
        1.0,
        1.0
      ],
      "children": [
        13
      ]
    },
    {
      "name": "index_03_l",
      "translation": [
        1.96454461587336E-8,
        0.0189316533505917,
        2.10270911793486E-8
      ],
      "rotation": [
        0.0670659765601158,
        0.000109472595795523,
        0.0204010009765625,
        0.997539937496185
      ],
      "scale": [
        1.0,
        1.0,
        1.0
      ]
    },
    {
      "name": "middle_01_l",
      "translation": [
        0.00408018520101905,
        0.0836358889937401,
        -0.00829355325549841
      ],
      "rotation": [
        0.111008353531361,
        0.40530064702034,
        -0.158210769295692,
        0.893519937992096
      ],
      "scale": [
        1.0,
        1.0,
        1.0
      ],
      "children": [
        15
      ]
    },
    {
      "name": "middle_02_l",
      "translation": [
        -4.38192682139515E-9,
        0.0276916213333607,
        -5.11996756102917E-9
      ],
      "rotation": [
        0.0503438897430897,
        0.00157255027443171,
        0.0373415276408195,
        0.99803239107132
      ],
      "scale": [
        1.0,
        1.0,
        1.0
      ],
      "children": [
        16
      ]
    },
    {
      "name": "middle_03_l",
      "translation": [
        6.74992728377788E-9,
        0.0227668192237616,
        6.18188344958526E-9
      ],
      "rotation": [
        0.0734663754701614,
        0.00000589137925999239,
        -0.00623575178906322,
        0.997278213500977
      ],
      "scale": [
        1.0,
        1.0,
        1.0
      ]
    },
    {
      "name": "pinky_01_l",
      "translation": [
        0.0288972202688456,
        0.0681508705019951,
        -0.0249034259468317
      ],
      "rotation": [
        0.0564569346606731,
        0.294758677482605,
        -0.308397978544235,
        0.90267413854599
      ],
      "scale": [
        1.0,
        1.0,
        1.0
      ],
      "children": [
        18
      ]
    },
    {
      "name": "pinky_02_l",
      "translation": [
        -5.62309487861512E-9,
        0.0175248682498932,
        -7.32512495105198E-9
      ],
      "rotation": [
        0.0935122668743134,
        0.000931359129026532,
        0.024709977209568,
        0.99531102180481
      ],
      "scale": [
        1.0,
        1.0,
        1.0
      ],
      "children": [
        19
      ]
    },
    {
      "name": "pinky_03_l",
      "translation": [
        6.47428066713474E-9,
        0.0127736674621701,
        3.83702891681992E-9
      ],
      "rotation": [
        -0.005285385530442,
        0.00000860731597640552,
        -0.0132322795689106,
        0.999898493289948
      ],
      "scale": [
        1.0,
        1.0,
        1.0
      ]
    },
    {
      "name": "ring_01_l",
      "translation": [
        0.0154150640591979,
        0.0772771686315536,
        -0.0186078045517206
      ],
      "rotation": [
        0.0636516436934471,
        0.383049875497818,
        -0.236892074346542,
        0.890563547611237
      ],
      "scale": [
        1.0,
        1.0,
        1.0
      ],
      "children": [
        21
      ]
    },
    {
      "name": "ring_02_l",
      "translation": [
        -1.04000574818741E-9,
        0.0244635958224535,
        -9.70208247075277E-10
      ],
      "rotation": [
        0.0646779760718346,
        0.00120805727783591,
        0.0447145812213421,
        0.99690318107605
      ],
      "scale": [
        1.0,
        1.0,
        1.0
      ],
      "children": [
        22
      ]
    },
    {
      "name": "ring_03_l",
      "translation": [
        9.68914282140076E-9,
        0.0203673578798771,
        9.52184286973079E-9
      ],
      "rotation": [
        0.066325843334198,
        -0.0000627884728601202,
        -0.0251429807394743,
        0.997481167316437
      ],
      "scale": [
        1.0,
        1.0,
        1.0
      ]
    },
    {
      "name": "thumb_01_l",
      "translation": [
        -0.0117622027173638,
        0.0328548774123192,
        0.0120487222447991
      ],
      "rotation": [
        0.293895661830902,
        0.714015781879425,
        0.444867134094238,
        0.453762084245682
      ],
      "scale": [
        1.0,
        1.0,
        1.0
      ],
      "children": [
        24
      ]
    },
    {
      "name": "thumb_02_l",
      "translation": [
        -3.28719385045417E-10,
        0.0255539026111364,
        -1.01014929754228E-8
      ],
      "rotation": [
        0.0663034170866013,
        -0.0179576389491558,
        -0.194534599781036,
        0.978487432003021
      ],
      "scale": [
        1.0,
        1.0,
        1.0
      ],
      "children": [
        25
      ]
    },
    {
      "name": "thumb_03_l",
      "translation": [
        -7.97858112910887E-10,
        0.0297030415385962,
        5.69197977640101E-9
      ],
      "rotation": [
        0.144989624619484,
        -0.00494906445965171,
        -0.0337537452578545,
        0.988844871520996
      ],
      "scale": [
        1.0,
        1.0,
        1.0
      ]
    },
    {
      "name": "clavicle_r",
      "translation": [
        -0.0195586364716291,
        0.200260937213898,
        0.0592808537185192
      ],
      "rotation": [
        -0.00509815383702517,
        -0.0510040335357189,
        0.767384946346283,
        0.639134526252747
      ],
      "scale": [
        1.0,
        1.0,
        1.0
      ],
      "children": [
        27
      ]
    },
    {
      "name": "upperarm_r",
      "translation": [
        -1.86399251589364E-8,
        0.121603190898895,
        -2.08663908374263E-9
      ],
      "rotation": [
        -0.0155411949381232,
        -0.0307675059884787,
        0.318194299936295,
        0.947398662567139
      ],
      "scale": [
        1.0,
        1.0,
        1.0
      ],
      "children": [
        28
      ]
    },
    {
      "name": "lowerarm_r",
      "translation": [
        6.79291467520216E-9,
        0.201067864894867,
        5.3701226798708E-10
      ],
      "rotation": [
        0.384403616189957,
        0.00428844662383199,
        0.00851744040846825,
        0.923115849494934
      ],
      "scale": [
        1.0,
        1.0,
        1.0
      ],
      "children": [
        29
      ]
    },
    {
      "name": "hand_r",
      "translation": [
        -1.92451832248253E-8,
        0.197489276528358,
        -1.59431365887031E-8
      ],
      "rotation": [
        0.10478413850069,
        -0.43305629491806,
        0.00459531042724848,
        0.895243763923645
      ],
      "scale": [
        1.0,
        1.0,
        1.0
      ],
      "children": [
        30,
        33,
        36,
        39,
        42
      ]
    },
    {
      "name": "index_01_r",
      "translation": [
        0.00900913309305906,
        0.0866791307926178,
        0.00878447387367487
      ],
      "rotation": [
        0.122366398572922,
        -0.469380587339401,
        0.00707081332802773,
        0.874447464942932
      ],
      "scale": [
        1.0,
        1.0,
        1.0
      ],
      "children": [
        31
      ]
    },
    {
      "name": "index_02_r",
      "translation": [
        3.59612672973242E-9,
        0.0211804267019033,
        -5.10202635695123E-9
      ],
      "rotation": [
        0.111437819898129,
        -0.00300813023932278,
        -0.00487588346004486,
        0.993754923343658
      ],
      "scale": [
        1.0,
        1.0,
        1.0
      ],
      "children": [
        32
      ]
    },
    {
      "name": "index_03_r",
      "translation": [
        -1.96454461587336E-8,
        0.0189316533505917,
        2.10270911793486E-8
      ],
      "rotation": [
        0.0670659765601158,
        -0.000109472595795523,
        -0.0204010009765625,
        0.997539937496185
      ],
      "scale": [
        1.0,
        1.0,
        1.0
      ]
    },
    {
      "name": "middle_01_r",
      "translation": [
        -0.00408018520101905,
        0.0836358889937401,
        -0.00829355325549841
      ],
      "rotation": [
        0.111008353531361,
        -0.40530064702034,
        0.158210769295692,
        0.893519937992096
      ],
      "scale": [
        1.0,
        1.0,
        1.0
      ],
      "children": [
        34
      ]
    },
    {
      "name": "middle_02_r",
      "translation": [
        4.38192637730594E-9,
        0.0276916213333607,
        -5.11996756102917E-9
      ],
      "rotation": [
        0.0503438897430897,
        -0.00157255027443171,
        -0.0373415276408195,
        0.99803239107132
      ],
      "scale": [
        1.0,
        1.0,
        1.0
      ],
      "children": [
        35
      ]
    },
    {
      "name": "middle_03_r",
      "translation": [
        -6.74992728377788E-9,
        0.0227668192237616,
        6.18188344958526E-9
      ],
      "rotation": [
        0.0734663754701614,
        -0.00000589137925999239,
        0.00623575178906322,
        0.997278213500977
      ],
      "scale": [
        1.0,
        1.0,
        1.0
      ]
    },
    {
      "name": "pinky_01_r",
      "translation": [
        -0.0288972202688456,
        0.0681508705019951,
        -0.0249034259468317
      ],
      "rotation": [
        0.0564569346606731,
        -0.294758677482605,
        0.308397978544235,
        0.90267413854599
      ],
      "scale": [
        1.0,
        1.0,
        1.0
      ],
      "children": [
        37
      ]
    },
    {
      "name": "pinky_02_r",
      "translation": [
        5.62309487861512E-9,
        0.0175248682498932,
        -7.32512495105198E-9
      ],
      "rotation": [
        0.0935122668743134,
        -0.000931359129026532,
        -0.024709977209568,
        0.99531102180481
      ],
      "scale": [
        1.0,
        1.0,
        1.0
      ],
      "children": [
        38
      ]
    },
    {
      "name": "pinky_03_r",
      "translation": [
        -6.47428066713474E-9,
        0.0127736674621701,
        3.83702891681992E-9
      ],
      "rotation": [
        -0.005285385530442,
        -0.00000860731597640552,
        0.0132322795689106,
        0.999898493289948
      ],
      "scale": [
        1.0,
        1.0,
        1.0
      ]
    },
    {
      "name": "ring_01_r",
      "translation": [
        -0.0154150640591979,
        0.0772771686315536,
        -0.0186078045517206
      ],
      "rotation": [
        0.0636516436934471,
        -0.383049875497818,
        0.236892074346542,
        0.890563547611237
      ],
      "scale": [
        1.0,
        1.0,
        1.0
      ],
      "children": [
        40
      ]
    },
    {
      "name": "ring_02_r",
      "translation": [
        1.04000574818741E-9,
        0.0244635958224535,
        -9.70208247075277E-10
      ],
      "rotation": [
        0.0646779760718346,
        -0.00120805727783591,
        -0.0447145812213421,
        0.99690318107605
      ],
      "scale": [
        1.0,
        1.0,
        1.0
      ],
      "children": [
        41
      ]
    },
    {
      "name": "ring_03_r",
      "translation": [
        -9.68914282140076E-9,
        0.0203673578798771,
        9.52184286973079E-9
      ],
      "rotation": [
        0.066325843334198,
        0.0000627884728601202,
        0.0251429807394743,
        0.997481167316437
      ],
      "scale": [
        1.0,
        1.0,
        1.0
      ]
    },
    {
      "name": "thumb_01_r",
      "translation": [
        0.0117622027173638,
        0.0328548774123192,
        0.0120487222447991
      ],
      "rotation": [
        -0.293895661830902,
        0.714015781879425,
        0.444867134094238,
        -0.453762084245682
      ],
      "scale": [
        1.0,
        1.0,
        1.0
      ],
      "children": [
        43
      ]
    },
    {
      "name": "thumb_02_r",
      "translation": [
        3.28719385045417E-10,
        0.0255539026111364,
        -1.01014929754228E-8
      ],
      "rotation": [
        0.0663034170866013,
        0.0179576389491558,
        0.194534599781036,
        0.978487432003021
      ],
      "scale": [
        1.0,
        1.0,
        1.0
      ],
      "children": [
        44
      ]
    },
    {
      "name": "thumb_03_r",
      "translation": [
        7.97858057399736E-10,
        0.0297030415385962,
        5.69197977640101E-9
      ],
      "rotation": [
        0.144989624619484,
        0.00494906445965171,
        0.0337537452578545,
        0.988844871520996
      ],
      "scale": [
        1.0,
        1.0,
        1.0
      ]
    },
    {
      "name": "neck_01",
      "translation": [
        -2.47900380778709E-11,
        0.258580088615417,
        0.0538483522832394
      ],
      "rotation": [
        0.26898917555809,
        1.75045133943286E-9,
        1.21315665846389E-10,
        0.963143229484558
      ],
      "scale": [
        1.0,
        1.0,
        1.0
      ],
      "children": [
        46
      ]
    },
    {
      "name": "head",
      "translation": [
        2.6816490287497E-18,
        0.0934165939688683,
        1.37200042993335E-10
      ],
      "rotation": [
        -0.201067909598351,
        -1.56417778729434E-9,
        -6.66276755989514E-11,
        0.979577302932739
      ],
      "scale": [
        1.0,
        1.0,
        1.0
      ]
    },
    {
      "name": "thigh_l",
      "translation": [
        0.0858488753437996,
        -0.0133970631286502,
        -0.00783239956945181
      ],
      "rotation": [
        0.949327707290649,
        0.10191436111927,
        -0.203505739569664,
        -0.21673895418644
      ],
      "scale": [
        1.0,
        1.0,
        1.0
      ],
      "children": [
        48
      ]
    },
    {
      "name": "calf_l",
      "translation": [
        -1.06134011301773E-10,
        0.329060405492783,
        -1.64148039605294E-9
      ],
      "rotation": [
        0.0763117372989655,
        0.231831565499306,
        -0.0153561541810632,
        0.9696364402771
      ],
      "scale": [
        1.0,
        1.0,
        1.0
      ],
      "children": [
        49
      ]
    },
    {
      "name": "foot_l",
      "translation": [
        7.16216252971691E-10,
        0.337989538908005,
        1.00890462650938E-9
      ],
      "rotation": [
        -0.543318748474121,
        1.3627894190904E-7,
        1.16759920842924E-7,
        0.839526534080505
      ],
      "scale": [
        1.0,
        1.0,
        1.0
      ],
      "children": [
        50
      ]
    },
    {
      "name": "ball_l",
      "translation": [
        -1.30889354910124E-10,
        0.10579477250576,
        -6.23157914159123E-10
      ],
      "rotation": [
        -0.27332615852356,
        0.0182318855077028,
        0.024910431355238,
        0.961425960063934
      ],
      "scale": [
        1.0,
        1.0,
        1.0
      ]
    },
    {
      "name": "thigh_r",
      "translation": [
        -0.0858488753437996,
        -0.0133970631286502,
        -0.00783239956945181
      ],
      "rotation": [
        0.949327707290649,
        -0.10191436111927,
        0.203505739569664,
        -0.21673895418644
      ],
      "scale": [
        1.0,
        1.0,
        1.0
      ],
      "children": [
        52
      ]
    },
    {
      "name": "calf_r",
      "translation": [
        1.06133976607303E-10,
        0.329060405492783,
        -1.64148039605294E-9
      ],
      "rotation": [
        0.0763117372989655,
        -0.231831565499306,
        0.0153561541810632,
        0.9696364402771
      ],
      "scale": [
        1.0,
        1.0,
        1.0
      ],
      "children": [
        53
      ]
    },
    {
      "name": "foot_r",
      "translation": [
        -7.16216252971691E-10,
        0.337989538908005,
        1.00890462650938E-9
      ],
      "rotation": [
        -0.543318748474121,
        -1.3627894190904E-7,
        -1.16759920842924E-7,
        0.839526534080505
      ],
      "scale": [
        1.0,
        1.0,
        1.0
      ],
      "children": [
        54
      ]
    },
    {
      "name": "ball_r",
      "translation": [
        1.308893826657E-10,
        0.10579477250576,
        -6.23157914159123E-10
      ],
      "rotation": [
        -0.27332615852356,
        -0.0182318855077028,
        -0.024910431355238,
        0.961425960063934
      ],
      "scale": [
        1.0,
        1.0,
        1.0
      ]
    },
    {
      "name": "teen_femaleMesh",
      "translation": [
        0.0,
        0.0,
        0.0
      ],
      "rotation": [
        0.0,
        0.0,
        0.0,
        1.0
      ],
      "scale": [
        10.0,
        10.0,
        10.0
      ],
      "mesh": 0,
      "skin": 0
    },
    {
      "name": "high-polyMesh",
      "translation": [
        0.0,
        0.0,
        0.0
      ],
      "rotation": [
        0.0,
        0.0,
        0.0,
        1.0
      ],
      "scale": [
        10.0,
        10.0,
        10.0
      ],
      "mesh": 1,
      "skin": 1
    }
  ]
}
