{
  "asset": {
    "generator": "FBX2glTF v0.13.1",
    "version": "2.0"
  },
  "scene": 0,
  "buffers": [
    {
      "byteLength": 1236492,
      "uri": "teen-male0.bin"
    }
  ],
  "bufferViews": [
    {
      "buffer": 0,
      "byteLength": 160536,
      "byteOffset": 0,
      "target": 34963
    },
    {
      "buffer": 0,
      "byteLength": 174204,
      "byteOffset": 160536,
      "target": 34962
    },
    {
      "buffer": 0,
      "byteLength": 116136,
      "byteOffset": 334740,
      "target": 34962
    },
    {
      "buffer": 0,
      "byteLength": 116136,
      "byteOffset": 450876,
      "target": 34962
    },
    {
      "buffer": 0,
      "byteLength": 116136,
      "byteOffset": 567012,
      "target": 34962
    },
    {
      "buffer": 0,
      "byteLength": 232272,
      "byteOffset": 683148,
      "target": 34962
    },
    {
      "buffer": 0,
      "byteLength": 232272,
      "byteOffset": 915420,
      "target": 34962
    },
    {
      "buffer": 0,
      "byteLength": 12240,
      "byteOffset": 1147692,
      "target": 34963
    },
    {
      "buffer": 0,
      "byteLength": 12912,
      "byteOffset": 1159932,
      "target": 34962
    },
    {
      "buffer": 0,
      "byteLength": 8608,
      "byteOffset": 1172844,
      "target": 34962
    },
    {
      "buffer": 0,
      "byteLength": 8608,
      "byteOffset": 1181452,
      "target": 34962
    },
    {
      "buffer": 0,
      "byteLength": 8608,
      "byteOffset": 1190060,
      "target": 34962
    },
    {
      "buffer": 0,
      "byteLength": 17216,
      "byteOffset": 1198668,
      "target": 34962
    },
    {
      "buffer": 0,
      "byteLength": 17216,
      "byteOffset": 1215884,
      "target": 34962
    },
    {
      "buffer": 0,
      "byteLength": 3328,
      "byteOffset": 1233100
    },
    {
      "buffer": 0,
      "byteLength": 64,
      "byteOffset": 1236428
    }
  ],
  "scenes": [
    {
      "name": "Root Scene",
      "nodes": [
        0
      ]
    }
  ],
  "accessors": [
    {
      "componentType": 5123,
      "type": "SCALAR",
      "count": 80268,
      "bufferView": 0,
      "byteOffset": 0
    },
    {
      "componentType": 5126,
      "type": "VEC3",
      "count": 14517,
      "bufferView": 1,
      "byteOffset": 0,
      "min": [
        -0.475934356451035,
        0.000223312366870232,
        -0.0876436308026314
      ],
      "max": [
        0.475934356451035,
        1.49919855594635,
        0.311666399240494
      ]
    },
    {
      "componentType": 5126,
      "type": "VEC2",
      "count": 14517,
      "bufferView": 2,
      "byteOffset": 0
    },
    {
      "componentType": 5123,
      "type": "VEC4",
      "count": 14517,
      "bufferView": 3,
      "byteOffset": 0
    },
    {
      "componentType": 5123,
      "type": "VEC4",
      "count": 14517,
      "bufferView": 4,
      "byteOffset": 0
    },
    {
      "componentType": 5126,
      "type": "VEC4",
      "count": 14517,
      "bufferView": 5,
      "byteOffset": 0
    },
    {
      "componentType": 5126,
      "type": "VEC4",
      "count": 14517,
      "bufferView": 6,
      "byteOffset": 0
    },
    {
      "componentType": 5123,
      "type": "SCALAR",
      "count": 6120,
      "bufferView": 7,
      "byteOffset": 0
    },
    {
      "componentType": 5126,
      "type": "VEC3",
      "count": 1076,
      "bufferView": 8,
      "byteOffset": 0,
      "min": [
        -0.0430987738072872,
        1.38045072555542,
        0.113582700490952
      ],
      "max": [
        0.0430987738072872,
        1.40964674949646,
        0.137309744954109
      ]
    },
    {
      "componentType": 5126,
      "type": "VEC2",
      "count": 1076,
      "bufferView": 9,
      "byteOffset": 0
    },
    {
      "componentType": 5123,
      "type": "VEC4",
      "count": 1076,
      "bufferView": 10,
      "byteOffset": 0
    },
    {
      "componentType": 5123,
      "type": "VEC4",
      "count": 1076,
      "bufferView": 11,
      "byteOffset": 0
    },
    {
      "componentType": 5126,
      "type": "VEC4",
      "count": 1076,
      "bufferView": 12,
      "byteOffset": 0
    },
    {
      "componentType": 5126,
      "type": "VEC4",
      "count": 1076,
      "bufferView": 13,
      "byteOffset": 0
    },
    {
      "componentType": 5126,
      "type": "MAT4",
      "count": 52,
      "bufferView": 14,
      "byteOffset": 0
    },
    {
      "componentType": 5126,
      "type": "MAT4",
      "count": 1,
      "bufferView": 15,
      "byteOffset": 0
    }
  ],
  "images": [
    {
      "name": "brown_eye.png",
      "uri": "brown_eye.png"
    }
  ],
  "samplers": [
    {}
  ],
  "textures": [
    {
      "name": "brown_eye_png",
      "sampler": 0,
      "source": 0
    }
  ],
  "materials": [
    {
      "name": "teen_male",
      "alphaMode": "OPAQUE",
      "doubleSided": false,
      "extras": {
        "fromFBX": {
          "shadingModel": "Phong",
          "isTruePBR": false
        }
      },
      "pbrMetallicRoughness": {
        "baseColorFactor": [
          0.590333342552185,
          0.439999997615814,
          0.337999999523163,
          1.0
        ],
        "metallicFactor": 0.400000005960464,
        "roughnessFactor": 0.821994960308075
      }
    },
    {
      "name": "high-poly",
      "alphaMode": "BLEND",
      "doubleSided": false,
      "extras": {
        "fromFBX": {
          "shadingModel": "Phong",
          "isTruePBR": false
        }
      },
      "pbrMetallicRoughness": {
        "baseColorTexture": {
          "index": 0,
          "texCoord": 0
        },
        "baseColorFactor": [
          1.0,
          1.0,
          1.0,
          1.0
        ],
        "metallicFactor": 0.400000005960464,
        "roughnessFactor": 0.816496610641479
      }
    }
  ],
  "meshes": [
    {
      "name": "teen_maleMesh",
      "primitives": [
        {
          "material": 0,
          "mode": 4,
          "attributes": {
            "JOINTS_0": 3,
            "JOINTS_1": 4,
            "POSITION": 1,
            "TEXCOORD_0": 2,
            "WEIGHTS_0": 5,
            "WEIGHTS_1": 6
          },
          "indices": 0
        }
      ]
    },
    {
      "name": "high-polyMesh",
      "primitives": [
        {
          "material": 1,
          "mode": 4,
          "attributes": {
            "JOINTS_0": 10,
            "JOINTS_1": 11,
            "POSITION": 8,
            "TEXCOORD_0": 9,
            "WEIGHTS_0": 12,
            "WEIGHTS_1": 13
          },
          "indices": 7
        }
      ]
    }
  ],
  "skins": [
    {
      "joints": [
        3,
        4,
        47,
        51,
        5,
        48,
        52,
        6,
        49,
        53,
        7,
        26,
        45,
        50,
        54,
        8,
        27,
        46,
        9,
        28,
        10,
        29,
        11,
        14,
        17,
        20,
        23,
        30,
        33,
        36,
        39,
        42,
        12,
        15,
        18,
        21,
        24,
        31,
        34,
        37,
        40,
        43,
        13,
        16,
        19,
        22,
        25,
        32,
        35,
        38,
        41,
        44
      ],
      "inverseBindMatrices": 14,
      "skeleton": 3
    },
    {
      "joints": [
        46
      ],
      "inverseBindMatrices": 15,
      "skeleton": 46
    },
    {
      "joints": [
        2,
        3,
        4,
        5,
        6,
        7,
        8,
        9,
        10,
        11,
        12,
        13,
        14,
        15,
        16,
        17,
        18,
        19,
        20,
        21,
        22,
        23,
        24,
        25,
        26,
        27,
        28,
        29,
        30,
        31,
        32,
        33,
        34,
        35,
        36,
        37,
        38,
        39,
        40,
        41,
        42,
        43,
        44,
        45,
        46,
        47,
        48,
        49,
        50,
        51,
        52,
        53,
        54
      ]
    }
  ],
  "nodes": [
    {
      "name": "RootNode",
      "translation": [
        0.0,
        0.0,
        0.0
      ],
      "rotation": [
        0.0,
        0.0,
        0.0,
        1.0
      ],
      "scale": [
        1.0,
        1.0,
        1.0
      ],
      "children": [
        1,
        55,
        56
      ]
    },
    {
      "name": "Game_engine",
      "translation": [
        0.0,
        0.0,
        0.0
      ],
      "rotation": [
        0.0,
        0.0,
        0.0,
        1.0
      ],
      "scale": [
        10.0,
        10.0,
        10.0
      ],
      "children": [
        2
      ]
    },
    {
      "name": "Root",
      "translation": [
        0.0,
        7.62939436071974E-8,
        -0.0254466645419598
      ],
      "rotation": [
        0.5,
        0.5,
        0.5,
        0.5
      ],
      "scale": [
        1.0,
        1.0,
        1.0
      ],
      "children": [
        3
      ]
    },
    {
      "name": "pelvis",
      "translation": [
        0.786032378673553,
        0.0297776889055967,
        -4.65661259552164E-11
      ],
      "rotation": [
        0.578412473201752,
        0.406741917133331,
        0.578412473201752,
        -0.406741917133331
      ],
      "scale": [
        1.0,
        1.0,
        1.0
      ],
      "children": [
        4,
        47,
        51
      ]
    },
    {
      "name": "spine_01",
      "translation": [
        -2.26112219265147E-18,
        0.0831357017159462,
        -3.09378767049395E-9
      ],
      "rotation": [
        0.238041326403618,
        4.02226793538851E-11,
        -1.64116567558104E-10,
        0.971255004405975
      ],
      "scale": [
        1.0,
        1.0,
        1.0
      ],
      "children": [
        5
      ]
    },
    {
      "name": "spine_02",
      "translation": [
        -1.52259631661003E-18,
        0.061769962310791,
        -2.34956742950487E-9
      ],
      "rotation": [
        -0.111527875065804,
        -7.91947479816812E-11,
        -3.69820063461646E-10,
        0.993761301040649
      ],
      "scale": [
        1.0,
        1.0,
        1.0
      ],
      "children": [
        6
      ]
    },
    {
      "name": "spine_03",
      "translation": [
        8.00050825540575E-18,
        0.0519516207277775,
        -7.2264128014865E-10
      ],
      "rotation": [
        -0.072547011077404,
        2.23395277970662E-11,
        4.94275120832555E-10,
        0.99736499786377
      ],
      "scale": [
        1.0,
        1.0,
        1.0
      ],
      "children": [
        7,
        26,
        45
      ]
    },
    {
      "name": "clavicle_l",
      "translation": [
        0.0198553334921598,
        0.2140082269907,
        0.103154383599758
      ],
      "rotation": [
        0.00210612593218684,
        0.105551585555077,
        -0.77473372220993,
        0.623411655426025
      ],
      "scale": [
        1.0,
        1.0,
        1.0
      ],
      "children": [
        8
      ]
    },
    {
      "name": "upperarm_l",
      "translation": [
        3.81266964666338E-8,
        0.144804611802101,
        -2.29603558388192E-9
      ],
      "rotation": [
        0.0261838976293802,
        0.01725266687572,
        -0.304054111242294,
        0.952138543128967
      ],
      "scale": [
        1.0,
        1.0,
        1.0
      ],
      "children": [
        9
      ]
    },
    {
      "name": "lowerarm_l",
      "translation": [
        1.57495883001957E-8,
        0.211253806948662,
        -1.47963208352309E-9
      ],
      "rotation": [
        0.387819677591324,
        -0.00223670736886561,
        -0.00503692450001836,
        0.921718776226044
      ],
      "scale": [
        1.0,
        1.0,
        1.0
      ],
      "children": [
        10
      ]
    },
    {
      "name": "hand_l",
      "translation": [
        8.34271141059162E-9,
        0.219273373484612,
        -7.35346361580014E-9
      ],
      "rotation": [
        0.0966791659593582,
        0.433224558830261,
        0.0106240790337324,
        0.896022737026215
      ],
      "scale": [
        1.0,
        1.0,
        1.0
      ],
      "children": [
        11,
        14,
        17,
        20,
        23
      ]
    },
    {
      "name": "index_01_l",
      "translation": [
        -0.0077412691898644,
        0.0951035395264626,
        0.0115043818950653
      ],
      "rotation": [
        0.136575847864151,
        0.46790075302124,
        -0.0124280182644725,
        0.873075842857361
      ],
      "scale": [
        1.0,
        1.0,
        1.0
      ],
      "children": [
        12
      ]
    },
    {
      "name": "index_02_l",
      "translation": [
        2.65940958144029E-9,
        0.0233205314725637,
        3.59262175564368E-9
      ],
      "rotation": [
        0.107619807124138,
        0.00288237887434661,
        0.00496915122494102,
        0.994175553321838
      ],
      "scale": [
        1.0,
        1.0,
        1.0
      ],
      "children": [
        13
      ]
    },
    {
      "name": "index_03_l",
      "translation": [
        -7.09813807731052E-9,
        0.0209012646228075,
        -7.79365016967404E-9
      ],
      "rotation": [
        0.0694936215877533,
        0.0000985375008895062,
        0.0203092992305756,
        0.99737560749054
      ],
      "scale": [
        1.0,
        1.0,
        1.0
      ]
    },
    {
      "name": "middle_01_l",
      "translation": [
        0.00673171132802963,
        0.0919422209262848,
        -0.0070570451207459
      ],
      "rotation": [
        0.122578881680965,
        0.406211018562317,
        -0.163412377238274,
        0.890653371810913
      ],
      "scale": [
        1.0,
        1.0,
        1.0
      ],
      "children": [
        15
      ]
    },
    {
      "name": "middle_02_l",
      "translation": [
        1.41106504258914E-8,
        0.0303831025958061,
        1.7675485963764E-8
      ],
      "rotation": [
        0.0552010275423527,
        0.00175240740645677,
        0.0372304953634739,
        0.997779369354248
      ],
      "scale": [
        1.0,
        1.0,
        1.0
      ],
      "children": [
        16
      ]
    },
    {
      "name": "middle_03_l",
      "translation": [
        4.54860460408213E-9,
        0.0247602332383394,
        3.98252408828625E-9
      ],
      "rotation": [
        0.0673889145255089,
        0.00000424467816628749,
        -0.00561011210083961,
        0.997711002826691
      ],
      "scale": [
        1.0,
        1.0,
        1.0
      ]
    },
    {
      "name": "pinky_01_l",
      "translation": [
        0.0335939005017281,
        0.0744049847126007,
        -0.0256381165236235
      ],
      "rotation": [
        0.0700247064232826,
        0.294991016387939,
        -0.313098520040512,
        0.90002566576004
      ],
      "scale": [
        1.0,
        1.0,
        1.0
      ],
      "children": [
        18
      ]
    },
    {
      "name": "pinky_02_l",
      "translation": [
        -3.07350078720958E-9,
        0.0192565266042948,
        -3.56632412490399E-9
      ],
      "rotation": [
        0.0928301140666008,
        0.000711324100848287,
        0.0217969194054604,
        0.995443105697632
      ],
      "scale": [
        1.0,
        1.0,
        1.0
      ],
      "children": [
        19
      ]
    },
    {
      "name": "pinky_03_l",
      "translation": [
        -1.4354605504252E-8,
        0.0139779215678573,
        -8.51472137242126E-9
      ],
      "rotation": [
        -0.00317286583594978,
        0.00000493277775603929,
        -0.0126843275502324,
        0.999914526939392
      ],
      "scale": [
        1.0,
        1.0,
        1.0
      ]
    },
    {
      "name": "ring_01_l",
      "translation": [
        0.0189496967941523,
        0.0847367346286774,
        -0.0185749400407076
      ],
      "rotation": [
        0.0776121839880943,
        0.382754117250443,
        -0.244037330150604,
        0.887649357318878
      ],
      "scale": [
        1.0,
        1.0,
        1.0
      ],
      "children": [
        21
      ]
    },
    {
      "name": "ring_02_l",
      "translation": [
        -1.74391114882155E-8,
        0.0268636103719473,
        -2.66234465584603E-8
      ],
      "rotation": [
        0.0626130402088165,
        0.00117380789015442,
        0.046178076416254,
        0.996968328952789
      ],
      "scale": [
        1.0,
        1.0,
        1.0
      ],
      "children": [
        22
      ]
    },
    {
      "name": "ring_03_l",
      "translation": [
        3.71306851931763E-9,
        0.0223274789750576,
        3.76100883769936E-9
      ],
      "rotation": [
        0.0667481124401093,
        -0.0000616216930211522,
        -0.026555061340332,
        0.997416436672211
      ],
      "scale": [
        1.0,
        1.0,
        1.0
      ]
    },
    {
      "name": "thumb_01_l",
      "translation": [
        -0.0128481723368168,
        0.0366383939981461,
        0.0132106551900506
      ],
      "rotation": [
        0.320334106683731,
        0.698443651199341,
        0.443378657102585,
        0.461495280265808
      ],
      "scale": [
        1.0,
        1.0,
        1.0
      ],
      "children": [
        24
      ]
    },
    {
      "name": "thumb_02_l",
      "translation": [
        -1.14505946391397E-10,
        0.0283432006835938,
        -3.27375460074109E-10
      ],
      "rotation": [
        0.055193766951561,
        -0.015723655000329,
        -0.204771891236305,
        0.977125823497772
      ],
      "scale": [
        1.0,
        1.0,
        1.0
      ],
      "children": [
        25
      ]
    },
    {
      "name": "thumb_03_l",
      "translation": [
        6.61737886709091E-10,
        0.0327597223222256,
        -9.03893226933405E-9
      ],
      "rotation": [
        0.145739912986755,
        -0.00517253391444683,
        -0.0350892692804337,
        0.988686919212341
      ],
      "scale": [
        1.0,
        1.0,
        1.0
      ]
    },
    {
      "name": "clavicle_r",
      "translation": [
        -0.0198553334921598,
        0.2140082269907,
        0.103154383599758
      ],
      "rotation": [
        0.00210612639784813,
        -0.105551578104496,
        0.77473372220993,
        0.623411655426025
      ],
      "scale": [
        1.0,
        1.0,
        1.0
      ],
      "children": [
        27
      ]
    },
    {
      "name": "upperarm_r",
      "translation": [
        -3.81266964666338E-8,
        0.144804611802101,
        -2.29603558388192E-9
      ],
      "rotation": [
        0.0261838976293802,
        -0.01725266687572,
        0.304054111242294,
        0.952138543128967
      ],
      "scale": [
        1.0,
        1.0,
        1.0
      ],
      "children": [
        28
      ]
    },
    {
      "name": "lowerarm_r",
      "translation": [
        -1.57495883001957E-8,
        0.211253806948662,
        -1.47963208352309E-9
      ],
      "rotation": [
        0.387819677591324,
        0.00223670736886561,
        0.00503692450001836,
        0.921718776226044
      ],
      "scale": [
        1.0,
        1.0,
        1.0
      ],
      "children": [
        29
      ]
    },
    {
      "name": "hand_r",
      "translation": [
        -8.34271141059162E-9,
        0.219273373484612,
        -7.35346361580014E-9
      ],
      "rotation": [
        0.0966791659593582,
        -0.433224558830261,
        -0.0106240790337324,
        0.896022737026215
      ],
      "scale": [
        1.0,
        1.0,
        1.0
      ],
      "children": [
        30,
        33,
        36,
        39,
        42
      ]
    },
    {
      "name": "index_01_r",
      "translation": [
        0.0077412691898644,
        0.0951035395264626,
        0.0115043818950653
      ],
      "rotation": [
        0.136575847864151,
        -0.46790075302124,
        0.0124280182644725,
        0.873075842857361
      ],
      "scale": [
        1.0,
        1.0,
        1.0
      ],
      "children": [
        31
      ]
    },
    {
      "name": "index_02_r",
      "translation": [
        -2.65940958144029E-9,
        0.0233205314725637,
        3.59262175564368E-9
      ],
      "rotation": [
        0.107619807124138,
        -0.00288237887434661,
        -0.00496915122494102,
        0.994175553321838
      ],
      "scale": [
        1.0,
        1.0,
        1.0
      ],
      "children": [
        32
      ]
    },
    {
      "name": "index_03_r",
      "translation": [
        7.09813807731052E-9,
        0.0209012646228075,
        -7.79365016967404E-9
      ],
      "rotation": [
        0.0694936215877533,
        -0.0000985375008895062,
        -0.0203092992305756,
        0.99737560749054
      ],
      "scale": [
        1.0,
        1.0,
        1.0
      ]
    },
    {
      "name": "middle_01_r",
      "translation": [
        -0.00673171132802963,
        0.0919422209262848,
        -0.0070570451207459
      ],
      "rotation": [
        0.122578881680965,
        -0.406211018562317,
        0.163412377238274,
        0.890653371810913
      ],
      "scale": [
        1.0,
        1.0,
        1.0
      ],
      "children": [
        34
      ]
    },
    {
      "name": "middle_02_r",
      "translation": [
        -1.41106504258914E-8,
        0.0303831025958061,
        1.7675485963764E-8
      ],
      "rotation": [
        0.0552010275423527,
        -0.00175240740645677,
        -0.0372304953634739,
        0.997779369354248
      ],
      "scale": [
        1.0,
        1.0,
        1.0
      ],
      "children": [
        35
      ]
    },
    {
      "name": "middle_03_r",
      "translation": [
        -4.54860460408213E-9,
        0.0247602332383394,
        3.98252408828625E-9
      ],
      "rotation": [
        0.0673889145255089,
        -0.00000424467816628749,
        0.00561011210083961,
        0.997711002826691
      ],
      "scale": [
        1.0,
        1.0,
        1.0
      ]
    },
    {
      "name": "pinky_01_r",
      "translation": [
        -0.0335939005017281,
        0.0744049847126007,
        -0.0256381165236235
      ],
      "rotation": [
        0.0700247064232826,
        -0.294991016387939,
        0.313098520040512,
        0.90002566576004
      ],
      "scale": [
        1.0,
        1.0,
        1.0
      ],
      "children": [
        37
      ]
    },
    {
      "name": "pinky_02_r",
      "translation": [
        3.07350078720958E-9,
        0.0192565266042948,
        -3.56632412490399E-9
      ],
      "rotation": [
        0.0928301140666008,
        -0.000711324100848287,
        -0.0217969194054604,
        0.995443105697632
      ],
      "scale": [
        1.0,
        1.0,
        1.0
      ],
      "children": [
        38
      ]
    },
    {
      "name": "pinky_03_r",
      "translation": [
        1.4354605504252E-8,
        0.0139779215678573,
        -8.51472137242126E-9
      ],
      "rotation": [
        -0.00317286583594978,
        -0.00000493277775603929,
        0.0126843275502324,
        0.999914526939392
      ],
      "scale": [
        1.0,
        1.0,
        1.0
      ]
    },
    {
      "name": "ring_01_r",
      "translation": [
        -0.0189496967941523,
        0.0847367346286774,
        -0.0185749400407076
      ],
      "rotation": [
        0.0776121839880943,
        -0.382754117250443,
        0.244037330150604,
        0.887649357318878
      ],
      "scale": [
        1.0,
        1.0,
        1.0
      ],
      "children": [
        40
      ]
    },
    {
      "name": "ring_02_r",
      "translation": [
        1.74391114882155E-8,
        0.0268636103719473,
        -2.66234465584603E-8
      ],
      "rotation": [
        0.0626130402088165,
        -0.00117380789015442,
        -0.046178076416254,
        0.996968328952789
      ],
      "scale": [
        1.0,
        1.0,
        1.0
      ],
      "children": [
        41
      ]
    },
    {
      "name": "ring_03_r",
      "translation": [
        -3.71306851931763E-9,
        0.0223274789750576,
        3.76100928178857E-9
      ],
      "rotation": [
        0.0667481124401093,
        0.0000616216930211522,
        0.026555061340332,
        0.997416436672211
      ],
      "scale": [
        1.0,
        1.0,
        1.0
      ]
    },
    {
      "name": "thumb_01_r",
      "translation": [
        0.0128481723368168,
        0.0366383939981461,
        0.0132106551900506
      ],
      "rotation": [
        -0.320334106683731,
        0.698443651199341,
        0.443378657102585,
        -0.461495280265808
      ],
      "scale": [
        1.0,
        1.0,
        1.0
      ],
      "children": [
        43
      ]
    },
    {
      "name": "thumb_02_r",
      "translation": [
        1.14505807613519E-10,
        0.0283432006835938,
        -3.27375460074109E-10
      ],
      "rotation": [
        0.055193766951561,
        0.015723655000329,
        0.204771891236305,
        0.977125823497772
      ],
      "scale": [
        1.0,
        1.0,
        1.0
      ],
      "children": [
        44
      ]
    },
    {
      "name": "thumb_03_r",
      "translation": [
        -6.61737942220242E-10,
        0.0327597223222256,
        -9.03893226933405E-9
      ],
      "rotation": [
        0.145739912986755,
        0.00517253391444683,
        0.0350892692804337,
        0.988686919212341
      ],
      "scale": [
        1.0,
        1.0,
        1.0
      ]
    },
    {
      "name": "neck_01",
      "translation": [
        5.84613885079577E-11,
        0.277839034795761,
        0.097953662276268
      ],
      "rotation": [
        0.316922187805176,
        1.82457393638202E-9,
        4.2052816784377E-10,
        0.948451519012451
      ],
      "scale": [
        1.0,
        1.0,
        1.0
      ],
      "children": [
        46
      ]
    },
    {
      "name": "head",
      "translation": [
        9.81417900709747E-17,
        0.0924602523446083,
        -3.01914120370839E-8
      ],
      "rotation": [
        -0.212659001350403,
        -1.54522017403735E-9,
        -1.6682292700021E-11,
        0.977126479148865
      ],
      "scale": [
        1.0,
        1.0,
        1.0
      ]
    },
    {
      "name": "thigh_l",
      "translation": [
        0.0939084440469742,
        0.00423308741301298,
        -0.00819897744804621
      ],
      "rotation": [
        0.969317495822906,
        0.0700318291783333,
        -0.214157044887543,
        -0.0982642322778702
      ],
      "scale": [
        1.0,
        1.0,
        1.0
      ],
      "children": [
        48
      ]
    },
    {
      "name": "calf_l",
      "translation": [
        -6.26778240420123E-10,
        0.354481339454651,
        4.69270317049464E-11
      ],
      "rotation": [
        0.0892143920063972,
        0.235911458730698,
        -0.0318578667938709,
        0.967146158218384
      ],
      "scale": [
        1.0,
        1.0,
        1.0
      ],
      "children": [
        49
      ]
    },
    {
      "name": "foot_l",
      "translation": [
        1.7266935659066E-9,
        0.379797160625458,
        2.31232966108053E-9
      ],
      "rotation": [
        -0.550970137119293,
        -5.87742192692531E-8,
        -1.43998818202817E-7,
        0.834524989128113
      ],
      "scale": [
        1.0,
        1.0,
        1.0
      ],
      "children": [
        50
      ]
    },
    {
      "name": "ball_l",
      "translation": [
        7.7394125830299E-11,
        0.11865047365427,
        -1.3179355384807E-9
      ],
      "rotation": [
        -0.293326675891876,
        0.0179598405957222,
        0.00629061507061124,
        0.955822885036469
      ],
      "scale": [
        1.0,
        1.0,
        1.0
      ]
    },
    {
      "name": "thigh_r",
      "translation": [
        -0.0939084440469742,
        0.00423308741301298,
        -0.00819897744804621
      ],
      "rotation": [
        0.969317495822906,
        -0.0700318291783333,
        0.214157044887543,
        -0.0982642322778702
      ],
      "scale": [
        1.0,
        1.0,
        1.0
      ],
      "children": [
        52
      ]
    },
    {
      "name": "calf_r",
      "translation": [
        6.26778240420123E-10,
        0.354481339454651,
        4.69270490521811E-11
      ],
      "rotation": [
        0.0892143920063972,
        -0.235911458730698,
        0.0318578667938709,
        0.967146158218384
      ],
      "scale": [
        1.0,
        1.0,
        1.0
      ],
      "children": [
        53
      ]
    },
    {
      "name": "foot_r",
      "translation": [
        -1.7266935659066E-9,
        0.379797160625458,
        2.31232966108053E-9
      ],
      "rotation": [
        -0.550970137119293,
        5.87742192692531E-8,
        1.43998818202817E-7,
        0.834524989128113
      ],
      "scale": [
        1.0,
        1.0,
        1.0
      ],
      "children": [
        54
      ]
    },
    {
      "name": "ball_r",
      "translation": [
        -7.73941605247686E-11,
        0.11865047365427,
        -1.3179355384807E-9
      ],
      "rotation": [
        -0.293326675891876,
        -0.0179598405957222,
        -0.00629061507061124,
        0.955822885036469
      ],
      "scale": [
        1.0,
        1.0,
        1.0
      ]
    },
    {
      "name": "teen_maleMesh",
      "translation": [
        0.0,
        0.0,
        0.0
      ],
      "rotation": [
        0.0,
        0.0,
        0.0,
        1.0
      ],
      "scale": [
        10.0,
        10.0,
        10.0
      ],
      "mesh": 0,
      "skin": 0
    },
    {
      "name": "high-polyMesh",
      "translation": [
        0.0,
        0.0,
        0.0
      ],
      "rotation": [
        0.0,
        0.0,
        0.0,
        1.0
      ],
      "scale": [
        10.0,
        10.0,
        10.0
      ],
      "mesh": 1,
      "skin": 1
    }
  ]
}
