{
  "asset": {
    "generator": "FBX2glTF v0.13.1",
    "version": "2.0"
  },
  "scene": 0,
  "buffers": [
    {
      "byteLength": 1236492,
      "uri": "toddler0.bin"
    }
  ],
  "bufferViews": [
    {
      "buffer": 0,
      "byteLength": 160536,
      "byteOffset": 0,
      "target": 34963
    },
    {
      "buffer": 0,
      "byteLength": 174204,
      "byteOffset": 160536,
      "target": 34962
    },
    {
      "buffer": 0,
      "byteLength": 116136,
      "byteOffset": 334740,
      "target": 34962
    },
    {
      "buffer": 0,
      "byteLength": 116136,
      "byteOffset": 450876,
      "target": 34962
    },
    {
      "buffer": 0,
      "byteLength": 116136,
      "byteOffset": 567012,
      "target": 34962
    },
    {
      "buffer": 0,
      "byteLength": 232272,
      "byteOffset": 683148,
      "target": 34962
    },
    {
      "buffer": 0,
      "byteLength": 232272,
      "byteOffset": 915420,
      "target": 34962
    },
    {
      "buffer": 0,
      "byteLength": 12240,
      "byteOffset": 1147692,
      "target": 34963
    },
    {
      "buffer": 0,
      "byteLength": 12912,
      "byteOffset": 1159932,
      "target": 34962
    },
    {
      "buffer": 0,
      "byteLength": 8608,
      "byteOffset": 1172844,
      "target": 34962
    },
    {
      "buffer": 0,
      "byteLength": 8608,
      "byteOffset": 1181452,
      "target": 34962
    },
    {
      "buffer": 0,
      "byteLength": 8608,
      "byteOffset": 1190060,
      "target": 34962
    },
    {
      "buffer": 0,
      "byteLength": 17216,
      "byteOffset": 1198668,
      "target": 34962
    },
    {
      "buffer": 0,
      "byteLength": 17216,
      "byteOffset": 1215884,
      "target": 34962
    },
    {
      "buffer": 0,
      "byteLength": 3328,
      "byteOffset": 1233100
    },
    {
      "buffer": 0,
      "byteLength": 64,
      "byteOffset": 1236428
    }
  ],
  "scenes": [
    {
      "name": "Root Scene",
      "nodes": [
        0
      ]
    }
  ],
  "accessors": [
    {
      "componentType": 5123,
      "type": "SCALAR",
      "count": 80268,
      "bufferView": 0,
      "byteOffset": 0
    },
    {
      "componentType": 5126,
      "type": "VEC3",
      "count": 14517,
      "bufferView": 1,
      "byteOffset": 0,
      "min": [
        -0.237935081124306,
        -0.000658416713122278,
        -0.0514808222651482
      ],
      "max": [
        0.237935081124306,
        0.749783098697662,
        0.15635846555233
      ]
    },
    {
      "componentType": 5126,
      "type": "VEC2",
      "count": 14517,
      "bufferView": 2,
      "byteOffset": 0
    },
    {
      "componentType": 5123,
      "type": "VEC4",
      "count": 14517,
      "bufferView": 3,
      "byteOffset": 0
    },
    {
      "componentType": 5123,
      "type": "VEC4",
      "count": 14517,
      "bufferView": 4,
      "byteOffset": 0
    },
    {
      "componentType": 5126,
      "type": "VEC4",
      "count": 14517,
      "bufferView": 5,
      "byteOffset": 0
    },
    {
      "componentType": 5126,
      "type": "VEC4",
      "count": 14517,
      "bufferView": 6,
      "byteOffset": 0
    },
    {
      "componentType": 5123,
      "type": "SCALAR",
      "count": 6120,
      "bufferView": 7,
      "byteOffset": 0
    },
    {
      "componentType": 5126,
      "type": "VEC3",
      "count": 1076,
      "bufferView": 8,
      "byteOffset": 0,
      "min": [
        -0.0336780995130539,
        0.657464265823364,
        0.0543325357139111
      ],
      "max": [
        0.0336780995130539,
        0.683778643608093,
        0.0755605101585388
      ]
    },
    {
      "componentType": 5126,
      "type": "VEC2",
      "count": 1076,
      "bufferView": 9,
      "byteOffset": 0
    },
    {
      "componentType": 5123,
      "type": "VEC4",
      "count": 1076,
      "bufferView": 10,
      "byteOffset": 0
    },
    {
      "componentType": 5123,
      "type": "VEC4",
      "count": 1076,
      "bufferView": 11,
      "byteOffset": 0
    },
    {
      "componentType": 5126,
      "type": "VEC4",
      "count": 1076,
      "bufferView": 12,
      "byteOffset": 0
    },
    {
      "componentType": 5126,
      "type": "VEC4",
      "count": 1076,
      "bufferView": 13,
      "byteOffset": 0
    },
    {
      "componentType": 5126,
      "type": "MAT4",
      "count": 52,
      "bufferView": 14,
      "byteOffset": 0
    },
    {
      "componentType": 5126,
      "type": "MAT4",
      "count": 1,
      "bufferView": 15,
      "byteOffset": 0
    }
  ],
  "images": [
    {
      "name": "brown_eye.png",
      "uri": "brown_eye.png"
    }
  ],
  "samplers": [
    {}
  ],
  "textures": [
    {
      "name": "brown_eye_png",
      "sampler": 0,
      "source": 0
    }
  ],
  "materials": [
    {
      "name": "toddler",
      "alphaMode": "OPAQUE",
      "doubleSided": false,
      "extras": {
        "fromFBX": {
          "shadingModel": "Phong",
          "isTruePBR": false
        }
      },
      "pbrMetallicRoughness": {
        "baseColorFactor": [
          0.590333342552185,
          0.439999997615814,
          0.337999999523163,
          1.0
        ],
        "metallicFactor": 0.400000005960464,
        "roughnessFactor": 0.821994960308075
      }
    },
    {
      "name": "high-poly",
      "alphaMode": "BLEND",
      "doubleSided": false,
      "extras": {
        "fromFBX": {
          "shadingModel": "Phong",
          "isTruePBR": false
        }
      },
      "pbrMetallicRoughness": {
        "baseColorTexture": {
          "index": 0,
          "texCoord": 0
        },
        "baseColorFactor": [
          1.0,
          1.0,
          1.0,
          1.0
        ],
        "metallicFactor": 0.400000005960464,
        "roughnessFactor": 0.816496610641479
      }
    }
  ],
  "meshes": [
    {
      "name": "toddlerMesh",
      "primitives": [
        {
          "material": 0,
          "mode": 4,
          "attributes": {
            "JOINTS_0": 3,
            "JOINTS_1": 4,
            "POSITION": 1,
            "TEXCOORD_0": 2,
            "WEIGHTS_0": 5,
            "WEIGHTS_1": 6
          },
          "indices": 0
        }
      ]
    },
    {
      "name": "high-polyMesh",
      "primitives": [
        {
          "material": 1,
          "mode": 4,
          "attributes": {
            "JOINTS_0": 10,
            "JOINTS_1": 11,
            "POSITION": 8,
            "TEXCOORD_0": 9,
            "WEIGHTS_0": 12,
            "WEIGHTS_1": 13
          },
          "indices": 7
        }
      ]
    }
  ],
  "skins": [
    {
      "joints": [
        3,
        4,
        47,
        51,
        5,
        48,
        52,
        6,
        49,
        53,
        7,
        26,
        45,
        50,
        54,
        8,
        27,
        46,
        9,
        28,
        10,
        29,
        11,
        14,
        17,
        20,
        23,
        30,
        33,
        36,
        39,
        42,
        12,
        15,
        18,
        21,
        24,
        31,
        34,
        37,
        40,
        43,
        13,
        16,
        19,
        22,
        25,
        32,
        35,
        38,
        41,
        44
      ],
      "inverseBindMatrices": 14,
      "skeleton": 3
    },
    {
      "joints": [
        46
      ],
      "inverseBindMatrices": 15,
      "skeleton": 46
    },
    {
      "joints": [
        2,
        3,
        4,
        5,
        6,
        7,
        8,
        9,
        10,
        11,
        12,
        13,
        14,
        15,
        16,
        17,
        18,
        19,
        20,
        21,
        22,
        23,
        24,
        25,
        26,
        27,
        28,
        29,
        30,
        31,
        32,
        33,
        34,
        35,
        36,
        37,
        38,
        39,
        40,
        41,
        42,
        43,
        44,
        45,
        46,
        47,
        48,
        49,
        50,
        51,
        52,
        53,
        54
      ]
    }
  ],
  "nodes": [
    {
      "name": "RootNode",
      "translation": [
        0.0,
        0.0,
        0.0
      ],
      "rotation": [
        0.0,
        0.0,
        0.0,
        1.0
      ],
      "scale": [
        1.0,
        1.0,
        1.0
      ],
      "children": [
        1,
        55,
        56
      ]
    },
    {
      "name": "Game_engine",
      "translation": [
        0.0,
        0.0,
        0.0
      ],
      "rotation": [
        0.0,
        0.0,
        0.0,
        1.0
      ],
      "scale": [
        10.0,
        10.0,
        10.0
      ],
      "children": [
        2
      ]
    },
    {
      "name": "Root",
      "translation": [
        0.0,
        -7.62939436071974E-8,
        -0.02632075548172
      ],
      "rotation": [
        0.5,
        0.5,
        0.5,
        0.5
      ],
      "scale": [
        1.0,
        1.0,
        1.0
      ],
      "children": [
        3
      ]
    },
    {
      "name": "pelvis",
      "translation": [
        0.359643816947937,
        0.0322238355875015,
        4.65661259552164E-11
      ],
      "rotation": [
        0.616598129272461,
        0.346131145954132,
        0.616598129272461,
        -0.346131145954132
      ],
      "scale": [
        1.0,
        1.0,
        1.0
      ],
      "children": [
        4,
        47,
        51
      ]
    },
    {
      "name": "spine_01",
      "translation": [
        -4.46349843178972E-18,
        0.0299791190773249,
        1.36517164239791E-9
      ],
      "rotation": [
        0.331389099359512,
        3.36908223541599E-10,
        -9.59207824280384E-10,
        0.943494200706482
      ],
      "scale": [
        1.0,
        1.0,
        1.0
      ],
      "children": [
        5
      ]
    },
    {
      "name": "spine_02",
      "translation": [
        -5.48377991224746E-19,
        0.0396783426403999,
        -1.14948738028087E-10
      ],
      "rotation": [
        -0.0467245206236839,
        -7.34816166247931E-11,
        4.60150029191198E-10,
        0.998907804489136
      ],
      "scale": [
        1.0,
        1.0,
        1.0
      ],
      "children": [
        6
      ]
    },
    {
      "name": "spine_03",
      "translation": [
        -5.35210413246244E-19,
        0.0458784028887749,
        -2.83737920311888E-12
      ],
      "rotation": [
        -0.115667931735516,
        -6.65681260114681E-11,
        -5.94667037834284E-10,
        0.993287920951843
      ],
      "scale": [
        1.0,
        1.0,
        1.0
      ],
      "children": [
        7,
        26,
        45
      ]
    },
    {
      "name": "clavicle_l",
      "translation": [
        0.0108166690915823,
        0.0969510823488235,
        0.026592867448926
      ],
      "rotation": [
        -0.0183448903262615,
        0.0429738946259022,
        -0.790486812591553,
        0.610694110393524
      ],
      "scale": [
        1.0,
        1.0,
        1.0
      ],
      "children": [
        8
      ]
    },
    {
      "name": "upperarm_l",
      "translation": [
        -3.69571317992978E-10,
        0.0652637109160423,
        8.7013235158806E-12
      ],
      "rotation": [
        -0.0216839797794819,
        0.0354019664227962,
        -0.282031625509262,
        0.958506464958191
      ],
      "scale": [
        1.0,
        1.0,
        1.0
      ],
      "children": [
        9
      ]
    },
    {
      "name": "lowerarm_l",
      "translation": [
        1.45897438574849E-9,
        0.106823734939098,
        -1.62624719246551E-10
      ],
      "rotation": [
        0.390497267246246,
        -0.00277571217156947,
        -0.0119342710822821,
        0.920522570610046
      ],
      "scale": [
        1.0,
        1.0,
        1.0
      ],
      "children": [
        10
      ]
    },
    {
      "name": "hand_l",
      "translation": [
        -9.95468485420758E-10,
        0.113502383232117,
        -5.85163251187737E-10
      ],
      "rotation": [
        0.104560554027557,
        0.43581560254097,
        -0.0135729135945439,
        0.893838703632355
      ],
      "scale": [
        1.0,
        1.0,
        1.0
      ],
      "children": [
        11,
        14,
        17,
        20,
        23
      ]
    },
    {
      "name": "index_01_l",
      "translation": [
        -0.00575802428647876,
        0.0502805188298225,
        0.00432533724233508
      ],
      "rotation": [
        0.123530596494675,
        0.470432370901108,
        -0.00811980944126844,
        0.873709142208099
      ],
      "scale": [
        1.0,
        1.0,
        1.0
      ],
      "children": [
        12
      ]
    },
    {
      "name": "index_02_l",
      "translation": [
        -5.78100588233266E-11,
        0.0121885370463133,
        8.42106852999569E-12
      ],
      "rotation": [
        0.107181809842587,
        0.00255617080256343,
        0.00302362092770636,
        0.994231581687927
      ],
      "scale": [
        1.0,
        1.0,
        1.0
      ],
      "children": [
        13
      ]
    },
    {
      "name": "index_03_l",
      "translation": [
        -1.16864032340125E-10,
        0.010924986563623,
        -1.47217210644257E-10
      ],
      "rotation": [
        0.0676210820674896,
        0.000108073778392281,
        0.01915935985744,
        0.997527062892914
      ],
      "scale": [
        1.0,
        1.0,
        1.0
      ]
    },
    {
      "name": "middle_01_l",
      "translation": [
        0.00172784447204322,
        0.0484496168792248,
        -0.00562681304290891
      ],
      "rotation": [
        0.114186309278011,
        0.406863570213318,
        -0.159563258290291,
        0.892167627811432
      ],
      "scale": [
        1.0,
        1.0,
        1.0
      ],
      "children": [
        15
      ]
    },
    {
      "name": "middle_02_l",
      "translation": [
        6.80610914849389E-11,
        0.0159905310720205,
        -4.65333015176039E-11
      ],
      "rotation": [
        0.0407534390687943,
        0.00128449324984103,
        0.0329296216368675,
        0.998625636100769
      ],
      "scale": [
        1.0,
        1.0,
        1.0
      ],
      "children": [
        16
      ]
    },
    {
      "name": "middle_03_l",
      "translation": [
        -3.09733037828774E-11,
        0.0131932385265827,
        -9.53545506443554E-11
      ],
      "rotation": [
        0.0797744020819664,
        0.00000147941091199755,
        -0.00146962667349726,
        0.996811866760254
      ],
      "scale": [
        1.0,
        1.0,
        1.0
      ]
    },
    {
      "name": "pinky_01_l",
      "translation": [
        0.0163335092365742,
        0.0394964069128036,
        -0.0149261588230729
      ],
      "rotation": [
        0.0436143353581429,
        0.296895444393158,
        -0.306955814361572,
        0.903177201747894
      ],
      "scale": [
        1.0,
        1.0,
        1.0
      ],
      "children": [
        18
      ]
    },
    {
      "name": "pinky_02_l",
      "translation": [
        -1.14473243384428E-10,
        0.0100571429356933,
        8.03223043632784E-11
      ],
      "rotation": [
        0.106694005429745,
        0.00139201525598764,
        0.0263400934636593,
        0.993941962718964
      ],
      "scale": [
        1.0,
        1.0,
        1.0
      ],
      "children": [
        19
      ]
    },
    {
      "name": "pinky_03_l",
      "translation": [
        -3.16028800351198E-11,
        0.00741717079654336,
        9.23563417583317E-13
      ],
      "rotation": [
        -0.00534734502434731,
        0.0000079381106843357,
        -0.0119683155789971,
        0.999914050102234
      ],
      "scale": [
        1.0,
        1.0,
        1.0
      ]
    },
    {
      "name": "ring_01_l",
      "translation": [
        0.00838460400700569,
        0.0447238236665726,
        -0.0114140389487147
      ],
      "rotation": [
        0.056913897395134,
        0.383781433105469,
        -0.237119123339653,
        0.890644252300262
      ],
      "scale": [
        1.0,
        1.0,
        1.0
      ],
      "children": [
        21
      ]
    },
    {
      "name": "ring_02_l",
      "translation": [
        -1.16119662496583E-10,
        0.0141698811203241,
        1.12678075203654E-10
      ],
      "rotation": [
        0.0688338428735733,
        0.00121023540850729,
        0.0481766164302826,
        0.996463477611542
      ],
      "scale": [
        1.0,
        1.0,
        1.0
      ],
      "children": [
        22
      ]
    },
    {
      "name": "ring_03_l",
      "translation": [
        5.66752304809182E-11,
        0.0117798186838627,
        1.5010279130756E-10
      ],
      "rotation": [
        0.0700583383440971,
        -0.0000790489575592801,
        -0.0295245926827192,
        0.997105896472931
      ],
      "scale": [
        1.0,
        1.0,
        1.0
      ]
    },
    {
      "name": "thumb_01_l",
      "translation": [
        -0.00683177262544632,
        0.0190806481987238,
        0.00695149879902601
      ],
      "rotation": [
        0.280907839536667,
        0.721557915210724,
        0.448625713586807,
        0.446295768022537
      ],
      "scale": [
        1.0,
        1.0,
        1.0
      ],
      "children": [
        24
      ]
    },
    {
      "name": "thumb_02_l",
      "translation": [
        2.32803956667915E-10,
        0.0146568510681391,
        -1.23797500028999E-10
      ],
      "rotation": [
        0.0733334794640541,
        -0.0197521168738604,
        -0.191055104136467,
        0.978636801242828
      ],
      "scale": [
        1.0,
        1.0,
        1.0
      ],
      "children": [
        25
      ]
    },
    {
      "name": "thumb_03_l",
      "translation": [
        2.60878568747458E-10,
        0.0170853789895773,
        -2.30747046470192E-10
      ],
      "rotation": [
        0.152999579906464,
        -0.00538083538413048,
        -0.0347324497997761,
        0.987601041793823
      ],
      "scale": [
        1.0,
        1.0,
        1.0
      ]
    },
    {
      "name": "clavicle_r",
      "translation": [
        -0.0108166690915823,
        0.0969510823488235,
        0.026592867448926
      ],
      "rotation": [
        -0.0183448921889067,
        -0.0429738946259022,
        0.790486812591553,
        0.610694110393524
      ],
      "scale": [
        1.0,
        1.0,
        1.0
      ],
      "children": [
        27
      ]
    },
    {
      "name": "upperarm_r",
      "translation": [
        3.695711792151E-10,
        0.0652637109160423,
        8.70135907771186E-12
      ],
      "rotation": [
        -0.0216839797794819,
        -0.0354019664227962,
        0.282031625509262,
        0.958506464958191
      ],
      "scale": [
        1.0,
        1.0,
        1.0
      ],
      "children": [
        28
      ]
    },
    {
      "name": "lowerarm_r",
      "translation": [
        -1.45897427472619E-9,
        0.106823734939098,
        -1.62624719246551E-10
      ],
      "rotation": [
        0.390497267246246,
        0.00277571217156947,
        0.0119342710822821,
        0.920522570610046
      ],
      "scale": [
        1.0,
        1.0,
        1.0
      ],
      "children": [
        29
      ]
    },
    {
      "name": "hand_r",
      "translation": [
        9.95468374398456E-10,
        0.113502383232117,
        -5.85163251187737E-10
      ],
      "rotation": [
        0.104560554027557,
        -0.43581560254097,
        0.0135729135945439,
        0.893838703632355
      ],
      "scale": [
        1.0,
        1.0,
        1.0
      ],
      "children": [
        30,
        33,
        36,
        39,
        42
      ]
    },
    {
      "name": "index_01_r",
      "translation": [
        0.00575802428647876,
        0.0502805188298225,
        0.00432533724233508
      ],
      "rotation": [
        0.123530596494675,
        -0.470432370901108,
        0.00811980944126844,
        0.873709142208099
      ],
      "scale": [
        1.0,
        1.0,
        1.0
      ],
      "children": [
        31
      ]
    },
    {
      "name": "index_02_r",
      "translation": [
        5.78100206594101E-11,
        0.0121885370463133,
        8.42106852999569E-12
      ],
      "rotation": [
        0.107181809842587,
        -0.00255617080256343,
        -0.00302362092770636,
        0.994231581687927
      ],
      "scale": [
        1.0,
        1.0,
        1.0
      ],
      "children": [
        32
      ]
    },
    {
      "name": "index_03_r",
      "translation": [
        1.16864073973488E-10,
        0.010924986563623,
        -1.4721712737753E-10
      ],
      "rotation": [
        0.0676210820674896,
        -0.000108073778392281,
        -0.01915935985744,
        0.997527062892914
      ],
      "scale": [
        1.0,
        1.0,
        1.0
      ]
    },
    {
      "name": "middle_01_r",
      "translation": [
        -0.00172784447204322,
        0.0484496168792248,
        -0.00562681304290891
      ],
      "rotation": [
        0.114186309278011,
        -0.406863570213318,
        0.159563258290291,
        0.892167627811432
      ],
      "scale": [
        1.0,
        1.0,
        1.0
      ],
      "children": [
        34
      ]
    },
    {
      "name": "middle_02_r",
      "translation": [
        -6.80611261794084E-11,
        0.0159905310720205,
        -4.65333015176039E-11
      ],
      "rotation": [
        0.0407534390687943,
        -0.00128449324984103,
        -0.0329296216368675,
        0.998625636100769
      ],
      "scale": [
        1.0,
        1.0,
        1.0
      ],
      "children": [
        35
      ]
    },
    {
      "name": "middle_03_r",
      "translation": [
        3.0973338477347E-11,
        0.0131932385265827,
        -9.53546200332944E-11
      ],
      "rotation": [
        0.0797744020819664,
        -0.00000147941091199755,
        0.00146962667349726,
        0.996811866760254
      ],
      "scale": [
        1.0,
        1.0,
        1.0
      ]
    },
    {
      "name": "pinky_01_r",
      "translation": [
        -0.0163335092365742,
        0.0394964069128036,
        -0.0149261588230729
      ],
      "rotation": [
        0.0436143353581429,
        -0.296895444393158,
        0.306955814361572,
        0.903177201747894
      ],
      "scale": [
        1.0,
        1.0,
        1.0
      ],
      "children": [
        37
      ]
    },
    {
      "name": "pinky_02_r",
      "translation": [
        1.14473264201109E-10,
        0.0100571429356933,
        8.03223043632784E-11
      ],
      "rotation": [
        0.106694005429745,
        -0.00139201525598764,
        -0.0263400934636593,
        0.993941962718964
      ],
      "scale": [
        1.0,
        1.0,
        1.0
      ],
      "children": [
        38
      ]
    },
    {
      "name": "pinky_03_r",
      "translation": [
        3.16028453406503E-11,
        0.00741717079654336,
        9.2349240234102E-13
      ],
      "rotation": [
        -0.00534734502434731,
        -0.0000079381106843357,
        0.0119683155789971,
        0.999914050102234
      ],
      "scale": [
        1.0,
        1.0,
        1.0
      ]
    },
    {
      "name": "ring_01_r",
      "translation": [
        -0.00838460400700569,
        0.0447238236665726,
        -0.0114140389487147
      ],
      "rotation": [
        0.056913897395134,
        -0.383781433105469,
        0.237119123339653,
        0.890644252300262
      ],
      "scale": [
        1.0,
        1.0,
        1.0
      ],
      "children": [
        40
      ]
    },
    {
      "name": "ring_02_r",
      "translation": [
        1.16119662496583E-10,
        0.0141698811203241,
        1.12678005814715E-10
      ],
      "rotation": [
        0.0688338428735733,
        -0.00121023540850729,
        -0.0481766164302826,
        0.996463477611542
      ],
      "scale": [
        1.0,
        1.0,
        1.0
      ],
      "children": [
        41
      ]
    },
    {
      "name": "ring_03_r",
      "translation": [
        -5.66752859920694E-11,
        0.0117798186838627,
        1.50102721918621E-10
      ],
      "rotation": [
        0.0700583383440971,
        0.0000790489575592801,
        0.0295245926827192,
        0.997105896472931
      ],
      "scale": [
        1.0,
        1.0,
        1.0
      ]
    },
    {
      "name": "thumb_01_r",
      "translation": [
        0.00683177262544632,
        0.0190806481987238,
        0.00695149879902601
      ],
      "rotation": [
        -0.280907839536667,
        0.721557915210724,
        0.448625713586807,
        -0.446295768022537
      ],
      "scale": [
        1.0,
        1.0,
        1.0
      ],
      "children": [
        43
      ]
    },
    {
      "name": "thumb_02_r",
      "translation": [
        -2.32803956667915E-10,
        0.0146568510681391,
        -1.23797500028999E-10
      ],
      "rotation": [
        0.0733334794640541,
        0.0197521168738604,
        0.191055104136467,
        0.978636801242828
      ],
      "scale": [
        1.0,
        1.0,
        1.0
      ],
      "children": [
        44
      ]
    },
    {
      "name": "thumb_03_r",
      "translation": [
        -2.60878568747458E-10,
        0.0170853789895773,
        -2.30747046470192E-10
      ],
      "rotation": [
        0.152999579906464,
        0.00538083538413048,
        0.0347324497997761,
        0.987601041793823
      ],
      "scale": [
        1.0,
        1.0,
        1.0
      ]
    },
    {
      "name": "neck_01",
      "translation": [
        -5.60721052922375E-11,
        0.13036797940731,
        0.0253141429275274
      ],
      "rotation": [
        0.238427624106407,
        5.32064259317622E-9,
        1.54946855346338E-9,
        0.971160292625427
      ],
      "scale": [
        1.0,
        1.0,
        1.0
      ],
      "children": [
        46
      ]
    },
    {
      "name": "head",
      "translation": [
        5.27042428627347E-17,
        0.0432685427367687,
        -4.99598318270955E-9
      ],
      "rotation": [
        -0.142658650875092,
        -6.2632277142427E-9,
        -2.55257065484571E-10,
        0.989771962165833
      ],
      "scale": [
        1.0,
        1.0,
        1.0
      ]
    },
    {
      "name": "thigh_l",
      "translation": [
        0.0446401908993721,
        -0.012209857814014,
        -0.00282705598510802
      ],
      "rotation": [
        0.952829837799072,
        0.101274661719799,
        -0.182838946580887,
        -0.220065012574196
      ],
      "scale": [
        1.0,
        1.0,
        1.0
      ],
      "children": [
        48
      ]
    },
    {
      "name": "calf_l",
      "translation": [
        5.18850717598496E-12,
        0.165335133671761,
        -5.21572396383618E-10
      ],
      "rotation": [
        0.102382212877274,
        0.22878398001194,
        -0.0246490053832531,
        0.967764556407928
      ],
      "scale": [
        1.0,
        1.0,
        1.0
      ],
      "children": [
        49
      ]
    },
    {
      "name": "foot_l",
      "translation": [
        8.75957084645052E-10,
        0.155308946967125,
        1.01848418587736E-9
      ],
      "rotation": [
        -0.54742306470871,
        -5.89474780099408E-7,
        -3.01402025115749E-7,
        0.836856007575989
      ],
      "scale": [
        1.0,
        1.0,
        1.0
      ],
      "children": [
        50
      ]
    },
    {
      "name": "ball_l",
      "translation": [
        1.58474455780322E-10,
        0.0566793605685234,
        -2.06924610779424E-9
      ],
      "rotation": [
        -0.331195771694183,
        0.0245768651366234,
        -0.00773456878960133,
        0.943210244178772
      ],
      "scale": [
        1.0,
        1.0,
        1.0
      ]
    },
    {
      "name": "thigh_r",
      "translation": [
        -0.0446401908993721,
        -0.012209857814014,
        -0.00282705598510802
      ],
      "rotation": [
        0.952829897403717,
        -0.101274654269218,
        0.182838901877403,
        -0.220065012574196
      ],
      "scale": [
        1.0,
        1.0,
        1.0
      ],
      "children": [
        52
      ]
    },
    {
      "name": "calf_r",
      "translation": [
        -5.18854273781622E-12,
        0.165335133671761,
        -5.21572396383618E-10
      ],
      "rotation": [
        0.102382212877274,
        -0.228783935308456,
        0.0246490035206079,
        0.967764556407928
      ],
      "scale": [
        1.0,
        1.0,
        1.0
      ],
      "children": [
        53
      ]
    },
    {
      "name": "foot_r",
      "translation": [
        -8.75957084645052E-10,
        0.155308946967125,
        1.01848418587736E-9
      ],
      "rotation": [
        -0.54742306470871,
        5.89474780099408E-7,
        3.01402025115749E-7,
        0.836856007575989
      ],
      "scale": [
        1.0,
        1.0,
        1.0
      ],
      "children": [
        54
      ]
    },
    {
      "name": "ball_r",
      "translation": [
        -1.58474455780322E-10,
        0.0566793605685234,
        -2.06924610779424E-9
      ],
      "rotation": [
        -0.331195771694183,
        -0.0245768651366234,
        0.00773456878960133,
        0.943210244178772
      ],
      "scale": [
        1.0,
        1.0,
        1.0
      ]
    },
    {
      "name": "toddlerMesh",
      "translation": [
        0.0,
        0.0,
        0.0
      ],
      "rotation": [
        0.0,
        0.0,
        0.0,
        1.0
      ],
      "scale": [
        10.0,
        10.0,
        10.0
      ],
      "mesh": 0,
      "skin": 0
    },
    {
      "name": "high-polyMesh",
      "translation": [
        0.0,
        0.0,
        0.0
      ],
      "rotation": [
        0.0,
        0.0,
        0.0,
        1.0
      ],
      "scale": [
        10.0,
        10.0,
        10.0
      ],
      "mesh": 1,
      "skin": 1
    }
  ]
}
