<svg width="512" height="512" viewBox="0 0 512 512" fill="none" xmlns="http://www.w3.org/2000/svg">
<rect width="512" height="512" rx="100" fill="#E8913A"/>
<rect x="110" y="90" width="292" height="360" rx="20" fill="#FAFAF8"/>
<line x1="110" y1="160" x2="402" y2="160" stroke="#E5E7EB" stroke-width="4"/>
<line x1="110" y1="230" x2="402" y2="230" stroke="#E5E7EB" stroke-width="4"/>
<line x1="110" y1="300" x2="402" y2="300" stroke="#E5E7EB" stroke-width="4"/>
<line x1="110" y1="370" x2="402" y2="370" stroke="#E5E7EB" stroke-width="4"/>
<path d="M156 120H176V430H156V120Z" fill="#FCA5A5" opacity="0.3"/>
<path d="M220 200V170H280V200" stroke="#374151" stroke-width="14" stroke-linecap="round" stroke-linejoin="round"/>
<path d="M250 170V270" stroke="#374151" stroke-width="14" stroke-linecap="round"/>
<path d="M200 330H300" stroke="#374151" stroke-width="14" stroke-linecap="round"/>
<path d="M200 370H300" stroke="#374151" stroke-width="14" stroke-linecap="round"/>
<rect x="330" y="60" width="100" height="40" rx="8" fill="#F97316"/>
<rect x="340" y="50" width="16" height="30" rx="6" fill="#4B5563"/>
<rect x="370" y="50" width="16" height="30" rx="6" fill="#4B5563"/>
<rect x="400" y="50" width="16" height="30" rx="6" fill="#4B5563"/>
</svg>
