<svg xmlns="http://www.w3.org/2000/svg" viewBox="0 0 512 512" role="img" aria-label="Messaging Tester icon">
  <rect width="512" height="512" rx="104" fill="#152033"/>
  <path d="M118 168c0-30.9 25.1-56 56-56h112c30.9 0 56 25.1 56 56v50c0 30.9-25.1 56-56 56h-66l-66 54v-54h-36c-30.9 0-56-25.1-56-56v-50z" fill="#2aa88b"/>
  <path d="M222 278c0-30.9 25.1-56 56-56h60c30.9 0 56 25.1 56 56v42c0 30.9-25.1 56-56 56h-22v46l-58-46h-36c-30.9 0-56-25.1-56-56v-42z" fill="#5b8def"/>
  <path d="M176 186h106M176 224h74" fill="none" stroke="#f6fbff" stroke-width="24" stroke-linecap="round"/>
  <path d="M274 294h68M274 328h42" fill="none" stroke="#f6fbff" stroke-width="20" stroke-linecap="round"/>
</svg>
