<svg width="512" height="512" viewBox="0 0 512 512" fill="none" xmlns="http://www.w3.org/2000/svg">
  <rect width="512" height="512" rx="132" fill="url(#bg)"/>
  <rect x="88" y="104" width="336" height="304" rx="48" fill="url(#panel)" stroke="#FFFFFF" stroke-opacity="0.24" stroke-width="10"/>
  <rect x="126" y="144" width="260" height="226" rx="28" fill="#0F1A29"/>
  <rect x="154" y="170" width="204" height="170" rx="22" fill="url(#screen)"/>
  <path d="M170 300L214 248L252 278L314 208L342 232V318H170V300Z" fill="#FFFFFF" fill-opacity="0.24"/>
  <path d="M214 204L188 230" stroke="#FFF5EA" stroke-width="18" stroke-linecap="round"/>
  <path d="M188 204L214 230" stroke="#FFF5EA" stroke-width="18" stroke-linecap="round"/>
  <path d="M296 196L340 240" stroke="#FFF5EA" stroke-width="20" stroke-linecap="round"/>
  <path d="M340 196L296 240" stroke="#FFF5EA" stroke-width="20" stroke-linecap="round"/>
  <path d="M132 410L222 320" stroke="#FFD56F" stroke-width="24" stroke-linecap="round"/>
  <path d="M222 320L204 314" stroke="#FFD56F" stroke-width="24" stroke-linecap="round"/>
  <path d="M222 320L216 338" stroke="#FFD56F" stroke-width="24" stroke-linecap="round"/>
  <defs>
    <linearGradient id="bg" x1="60" y1="42" x2="462" y2="474" gradientUnits="userSpaceOnUse">
      <stop stop-color="#FF8C5A"/>
      <stop offset="0.55" stop-color="#FF5F4D"/>
      <stop offset="1" stop-color="#1F6BFF"/>
    </linearGradient>
    <linearGradient id="panel" x1="120" y1="132" x2="392" y2="394" gradientUnits="userSpaceOnUse">
      <stop stop-color="#FFF9F0" stop-opacity="0.92"/>
      <stop offset="1" stop-color="#FFF9F0" stop-opacity="0.64"/>
    </linearGradient>
    <linearGradient id="screen" x1="180" y1="180" x2="332" y2="328" gradientUnits="userSpaceOnUse">
      <stop stop-color="#4FC3FF"/>
      <stop offset="1" stop-color="#1A4BC7"/>
    </linearGradient>
  </defs>
</svg>
